%TF.GenerationSoftware,KiCad,Pcbnew,10.0.3*%
%TF.CreationDate,2026-06-24T22:16:47+03:00*%
%TF.ProjectId,fin-ltm,66696e2d-6c74-46d2-9e6b-696361645f70,rev?*%
%TF.SameCoordinates,Original*%
%TF.FileFunction,Soldermask,Bot*%
%TF.FilePolarity,Negative*%
%FSLAX46Y46*%
G04 Gerber Fmt 4.6, Leading zero omitted, Abs format (unit mm)*
G04 Created by KiCad (PCBNEW 10.0.3) date 2026-06-24 22:16:47*
%MOMM*%
%LPD*%
G01*
G04 APERTURE LIST*
G04 APERTURE END LIST*
G36*
X18338612Y-216683371D02*
G01*
X18473199Y-216710142D01*
X18599978Y-216762655D01*
X18714075Y-216838893D01*
X18811107Y-216935925D01*
X18887345Y-217050022D01*
X18939858Y-217176801D01*
X18966629Y-217311388D01*
X18966629Y-217448612D01*
X18939858Y-217583199D01*
X18887345Y-217709978D01*
X18811107Y-217824075D01*
X18714075Y-217921107D01*
X18599978Y-217997345D01*
X18473199Y-218049858D01*
X18338612Y-218076629D01*
X18270000Y-218080000D01*
X18269384Y-218080000D01*
X17470616Y-218080000D01*
X17470000Y-218080000D01*
X17401388Y-218076629D01*
X17266801Y-218049858D01*
X17140022Y-217997345D01*
X17025925Y-217921107D01*
X16928893Y-217824075D01*
X16852655Y-217709978D01*
X16800142Y-217583199D01*
X16773371Y-217448612D01*
X16773371Y-217311388D01*
X16800142Y-217176801D01*
X16852655Y-217050022D01*
X16928893Y-216935925D01*
X17025925Y-216838893D01*
X17140022Y-216762655D01*
X17266801Y-216710142D01*
X17401388Y-216683371D01*
X17470000Y-216680000D01*
X18270000Y-216680000D01*
X18338612Y-216683371D01*
G37*
G36*
X22638612Y-216683371D02*
G01*
X22773199Y-216710142D01*
X22899978Y-216762655D01*
X23014075Y-216838893D01*
X23111107Y-216935925D01*
X23187345Y-217050022D01*
X23239858Y-217176801D01*
X23266629Y-217311388D01*
X23266629Y-217448612D01*
X23239858Y-217583199D01*
X23187345Y-217709978D01*
X23111107Y-217824075D01*
X23014075Y-217921107D01*
X22899978Y-217997345D01*
X22773199Y-218049858D01*
X22638612Y-218076629D01*
X22570000Y-218080000D01*
X22569384Y-218080000D01*
X21570616Y-218080000D01*
X21570000Y-218080000D01*
X21501388Y-218076629D01*
X21366801Y-218049858D01*
X21240022Y-217997345D01*
X21125925Y-217921107D01*
X21028893Y-217824075D01*
X20952655Y-217709978D01*
X20900142Y-217583199D01*
X20873371Y-217448612D01*
X20873371Y-217311388D01*
X20900142Y-217176801D01*
X20952655Y-217050022D01*
X21028893Y-216935925D01*
X21125925Y-216838893D01*
X21240022Y-216762655D01*
X21366801Y-216710142D01*
X21501388Y-216683371D01*
X21570000Y-216680000D01*
X22570000Y-216680000D01*
X22638612Y-216683371D01*
G37*
G36*
X21683939Y-215616642D02*
G01*
X21763067Y-215662326D01*
X21827674Y-215726933D01*
X21873358Y-215806061D01*
X21897006Y-215894316D01*
X21897006Y-215985684D01*
X21873358Y-216073939D01*
X21827674Y-216153067D01*
X21763067Y-216217674D01*
X21683939Y-216263358D01*
X21595684Y-216287006D01*
X21504316Y-216287006D01*
X21416061Y-216263358D01*
X21336933Y-216217674D01*
X21272326Y-216153067D01*
X21226642Y-216073939D01*
X21202994Y-215985684D01*
X21202994Y-215894316D01*
X21226642Y-215806061D01*
X21272326Y-215726933D01*
X21336933Y-215662326D01*
X21416061Y-215616642D01*
X21504316Y-215592994D01*
X21595684Y-215592994D01*
X21683939Y-215616642D01*
G37*
G36*
X17364805Y-214772836D02*
G01*
X17432628Y-214811994D01*
X17488006Y-214867372D01*
X17527164Y-214935195D01*
X17547433Y-215010842D01*
X17547433Y-215089158D01*
X17527164Y-215164805D01*
X17488006Y-215232628D01*
X17432628Y-215288006D01*
X17364805Y-215327164D01*
X17289158Y-215347433D01*
X17210842Y-215347433D01*
X17135195Y-215327164D01*
X17067372Y-215288006D01*
X17011994Y-215232628D01*
X16972836Y-215164805D01*
X16952567Y-215089158D01*
X16952567Y-215010842D01*
X16972836Y-214935195D01*
X17011994Y-214867372D01*
X17067372Y-214811994D01*
X17135195Y-214772836D01*
X17210842Y-214752567D01*
X17289158Y-214752567D01*
X17364805Y-214772836D01*
G37*
G36*
X19364805Y-214772836D02*
G01*
X19432628Y-214811994D01*
X19488006Y-214867372D01*
X19527164Y-214935195D01*
X19547433Y-215010842D01*
X19547433Y-215089158D01*
X19527164Y-215164805D01*
X19488006Y-215232628D01*
X19432628Y-215288006D01*
X19364805Y-215327164D01*
X19289158Y-215347433D01*
X19210842Y-215347433D01*
X19135195Y-215327164D01*
X19067372Y-215288006D01*
X19011994Y-215232628D01*
X18972836Y-215164805D01*
X18952567Y-215089158D01*
X18952567Y-215010842D01*
X18972836Y-214935195D01*
X19011994Y-214867372D01*
X19067372Y-214811994D01*
X19135195Y-214772836D01*
X19210842Y-214752567D01*
X19289158Y-214752567D01*
X19364805Y-214772836D01*
G37*
G36*
X17364805Y-210772836D02*
G01*
X17432628Y-210811994D01*
X17488006Y-210867372D01*
X17527164Y-210935195D01*
X17547433Y-211010842D01*
X17547433Y-211089158D01*
X17527164Y-211164805D01*
X17488006Y-211232628D01*
X17432628Y-211288006D01*
X17364805Y-211327164D01*
X17289158Y-211347433D01*
X17210842Y-211347433D01*
X17135195Y-211327164D01*
X17067372Y-211288006D01*
X17011994Y-211232628D01*
X16972836Y-211164805D01*
X16952567Y-211089158D01*
X16952567Y-211010842D01*
X16972836Y-210935195D01*
X17011994Y-210867372D01*
X17067372Y-210811994D01*
X17135195Y-210772836D01*
X17210842Y-210752567D01*
X17289158Y-210752567D01*
X17364805Y-210772836D01*
G37*
G36*
X19364805Y-210772836D02*
G01*
X19432628Y-210811994D01*
X19488006Y-210867372D01*
X19527164Y-210935195D01*
X19547433Y-211010842D01*
X19547433Y-211089158D01*
X19527164Y-211164805D01*
X19488006Y-211232628D01*
X19432628Y-211288006D01*
X19364805Y-211327164D01*
X19289158Y-211347433D01*
X19210842Y-211347433D01*
X19135195Y-211327164D01*
X19067372Y-211288006D01*
X19011994Y-211232628D01*
X18972836Y-211164805D01*
X18952567Y-211089158D01*
X18952567Y-211010842D01*
X18972836Y-210935195D01*
X19011994Y-210867372D01*
X19067372Y-210811994D01*
X19135195Y-210772836D01*
X19210842Y-210752567D01*
X19289158Y-210752567D01*
X19364805Y-210772836D01*
G37*
G36*
X21683939Y-209836642D02*
G01*
X21763067Y-209882326D01*
X21827674Y-209946933D01*
X21873358Y-210026061D01*
X21897006Y-210114316D01*
X21897006Y-210205684D01*
X21873358Y-210293939D01*
X21827674Y-210373067D01*
X21763067Y-210437674D01*
X21683939Y-210483358D01*
X21595684Y-210507006D01*
X21504316Y-210507006D01*
X21416061Y-210483358D01*
X21336933Y-210437674D01*
X21272326Y-210373067D01*
X21226642Y-210293939D01*
X21202994Y-210205684D01*
X21202994Y-210114316D01*
X21226642Y-210026061D01*
X21272326Y-209946933D01*
X21336933Y-209882326D01*
X21416061Y-209836642D01*
X21504316Y-209812994D01*
X21595684Y-209812994D01*
X21683939Y-209836642D01*
G37*
G36*
X18338612Y-208023371D02*
G01*
X18473199Y-208050142D01*
X18599978Y-208102655D01*
X18714075Y-208178893D01*
X18811107Y-208275925D01*
X18887345Y-208390022D01*
X18939858Y-208516801D01*
X18966629Y-208651388D01*
X18966629Y-208788612D01*
X18939858Y-208923199D01*
X18887345Y-209049978D01*
X18811107Y-209164075D01*
X18714075Y-209261107D01*
X18599978Y-209337345D01*
X18473199Y-209389858D01*
X18338612Y-209416629D01*
X18270000Y-209420000D01*
X18269384Y-209420000D01*
X17470616Y-209420000D01*
X17470000Y-209420000D01*
X17401388Y-209416629D01*
X17266801Y-209389858D01*
X17140022Y-209337345D01*
X17025925Y-209261107D01*
X16928893Y-209164075D01*
X16852655Y-209049978D01*
X16800142Y-208923199D01*
X16773371Y-208788612D01*
X16773371Y-208651388D01*
X16800142Y-208516801D01*
X16852655Y-208390022D01*
X16928893Y-208275925D01*
X17025925Y-208178893D01*
X17140022Y-208102655D01*
X17266801Y-208050142D01*
X17401388Y-208023371D01*
X17470000Y-208020000D01*
X18270000Y-208020000D01*
X18338612Y-208023371D01*
G37*
G36*
X22638612Y-208023371D02*
G01*
X22773199Y-208050142D01*
X22899978Y-208102655D01*
X23014075Y-208178893D01*
X23111107Y-208275925D01*
X23187345Y-208390022D01*
X23239858Y-208516801D01*
X23266629Y-208651388D01*
X23266629Y-208788612D01*
X23239858Y-208923199D01*
X23187345Y-209049978D01*
X23111107Y-209164075D01*
X23014075Y-209261107D01*
X22899978Y-209337345D01*
X22773199Y-209389858D01*
X22638612Y-209416629D01*
X22570000Y-209420000D01*
X22569384Y-209420000D01*
X21570616Y-209420000D01*
X21570000Y-209420000D01*
X21501388Y-209416629D01*
X21366801Y-209389858D01*
X21240022Y-209337345D01*
X21125925Y-209261107D01*
X21028893Y-209164075D01*
X20952655Y-209049978D01*
X20900142Y-208923199D01*
X20873371Y-208788612D01*
X20873371Y-208651388D01*
X20900142Y-208516801D01*
X20952655Y-208390022D01*
X21028893Y-208275925D01*
X21125925Y-208178893D01*
X21240022Y-208102655D01*
X21366801Y-208050142D01*
X21501388Y-208023371D01*
X21570000Y-208020000D01*
X22570000Y-208020000D01*
X22638612Y-208023371D01*
G37*
G36*
X20308148Y-64216472D02*
G01*
X20505142Y-64280479D01*
X20689698Y-64374515D01*
X20857271Y-64496264D01*
X21003736Y-64642729D01*
X21125485Y-64810302D01*
X21219521Y-64994858D01*
X21283528Y-65191852D01*
X21315931Y-65396434D01*
X21315931Y-65603566D01*
X21283528Y-65808148D01*
X21219521Y-66005142D01*
X21125485Y-66189698D01*
X21003736Y-66357271D01*
X20857271Y-66503736D01*
X20689698Y-66625485D01*
X20505142Y-66719521D01*
X20308148Y-66783528D01*
X20103566Y-66815931D01*
X19896434Y-66815931D01*
X19691852Y-66783528D01*
X19494858Y-66719521D01*
X19310302Y-66625485D01*
X19142729Y-66503736D01*
X18996264Y-66357271D01*
X18874515Y-66189698D01*
X18780479Y-66005142D01*
X18716472Y-65808148D01*
X18684069Y-65603566D01*
X18684069Y-65396434D01*
X18716472Y-65191852D01*
X18780479Y-64994858D01*
X18874515Y-64810302D01*
X18996264Y-64642729D01*
X19142729Y-64496264D01*
X19310302Y-64374515D01*
X19494858Y-64280479D01*
X19691852Y-64216472D01*
X19896434Y-64184069D01*
X20103566Y-64184069D01*
X20308148Y-64216472D01*
G37*
G36*
X20308148Y-61216472D02*
G01*
X20505142Y-61280479D01*
X20689698Y-61374515D01*
X20857271Y-61496264D01*
X21003736Y-61642729D01*
X21125485Y-61810302D01*
X21219521Y-61994858D01*
X21283528Y-62191852D01*
X21315931Y-62396434D01*
X21315931Y-62603566D01*
X21283528Y-62808148D01*
X21219521Y-63005142D01*
X21125485Y-63189698D01*
X21003736Y-63357271D01*
X20857271Y-63503736D01*
X20689698Y-63625485D01*
X20505142Y-63719521D01*
X20308148Y-63783528D01*
X20103566Y-63815931D01*
X19896434Y-63815931D01*
X19691852Y-63783528D01*
X19494858Y-63719521D01*
X19310302Y-63625485D01*
X19142729Y-63503736D01*
X18996264Y-63357271D01*
X18874515Y-63189698D01*
X18780479Y-63005142D01*
X18716472Y-62808148D01*
X18684069Y-62603566D01*
X18684069Y-62396434D01*
X18716472Y-62191852D01*
X18780479Y-61994858D01*
X18874515Y-61810302D01*
X18996264Y-61642729D01*
X19142729Y-61496264D01*
X19310302Y-61374515D01*
X19494858Y-61280479D01*
X19691852Y-61216472D01*
X19896434Y-61184069D01*
X20103566Y-61184069D01*
X20308148Y-61216472D01*
G37*
G36*
X20308148Y-58216472D02*
G01*
X20505142Y-58280479D01*
X20689698Y-58374515D01*
X20857271Y-58496264D01*
X21003736Y-58642729D01*
X21125485Y-58810302D01*
X21219521Y-58994858D01*
X21283528Y-59191852D01*
X21315931Y-59396434D01*
X21315931Y-59603566D01*
X21283528Y-59808148D01*
X21219521Y-60005142D01*
X21125485Y-60189698D01*
X21003736Y-60357271D01*
X20857271Y-60503736D01*
X20689698Y-60625485D01*
X20505142Y-60719521D01*
X20308148Y-60783528D01*
X20103566Y-60815931D01*
X19896434Y-60815931D01*
X19691852Y-60783528D01*
X19494858Y-60719521D01*
X19310302Y-60625485D01*
X19142729Y-60503736D01*
X18996264Y-60357271D01*
X18874515Y-60189698D01*
X18780479Y-60005142D01*
X18716472Y-59808148D01*
X18684069Y-59603566D01*
X18684069Y-59396434D01*
X18716472Y-59191852D01*
X18780479Y-58994858D01*
X18874515Y-58810302D01*
X18996264Y-58642729D01*
X19142729Y-58496264D01*
X19310302Y-58374515D01*
X19494858Y-58280479D01*
X19691852Y-58216472D01*
X19896434Y-58184069D01*
X20103566Y-58184069D01*
X20308148Y-58216472D01*
G37*
G36*
X20308148Y-55216472D02*
G01*
X20505142Y-55280479D01*
X20689698Y-55374515D01*
X20857271Y-55496264D01*
X21003736Y-55642729D01*
X21125485Y-55810302D01*
X21219521Y-55994858D01*
X21283528Y-56191852D01*
X21315931Y-56396434D01*
X21315931Y-56603566D01*
X21283528Y-56808148D01*
X21219521Y-57005142D01*
X21125485Y-57189698D01*
X21003736Y-57357271D01*
X20857271Y-57503736D01*
X20689698Y-57625485D01*
X20505142Y-57719521D01*
X20308148Y-57783528D01*
X20103566Y-57815931D01*
X19896434Y-57815931D01*
X19691852Y-57783528D01*
X19494858Y-57719521D01*
X19310302Y-57625485D01*
X19142729Y-57503736D01*
X18996264Y-57357271D01*
X18874515Y-57189698D01*
X18780479Y-57005142D01*
X18716472Y-56808148D01*
X18684069Y-56603566D01*
X18684069Y-56396434D01*
X18716472Y-56191852D01*
X18780479Y-55994858D01*
X18874515Y-55810302D01*
X18996264Y-55642729D01*
X19142729Y-55496264D01*
X19310302Y-55374515D01*
X19494858Y-55280479D01*
X19691852Y-55216472D01*
X19896434Y-55184069D01*
X20103566Y-55184069D01*
X20308148Y-55216472D01*
G37*
G36*
X20308148Y-52216472D02*
G01*
X20505142Y-52280479D01*
X20689698Y-52374515D01*
X20857271Y-52496264D01*
X21003736Y-52642729D01*
X21125485Y-52810302D01*
X21219521Y-52994858D01*
X21283528Y-53191852D01*
X21315931Y-53396434D01*
X21315931Y-53603566D01*
X21283528Y-53808148D01*
X21219521Y-54005142D01*
X21125485Y-54189698D01*
X21003736Y-54357271D01*
X20857271Y-54503736D01*
X20689698Y-54625485D01*
X20505142Y-54719521D01*
X20308148Y-54783528D01*
X20103566Y-54815931D01*
X19896434Y-54815931D01*
X19691852Y-54783528D01*
X19494858Y-54719521D01*
X19310302Y-54625485D01*
X19142729Y-54503736D01*
X18996264Y-54357271D01*
X18874515Y-54189698D01*
X18780479Y-54005142D01*
X18716472Y-53808148D01*
X18684069Y-53603566D01*
X18684069Y-53396434D01*
X18716472Y-53191852D01*
X18780479Y-52994858D01*
X18874515Y-52810302D01*
X18996264Y-52642729D01*
X19142729Y-52496264D01*
X19310302Y-52374515D01*
X19494858Y-52280479D01*
X19691852Y-52216472D01*
X19896434Y-52184069D01*
X20103566Y-52184069D01*
X20308148Y-52216472D01*
G37*
G36*
X20308148Y-49216472D02*
G01*
X20505142Y-49280479D01*
X20689698Y-49374515D01*
X20857271Y-49496264D01*
X21003736Y-49642729D01*
X21125485Y-49810302D01*
X21219521Y-49994858D01*
X21283528Y-50191852D01*
X21315931Y-50396434D01*
X21315931Y-50603566D01*
X21283528Y-50808148D01*
X21219521Y-51005142D01*
X21125485Y-51189698D01*
X21003736Y-51357271D01*
X20857271Y-51503736D01*
X20689698Y-51625485D01*
X20505142Y-51719521D01*
X20308148Y-51783528D01*
X20103566Y-51815931D01*
X19896434Y-51815931D01*
X19691852Y-51783528D01*
X19494858Y-51719521D01*
X19310302Y-51625485D01*
X19142729Y-51503736D01*
X18996264Y-51357271D01*
X18874515Y-51189698D01*
X18780479Y-51005142D01*
X18716472Y-50808148D01*
X18684069Y-50603566D01*
X18684069Y-50396434D01*
X18716472Y-50191852D01*
X18780479Y-49994858D01*
X18874515Y-49810302D01*
X18996264Y-49642729D01*
X19142729Y-49496264D01*
X19310302Y-49374515D01*
X19494858Y-49280479D01*
X19691852Y-49216472D01*
X19896434Y-49184069D01*
X20103566Y-49184069D01*
X20308148Y-49216472D01*
G37*
G36*
X20308148Y-46216472D02*
G01*
X20505142Y-46280479D01*
X20689698Y-46374515D01*
X20857271Y-46496264D01*
X21003736Y-46642729D01*
X21125485Y-46810302D01*
X21219521Y-46994858D01*
X21283528Y-47191852D01*
X21315931Y-47396434D01*
X21315931Y-47603566D01*
X21283528Y-47808148D01*
X21219521Y-48005142D01*
X21125485Y-48189698D01*
X21003736Y-48357271D01*
X20857271Y-48503736D01*
X20689698Y-48625485D01*
X20505142Y-48719521D01*
X20308148Y-48783528D01*
X20103566Y-48815931D01*
X19896434Y-48815931D01*
X19691852Y-48783528D01*
X19494858Y-48719521D01*
X19310302Y-48625485D01*
X19142729Y-48503736D01*
X18996264Y-48357271D01*
X18874515Y-48189698D01*
X18780479Y-48005142D01*
X18716472Y-47808148D01*
X18684069Y-47603566D01*
X18684069Y-47396434D01*
X18716472Y-47191852D01*
X18780479Y-46994858D01*
X18874515Y-46810302D01*
X18996264Y-46642729D01*
X19142729Y-46496264D01*
X19310302Y-46374515D01*
X19494858Y-46280479D01*
X19691852Y-46216472D01*
X19896434Y-46184069D01*
X20103566Y-46184069D01*
X20308148Y-46216472D01*
G37*
M02*
