M48
; DRILL file KiCad 10.0.3 date 2026-06-24T22:16:47
; FORMAT={-:-/ absolute / inch / decimal}
; #@! TF.CreationDate,2026-06-24T22:16:47+03:00
; #@! TF.GenerationSoftware,Kicad,Pcbnew,10.0.3
; #@! TF.FileFunction,Plated,1,2,PTH
FMAT,2
INCH
; #@! TA.AperFunction,Plated,PTH,ViaDrill
T1C0.0118
; #@! TA.AperFunction,Plated,PTH,ComponentDrill
T2C0.0118
; #@! TA.AperFunction,Plated,PTH,ComponentDrill
T3C0.0197
%
G90
G05
T1
X0.6398Y-3.3465
X0.6398Y-3.7402
X0.6398Y-4.1339
X0.6398Y-4.5276
X0.6398Y-4.9213
X0.6398Y-5.315
X0.6398Y-5.7087
X0.6398Y-6.1024
X0.6398Y-6.4961
X0.6398Y-6.8898
X0.6398Y-7.2835
X0.6398Y-7.6772
X0.6496Y-1.3976
X0.6732Y-1.2894
X0.689Y-0.8957
X0.7382Y-3.7402
X0.7382Y-4.1339
X0.7382Y-4.5276
X0.7382Y-4.9213
X0.7382Y-5.315
X0.7382Y-5.7087
X0.7382Y-6.1024
X0.7382Y-6.4961
X0.7382Y-6.8898
X0.7382Y-7.2835
X0.7382Y-7.6772
X0.748Y-1.6142
X0.748Y-3.3465
X0.7579Y-1.25
X0.7717Y-1.4469
X0.7972Y-1.2795
X0.7972Y-1.6142
X0.8118Y-8.2823
X0.8169Y-1.3976
X0.8366Y-8.4646
X0.8465Y-1.6339
X0.8465Y-8.3681
X0.8465Y-8.4075
X0.8563Y-1.565
X0.8661Y-1.2795
X0.8661Y-8.0807
X0.876Y-1.063
X0.8858Y-0.8957
X0.8957Y-1.624
X0.9301Y-1.4173
X0.935Y-2.9035
X0.935Y-8.0217
X0.9449Y-8.358
X0.9449Y-8.4173
X0.9547Y-1.565
X0.9633Y-1.2187
X0.9646Y-1.8209
X0.9738Y-7.7176
X0.9744Y-1.4961
X0.9744Y-7.6772
X0.9843Y-1.3091
X1.0039Y-1.5256
X1.0039Y-8.2776
X1.0075Y-7.9528
X1.0138Y-2.9823
X1.0174Y-8.061
X1.0339Y-7.7805
X1.0433Y-1.5551
X1.0433Y-7.687
X1.0493Y-8.003
X1.063Y-1.2795
X1.0728Y-1.3681
X1.0728Y-1.437
X1.082Y-6.4906
X1.0827Y-0.8957
X1.0931Y-7.737
X1.1024Y-8.2776
X1.122Y-1.2106
X1.122Y-1.6142
X1.1221Y-1.5558
X1.1312Y-1.2943
X1.1417Y-1.1811
X1.1417Y-1.7717
X1.1417Y-2.1654
X1.1417Y-2.5591
X1.1516Y-1.6732
X1.1516Y-6.4567
X1.1614Y-1.0925
X1.1614Y-1.4567
X1.1705Y-7.9923
X1.1811Y-6.437
X1.1932Y-1.4567
X1.1941Y-7.81
X1.2052Y-6.5101
X1.2106Y-8.6122
X1.2402Y-1.7717
X1.2402Y-2.1654
X1.2402Y-2.5591
X1.2536Y-1.4984
X1.2544Y-1.1618
X1.2562Y-1.2606
X1.2587Y-7.9015
X1.2598Y-6.4764
X1.2697Y-1.2894
X1.2697Y-7.8248
X1.2795Y-0.8957
X1.2795Y-1.1811
X1.3002Y-1.1304
X1.3079Y-6.5622
X1.3287Y-1.3384
X1.3386Y-1.1024
X1.3386Y-1.624
X1.3707Y-1.0974
X1.3862Y-7.9351
X1.3976Y-8.6122
X1.4072Y-1.1004
X1.4075Y-1.6535
X1.408Y-6.6197
X1.4469Y-1.3681
X1.4565Y-1.1033
X1.4764Y-0.8957
X1.4861Y-0.9547
X1.4861Y-0.9941
X1.4861Y-1.0335
X1.4861Y-1.0728
X1.4862Y-0.9252
X1.4862Y-1.3681
X1.4862Y-1.7323
X1.4862Y-1.7717
X1.4862Y-8.6614
X1.4934Y-7.9038
X1.4976Y-6.6932
X1.5059Y-6.7717
X1.5272Y-8.5147
X1.5403Y-6.1909
X1.5413Y-8.633
X1.5451Y-1.0039
X1.5451Y-1.0335
X1.5451Y-1.063
X1.5453Y-1.4469
X1.5453Y-1.6535
X1.552Y-6.3052
X1.555Y-1.1319
X1.5551Y-0.8957
X1.5551Y-6.7913
X1.565Y-8.7008
X1.5656Y-1.2649
X1.5717Y-6.0736
X1.5748Y-6.7028
X1.5748Y-7.9232
X1.5752Y-6.4242
X1.5845Y-0.935
X1.5845Y-0.9744
X1.5846Y-1.4469
X1.5846Y-1.6781
X1.5867Y-7.0276
X1.589Y-6.8517
X1.5916Y-8.4098
X1.5943Y-1.0925
X1.5945Y-1.3483
X1.5954Y-7.8546
X1.5969Y-7.1431
X1.6043Y-6.1516
X1.6109Y-6.9174
X1.6117Y-6.5333
X1.6143Y-7.2534
X1.624Y-1.4469
X1.624Y-1.7028
X1.6279Y-6.6565
X1.6339Y-6.752
X1.6409Y-8.6913
X1.6437Y-1.3484
X1.6437Y-6.063
X1.6437Y-7.0079
X1.6525Y-7.3683
X1.6632Y-1.1122
X1.6634Y-1.4173
X1.6634Y-1.7224
X1.6732Y-1.5108
X1.6732Y-1.624
X1.6732Y-7.874
X1.6745Y-6.0051
X1.6829Y-1.3484
X1.6831Y-4.311
X1.686Y-6.9626
X1.6923Y-8.3366
X1.7007Y-7.8095
X1.7028Y-1.5256
X1.7028Y-1.6388
X1.7028Y-7.4745
X1.7102Y-4.3625
X1.7223Y-1.1516
X1.7227Y-8.7658
X1.7321Y-1.3484
X1.7615Y-7.5738
X1.7618Y-8.3563
X1.7715Y-1.1811
X1.7715Y-1.2303
X1.7715Y-1.2697
X1.7717Y-0.8957
X1.7918Y-8.2711
X1.795Y-6.9821
X1.7968Y-5.9757
X1.8012Y-1.5748
X1.8166Y-8.8396
X1.8186Y-7.8144
X1.8215Y-7.6731
X1.8253Y-4.3336
X1.8406Y-1.5748
X1.8406Y-7.9134
X1.8504Y-8.9075
X1.8763Y-8.1817
X1.8799Y-1.4173
X1.8799Y-1.5748
X1.8898Y-8.0807
X1.8898Y-8.8287
X1.8996Y-7.8346
X1.9053Y-6.9928
X1.9094Y-7.7362
X1.9094Y-8.1201
X1.917Y-5.961
X1.9237Y-8.8923
X1.9256Y-3.2347
X1.9439Y-1.4321
X1.9456Y-8.0423
X1.9488Y-4.1831
X1.9488Y-8.181
X1.9551Y-3.1264
X1.9685Y-0.8957
X1.9783Y-4.2717
X1.9818Y-7.8004
X1.9856Y-3.4173
X1.9866Y-3.1983
X1.9866Y-3.3095
X1.9866Y-3.9798
X1.9868Y-3.8621
X1.9868Y-4.1008
X1.9882Y-7.7067
X1.9882Y-8.8484
X1.998Y-1.4173
X2.0154Y-3.7561
X2.0159Y-8.1459
X2.0202Y-7.0127
X2.0229Y-3.5304
X2.0289Y-3.6441
X2.0374Y-4.2028
X2.044Y-5.9152
X2.0445Y-3.8173
X2.0465Y-8.8886
X2.0465Y-1.4031
X2.0472Y-7.7657
X2.0866Y-7.6181
X2.0866Y-8.8287
X2.0965Y-7.1654
X2.1Y-8.2155
X2.1063Y-7.5591
X2.1063Y-8.1594
X2.1112Y-7.0909
X2.1146Y-4.3798
X2.1358Y-7.628
X2.1457Y-7.2343
X2.1457Y-7.3425
X2.1457Y-7.4508
X2.154Y-5.8493
X2.1552Y-8.8486
X2.1555Y-4.4488
X2.1654Y-0.8957
X2.186Y-8.2866
X2.189Y-4.4272
X2.19Y-7.5541
X2.1949Y-5.7283
X2.1949Y-7.126
X2.1949Y-7.5886
X2.2244Y-7.1063
X2.2244Y-7.628
X2.235Y-7.1782
X2.2441Y-4.3898
X2.2532Y-4.213
X2.2588Y-5.7277
X2.2629Y-8.7804
X2.2632Y-7.2368
X2.2638Y-4.4291
X2.2736Y-4.3012
X2.2736Y-5.6004
X2.2835Y-4.6063
X2.289Y-4.5712
X2.2933Y-8.248
X2.3031Y-5.7776
X2.308Y-5.8411
X2.313Y-5.4724
X2.313Y-7.1457
X2.3198Y-4.1154
X2.3218Y-8.2778
X2.3318Y-8.3885
X2.3327Y-4.498
X2.3367Y-7.5955
X2.3444Y-7.2185
X2.3536Y-8.7309
X2.3622Y-0.8957
X2.3644Y-4.5646
X2.3671Y-5.934
X2.3819Y-8.7106
X2.3916Y-9.0275
X2.3917Y-5.3839
X2.3927Y-4.9006
X2.398Y-4.033
X2.4114Y-8.6614
X2.4161Y-8.5288
X2.4213Y-4.7638
X2.4213Y-4.9705
X2.4213Y-8.4646
X2.4213Y-8.7894
X2.4213Y-8.9075
X2.4239Y-9.024
X2.4311Y-5.2756
X2.4312Y-5.1555
X2.4341Y-7.528
X2.4381Y-6.0179
X2.4397Y-6.6359
X2.4408Y-6.7538
X2.4409Y-8.2363
X2.4429Y-5.0394
X2.4471Y-6.3219
X2.4508Y-9.0551
X2.4524Y-4.6422
X2.4582Y-7.2442
X2.4606Y-6.2598
X2.4606Y-8.9665
X2.4611Y-8.5819
X2.4621Y-3.9419
X2.4782Y-9.0354
X2.4801Y-6.5248
X2.4803Y-4.7687
X2.4803Y-8.7697
X2.4902Y-5.0295
X2.4902Y-8.2874
X2.5Y-6.8602
X2.5Y-8.4646
X2.5Y-8.9075
X2.502Y-4.8376
X2.5023Y-6.1764
X2.5142Y-7.4278
X2.5228Y-6.293
X2.523Y-6.4137
X2.5385Y-5.0245
X2.5394Y-9.0354
X2.5444Y-3.8634
X2.5492Y-8.3071
X2.5591Y-0.8957
X2.5591Y-6.1516
X2.5591Y-7.3228
X2.5591Y-8.2382
X2.5787Y-8.7008
X2.5886Y-6.065
X2.5886Y-8.6122
X2.5886Y-8.9075
X2.5888Y-8.4757
X2.5912Y-8.3537
X2.5912Y-8.3537
X2.5978Y-6.9269
X2.6006Y-3.7719
X2.6053Y-5.1319
X2.6083Y-7.0079
X2.6181Y-7.0965
X2.6201Y-7.0374
X2.6234Y-7.2105
X2.6378Y-6.1811
X2.6465Y-6.0909
X2.6485Y-3.8061
X2.6648Y-7.024
X2.6954Y-6.1395
X2.6969Y-7.0866
X2.7008Y-5.2126
X2.7362Y-7.1949
X2.7362Y-8.2382
X2.7514Y-6.1824
X2.7556Y-3.7764
X2.7559Y-0.8957
X2.7854Y-7.1476
X2.7953Y-8.2874
X2.8031Y-5.2687
X2.8051Y-8.1791
X2.8142Y-6.1438
X2.8248Y-5.3543
X2.8543Y-8.2382
X2.862Y-3.7562
X2.874Y-5.4134
X2.9028Y-5.3293
X2.9035Y-7.1457
X2.9035Y-8.1791
X2.9232Y-6.1446
X2.9528Y-0.8957
X2.9724Y-8.2382
X2.9746Y-3.7359
X3.0197Y-5.373
X3.0217Y-7.1476
X3.0321Y-6.1448
X3.0726Y-8.1397
X3.0788Y-8.0236
X3.0974Y-3.7248
X3.1004Y-3.7894
X3.1004Y-7.185
X3.1102Y-7.0768
X3.1102Y-7.5492
X3.1102Y-7.6476
X3.1103Y-7.9137
X3.1283Y-6.1791
X3.1378Y-5.4035
X3.138Y-7.8062
X3.1492Y-6.2388
X3.1496Y-0.8957
X3.1502Y-6.0736
X3.1594Y-7.6988
X3.1594Y-8.2382
X3.1673Y-5.9547
X3.1703Y-7.3602
X3.1711Y-7.5831
X3.1712Y-7.2461
X3.1738Y-7.4725
X3.1762Y-6.371
X3.187Y-7.1594
X3.189Y-8.4055
X3.1959Y-6.0358
X3.1961Y-6.9556
X3.2087Y-8.5039
X3.2185Y-6.1024
X3.2283Y-7.0866
X3.2285Y-8.3248
X3.2395Y-5.8532
X3.2426Y-6.4808
X3.2442Y-5.4421
X3.248Y-8.4449
X3.2566Y-6.8672
X3.2677Y-5.502
X3.2677Y-5.7283
X3.2677Y-6.9882
X3.2776Y-5.5709
X3.2788Y-7.0542
X3.2874Y-8.5531
X3.2875Y-6.6133
X3.2878Y-6.7452
X3.3161Y-5.7616
X3.3169Y-5.6299
X3.3316Y-8.2332
X3.3465Y-0.8957
X3.376Y-8.2874
X3.3858Y-5.4823
X3.3905Y-7.0924
X3.4375Y-8.2286
X3.5068Y-7.0988
X3.5138Y-7.0472
X3.5433Y-0.8957
X3.5518Y-8.2228
X3.6214Y-7.0651
X3.6667Y-8.165
X3.7346Y-7.0445
X3.7402Y-0.8957
X3.7623Y-8.0793
X3.7795Y-8.002
X3.7894Y-6.9882
X3.7992Y-7.4311
X3.8287Y-7.3819
X3.8386Y-8.0709
X3.8465Y-7.0137
X3.8546Y-7.4519
X3.856Y-8.0
X3.8727Y-6.9454
X3.8864Y-7.9226
X3.9173Y-7.4114
X3.9355Y-6.9377
X3.937Y-0.8957
X3.9532Y-7.9211
X3.9646Y-7.4926
X3.9665Y-7.8445
X4.0059Y-7.815
X4.0256Y-7.5886
X4.0365Y-7.8268
X4.0453Y-6.8809
X4.0643Y-6.2223
X4.0776Y-6.1843
X4.0778Y-7.5416
X4.0846Y-7.628
X4.0991Y-7.7014
X4.124Y-7.5197
X4.1339Y-0.8957
X4.1592Y-6.8813
X4.1634Y-6.2795
X4.1901Y-7.5416
X4.1929Y-7.0374
X4.1929Y-7.372
X4.2052Y-6.9327
X4.2126Y-6.4567
X4.2126Y-7.2736
X4.2325Y-7.4285
X4.2405Y-6.3691
X4.2471Y-6.9793
X4.2501Y-6.8406
X4.2599Y-6.7221
X4.2606Y-7.3139
X4.2608Y-7.0898
X4.2719Y-7.2044
X4.2815Y-6.4862
X4.2815Y-6.6043
X4.2913Y-6.9094
X4.3209Y-7.0177
X4.3307Y-0.8957
X4.3996Y-2.7362
X4.5177Y-2.7854
X4.5276Y-0.8957
X4.5571Y-2.6673
X4.5965Y-2.5492
X4.5965Y-2.628
X4.5965Y-2.7756
X4.5965Y-2.8445
X4.5965Y-3.002
X4.6752Y-2.815
X4.6752Y-3.0413
X4.7244Y-0.8957
X4.7933Y-2.5886
X4.7933Y-2.815
X4.7933Y-3.0413
X4.812Y-3.4646
X4.812Y-3.7106
X4.812Y-3.9469
X4.812Y-4.1831
X4.9016Y-0.8957
T2
X0.6791Y-8.3091
X0.6791Y-8.4665
X0.7579Y-8.3091
X0.7579Y-8.4665
X1.3805Y-1.189
X1.3805Y-1.2283
X1.3805Y-1.2677
X1.4199Y-1.189
X1.4199Y-1.2283
X1.4199Y-1.2677
X1.4593Y-1.189
X1.4593Y-1.2283
X1.4593Y-1.2677
T3
G00X0.7193Y-8.2173
M15
G01X0.6878Y-8.2173
M16
G05
G00X0.7193Y-8.5583
M15
G01X0.6878Y-8.5583
M16
G05
G00X0.8906Y-8.2173
M15
G01X0.8472Y-8.2173
M16
G05
G00X0.8906Y-8.5583
M15
G01X0.8472Y-8.5583
M16
G05
M30
