ISO-10303-21;
HEADER;
/* Generated by software containing ST-Developer
 * from STEP Tools, Inc. (www.steptools.com) 
 */

FILE_DESCRIPTION(
/* description */ (''),
/* implementation_level */ '2;1');

FILE_NAME(
/* name */ 'WallMountTopLeft.step',
/* time_stamp */ '2026-07-19T13:19:36+03:00',
/* author */ (''),
/* organization */ (''),
/* preprocessor_version */ 'ST-DEVELOPER v20.1',
/* originating_system */ 'Autodesk Translation Framework v15.8.0.0',
/* authorisation */ '');

FILE_SCHEMA (('AUTOMOTIVE_DESIGN { 1 0 10303 214 3 1 1 }'));
ENDSEC;

DATA;
#10=MECHANICAL_DESIGN_GEOMETRIC_PRESENTATION_REPRESENTATION('',(#13),#1137);
#11=SHAPE_REPRESENTATION_RELATIONSHIP('SRR','None',#1144,#12);
#12=ADVANCED_BREP_SHAPE_REPRESENTATION('',(#14),#1136);
#13=STYLED_ITEM('',(#1155),#14);
#14=MANIFOLD_SOLID_BREP('WallMountTopLeft',#648);
#15=FACE_BOUND('',#234,.T.);
#16=PLANE('',#686);
#17=PLANE('',#689);
#18=PLANE('',#692);
#19=PLANE('',#693);
#20=PLANE('',#695);
#21=PLANE('',#696);
#22=PLANE('',#702);
#23=PLANE('',#703);
#24=PLANE('',#704);
#25=PLANE('',#705);
#26=PLANE('',#706);
#27=PLANE('',#707);
#28=PLANE('',#709);
#29=PLANE('',#712);
#30=PLANE('',#713);
#31=PLANE('',#716);
#32=PLANE('',#725);
#33=PLANE('',#726);
#34=PLANE('',#728);
#35=SPHERICAL_SURFACE('',#682,0.5);
#36=TOROIDAL_SURFACE('',#668,4.5,0.5);
#37=TOROIDAL_SURFACE('',#719,9.5,0.5);
#38=LINE('',#946,#97);
#39=LINE('',#947,#98);
#40=LINE('',#958,#99);
#41=LINE('',#959,#100);
#42=LINE('',#965,#101);
#43=LINE('',#968,#102);
#44=LINE('',#984,#103);
#45=LINE('',#987,#104);
#46=LINE('',#992,#105);
#47=LINE('',#995,#106);
#48=LINE('',#998,#107);
#49=LINE('',#999,#108);
#50=LINE('',#1002,#109);
#51=LINE('',#1006,#110);
#52=LINE('',#1007,#111);
#53=LINE('',#1010,#112);
#54=LINE('',#1014,#113);
#55=LINE('',#1016,#114);
#56=LINE('',#1017,#115);
#57=LINE('',#1020,#116);
#58=LINE('',#1022,#117);
#59=LINE('',#1025,#118);
#60=LINE('',#1028,#119);
#61=LINE('',#1029,#120);
#62=LINE('',#1032,#121);
#63=LINE('',#1036,#122);
#64=LINE('',#1037,#123);
#65=LINE('',#1040,#124);
#66=LINE('',#1043,#125);
#67=LINE('',#1046,#126);
#68=LINE('',#1051,#127);
#69=LINE('',#1053,#128);
#70=LINE('',#1055,#129);
#71=LINE('',#1056,#130);
#72=LINE('',#1059,#131);
#73=LINE('',#1061,#132);
#74=LINE('',#1062,#133);
#75=LINE('',#1065,#134);
#76=LINE('',#1067,#135);
#77=LINE('',#1068,#136);
#78=LINE('',#1070,#137);
#79=LINE('',#1071,#138);
#80=LINE('',#1076,#139);
#81=LINE('',#1078,#140);
#82=LINE('',#1081,#141);
#83=LINE('',#1085,#142);
#84=LINE('',#1087,#143);
#85=LINE('',#1091,#144);
#86=LINE('',#1094,#145);
#87=LINE('',#1095,#146);
#88=LINE('',#1096,#147);
#89=LINE('',#1098,#148);
#90=LINE('',#1099,#149);
#91=LINE('',#1102,#150);
#92=LINE('',#1106,#151);
#93=LINE('',#1107,#152);
#94=LINE('',#1117,#153);
#95=LINE('',#1130,#154);
#96=LINE('',#1132,#155);
#97=VECTOR('',#743,10.);
#98=VECTOR('',#744,10.);
#99=VECTOR('',#757,10.);
#100=VECTOR('',#758,10.);
#101=VECTOR('',#763,10.);
#102=VECTOR('',#766,10.);
#103=VECTOR('',#775,10.);
#104=VECTOR('',#778,10.);
#105=VECTOR('',#785,10.);
#106=VECTOR('',#788,10.);
#107=VECTOR('',#791,10.);
#108=VECTOR('',#792,10.);
#109=VECTOR('',#795,10.);
#110=VECTOR('',#800,10.);
#111=VECTOR('',#801,10.);
#112=VECTOR('',#804,10.);
#113=VECTOR('',#809,10.);
#114=VECTOR('',#810,10.);
#115=VECTOR('',#811,10.);
#116=VECTOR('',#814,10.);
#117=VECTOR('',#815,10.);
#118=VECTOR('',#818,10.);
#119=VECTOR('',#821,10.);
#120=VECTOR('',#822,10.);
#121=VECTOR('',#825,1.);
#122=VECTOR('',#828,0.999999999999912);
#123=VECTOR('',#829,10.);
#124=VECTOR('',#832,10.);
#125=VECTOR('',#835,10.);
#126=VECTOR('',#838,0.5);
#127=VECTOR('',#843,10.);
#128=VECTOR('',#844,10.);
#129=VECTOR('',#845,10.);
#130=VECTOR('',#846,10.);
#131=VECTOR('',#849,10.);
#132=VECTOR('',#850,10.);
#133=VECTOR('',#851,10.);
#134=VECTOR('',#854,10.);
#135=VECTOR('',#855,10.);
#136=VECTOR('',#856,10.);
#137=VECTOR('',#859,10.);
#138=VECTOR('',#860,10.);
#139=VECTOR('',#865,10.);
#140=VECTOR('',#866,0.999999999999912);
#141=VECTOR('',#869,10.);
#142=VECTOR('',#872,10.);
#143=VECTOR('',#873,10.);
#144=VECTOR('',#876,10.);
#145=VECTOR('',#881,10.);
#146=VECTOR('',#882,10.);
#147=VECTOR('',#883,10.);
#148=VECTOR('',#886,10.);
#149=VECTOR('',#887,10.);
#150=VECTOR('',#890,10.);
#151=VECTOR('',#895,10.);
#152=VECTOR('',#896,10.);
#153=VECTOR('',#911,10.);
#154=VECTOR('',#918,1.);
#155=VECTOR('',#921,1.);
#156=CYLINDRICAL_SURFACE('',#666,0.5);
#157=CYLINDRICAL_SURFACE('',#672,0.5);
#158=CYLINDRICAL_SURFACE('',#674,0.5);
#159=CYLINDRICAL_SURFACE('',#679,0.5);
#160=CYLINDRICAL_SURFACE('',#684,1.);
#161=CYLINDRICAL_SURFACE('',#687,4.);
#162=CYLINDRICAL_SURFACE('',#690,1.);
#163=CYLINDRICAL_SURFACE('',#698,0.5);
#164=CYLINDRICAL_SURFACE('',#700,0.5);
#165=CYLINDRICAL_SURFACE('',#714,1.);
#166=CYLINDRICAL_SURFACE('',#717,10.);
#167=CYLINDRICAL_SURFACE('',#722,0.5);
#168=CYLINDRICAL_SURFACE('',#727,7.499997811146);
#169=FACE_OUTER_BOUND('',#207,.T.);
#170=FACE_OUTER_BOUND('',#208,.T.);
#171=FACE_OUTER_BOUND('',#209,.T.);
#172=FACE_OUTER_BOUND('',#210,.T.);
#173=FACE_OUTER_BOUND('',#211,.T.);
#174=FACE_OUTER_BOUND('',#212,.T.);
#175=FACE_OUTER_BOUND('',#213,.T.);
#176=FACE_OUTER_BOUND('',#214,.T.);
#177=FACE_OUTER_BOUND('',#215,.T.);
#178=FACE_OUTER_BOUND('',#216,.T.);
#179=FACE_OUTER_BOUND('',#217,.T.);
#180=FACE_OUTER_BOUND('',#218,.T.);
#181=FACE_OUTER_BOUND('',#219,.T.);
#182=FACE_OUTER_BOUND('',#220,.T.);
#183=FACE_OUTER_BOUND('',#221,.T.);
#184=FACE_OUTER_BOUND('',#222,.T.);
#185=FACE_OUTER_BOUND('',#223,.T.);
#186=FACE_OUTER_BOUND('',#224,.T.);
#187=FACE_OUTER_BOUND('',#225,.T.);
#188=FACE_OUTER_BOUND('',#226,.T.);
#189=FACE_OUTER_BOUND('',#227,.T.);
#190=FACE_OUTER_BOUND('',#228,.T.);
#191=FACE_OUTER_BOUND('',#229,.T.);
#192=FACE_OUTER_BOUND('',#230,.T.);
#193=FACE_OUTER_BOUND('',#231,.T.);
#194=FACE_OUTER_BOUND('',#232,.T.);
#195=FACE_OUTER_BOUND('',#233,.T.);
#196=FACE_OUTER_BOUND('',#235,.T.);
#197=FACE_OUTER_BOUND('',#236,.T.);
#198=FACE_OUTER_BOUND('',#237,.T.);
#199=FACE_OUTER_BOUND('',#238,.T.);
#200=FACE_OUTER_BOUND('',#239,.T.);
#201=FACE_OUTER_BOUND('',#240,.T.);
#202=FACE_OUTER_BOUND('',#241,.T.);
#203=FACE_OUTER_BOUND('',#242,.T.);
#204=FACE_OUTER_BOUND('',#243,.T.);
#205=FACE_OUTER_BOUND('',#244,.T.);
#206=FACE_OUTER_BOUND('',#245,.T.);
#207=EDGE_LOOP('',(#425,#426,#427,#428));
#208=EDGE_LOOP('',(#429,#430,#431,#432));
#209=EDGE_LOOP('',(#433,#434,#435,#436));
#210=EDGE_LOOP('',(#437,#438,#439,#440));
#211=EDGE_LOOP('',(#441,#442,#443,#444));
#212=EDGE_LOOP('',(#445,#446,#447,#448));
#213=EDGE_LOOP('',(#449,#450,#451,#452));
#214=EDGE_LOOP('',(#453,#454,#455));
#215=EDGE_LOOP('',(#456,#457,#458,#459));
#216=EDGE_LOOP('',(#460,#461,#462,#463));
#217=EDGE_LOOP('',(#464,#465,#466,#467));
#218=EDGE_LOOP('',(#468,#469,#470,#471));
#219=EDGE_LOOP('',(#472,#473,#474,#475));
#220=EDGE_LOOP('',(#476,#477,#478,#479,#480,#481));
#221=EDGE_LOOP('',(#482,#483,#484,#485,#486,#487));
#222=EDGE_LOOP('',(#488,#489,#490,#491));
#223=EDGE_LOOP('',(#492,#493,#494,#495,#496,#497,#498,#499,#500,#501));
#224=EDGE_LOOP('',(#502,#503,#504,#505));
#225=EDGE_LOOP('',(#506,#507,#508,#509));
#226=EDGE_LOOP('',(#510,#511,#512,#513));
#227=EDGE_LOOP('',(#514,#515,#516,#517));
#228=EDGE_LOOP('',(#518,#519,#520,#521));
#229=EDGE_LOOP('',(#522,#523,#524,#525));
#230=EDGE_LOOP('',(#526,#527,#528,#529));
#231=EDGE_LOOP('',(#530,#531,#532,#533));
#232=EDGE_LOOP('',(#534,#535,#536,#537,#538));
#233=EDGE_LOOP('',(#539,#540,#541,#542,#543,#544));
#234=EDGE_LOOP('',(#545,#546,#547,#548));
#235=EDGE_LOOP('',(#549,#550,#551,#552,#553,#554,#555,#556));
#236=EDGE_LOOP('',(#557,#558,#559,#560));
#237=EDGE_LOOP('',(#561,#562,#563,#564));
#238=EDGE_LOOP('',(#565,#566,#567,#568,#569));
#239=EDGE_LOOP('',(#570,#571,#572,#573));
#240=EDGE_LOOP('',(#574,#575,#576,#577));
#241=EDGE_LOOP('',(#578,#579,#580,#581));
#242=EDGE_LOOP('',(#582,#583,#584,#585,#586,#587,#588,#589,#590,#591,#592));
#243=EDGE_LOOP('',(#593,#594,#595,#596));
#244=EDGE_LOOP('',(#597,#598,#599,#600,#601,#602));
#245=EDGE_LOOP('',(#603,#604,#605,#606));
#246=CIRCLE('',#662,0.500000000000001);
#247=CIRCLE('',#663,1.);
#248=CIRCLE('',#664,0.499999999999989);
#249=CIRCLE('',#665,0.5);
#250=CIRCLE('',#667,0.499999999999999);
#251=CIRCLE('',#669,0.5);
#252=CIRCLE('',#670,4.);
#253=CIRCLE('',#671,4.5);
#254=CIRCLE('',#673,0.5);
#255=CIRCLE('',#675,0.5);
#256=CIRCLE('',#676,0.500000000000007);
#257=CIRCLE('',#677,1.);
#258=CIRCLE('',#678,0.5);
#259=CIRCLE('',#680,0.5);
#260=CIRCLE('',#681,0.500000000000007);
#261=CIRCLE('',#683,0.500000000000002);
#262=CIRCLE('',#685,1.);
#263=CIRCLE('',#688,4.);
#264=CIRCLE('',#691,1.);
#265=CIRCLE('',#694,7.499997811146);
#266=CIRCLE('',#697,7.499997811146);
#267=CIRCLE('',#699,0.499999999999998);
#268=CIRCLE('',#701,0.500000000000007);
#269=CIRCLE('',#708,7.499997811146);
#270=CIRCLE('',#710,10.);
#271=CIRCLE('',#711,1.);
#272=CIRCLE('',#715,1.);
#273=CIRCLE('',#718,10.);
#274=CIRCLE('',#720,0.5);
#275=CIRCLE('',#721,9.5);
#276=CIRCLE('',#723,0.5);
#277=CIRCLE('',#724,0.5);
#278=VERTEX_POINT('',#934);
#279=VERTEX_POINT('',#935);
#280=VERTEX_POINT('',#937);
#281=VERTEX_POINT('',#939);
#282=VERTEX_POINT('',#943);
#283=VERTEX_POINT('',#944);
#284=VERTEX_POINT('',#949);
#285=VERTEX_POINT('',#950);
#286=VERTEX_POINT('',#955);
#287=VERTEX_POINT('',#956);
#288=VERTEX_POINT('',#961);
#289=VERTEX_POINT('',#962);
#290=VERTEX_POINT('',#964);
#291=VERTEX_POINT('',#966);
#292=VERTEX_POINT('',#981);
#293=VERTEX_POINT('',#982);
#294=VERTEX_POINT('',#985);
#295=VERTEX_POINT('',#991);
#296=VERTEX_POINT('',#993);
#297=VERTEX_POINT('',#997);
#298=VERTEX_POINT('',#1001);
#299=VERTEX_POINT('',#1005);
#300=VERTEX_POINT('',#1009);
#301=VERTEX_POINT('',#1013);
#302=VERTEX_POINT('',#1015);
#303=VERTEX_POINT('',#1019);
#304=VERTEX_POINT('',#1021);
#305=VERTEX_POINT('',#1023);
#306=VERTEX_POINT('',#1027);
#307=VERTEX_POINT('',#1031);
#308=VERTEX_POINT('',#1033);
#309=VERTEX_POINT('',#1035);
#310=VERTEX_POINT('',#1039);
#311=VERTEX_POINT('',#1041);
#312=VERTEX_POINT('',#1045);
#313=VERTEX_POINT('',#1049);
#314=VERTEX_POINT('',#1050);
#315=VERTEX_POINT('',#1052);
#316=VERTEX_POINT('',#1054);
#317=VERTEX_POINT('',#1058);
#318=VERTEX_POINT('',#1060);
#319=VERTEX_POINT('',#1064);
#320=VERTEX_POINT('',#1066);
#321=VERTEX_POINT('',#1074);
#322=VERTEX_POINT('',#1075);
#323=VERTEX_POINT('',#1077);
#324=VERTEX_POINT('',#1079);
#325=VERTEX_POINT('',#1083);
#326=VERTEX_POINT('',#1084);
#327=VERTEX_POINT('',#1086);
#328=VERTEX_POINT('',#1088);
#329=VERTEX_POINT('',#1090);
#330=VERTEX_POINT('',#1101);
#331=VERTEX_POINT('',#1105);
#332=VERTEX_POINT('',#1111);
#333=VERTEX_POINT('',#1115);
#334=EDGE_CURVE('',#278,#279,#246,.T.);
#335=EDGE_CURVE('',#279,#280,#247,.T.);
#336=EDGE_CURVE('',#280,#281,#248,.T.);
#337=EDGE_CURVE('',#281,#278,#249,.T.);
#338=EDGE_CURVE('',#282,#283,#250,.T.);
#339=EDGE_CURVE('',#283,#279,#38,.T.);
#340=EDGE_CURVE('',#278,#282,#39,.T.);
#341=EDGE_CURVE('',#284,#285,#251,.T.);
#342=EDGE_CURVE('',#285,#283,#252,.T.);
#343=EDGE_CURVE('',#282,#284,#253,.T.);
#344=EDGE_CURVE('',#286,#287,#254,.T.);
#345=EDGE_CURVE('',#287,#285,#40,.T.);
#346=EDGE_CURVE('',#284,#286,#41,.T.);
#347=EDGE_CURVE('',#288,#289,#255,.T.);
#348=EDGE_CURVE('',#289,#290,#42,.T.);
#349=EDGE_CURVE('',#290,#291,#256,.T.);
#350=EDGE_CURVE('',#291,#288,#43,.T.);
#351=EDGE_CURVE('',#290,#287,#257,.T.);
#352=EDGE_CURVE('',#286,#291,#258,.T.);
#353=EDGE_CURVE('',#292,#293,#259,.T.);
#354=EDGE_CURVE('',#293,#289,#44,.T.);
#355=EDGE_CURVE('',#289,#294,#260,.T.);
#356=EDGE_CURVE('',#294,#292,#45,.T.);
#357=EDGE_CURVE('',#288,#294,#261,.T.);
#358=EDGE_CURVE('',#279,#295,#46,.T.);
#359=EDGE_CURVE('',#295,#296,#262,.T.);
#360=EDGE_CURVE('',#296,#280,#47,.T.);
#361=EDGE_CURVE('',#297,#283,#48,.T.);
#362=EDGE_CURVE('',#297,#295,#49,.T.);
#363=EDGE_CURVE('',#285,#298,#50,.T.);
#364=EDGE_CURVE('',#298,#297,#263,.T.);
#365=EDGE_CURVE('',#299,#287,#51,.T.);
#366=EDGE_CURVE('',#299,#298,#52,.T.);
#367=EDGE_CURVE('',#290,#300,#53,.T.);
#368=EDGE_CURVE('',#300,#299,#264,.T.);
#369=EDGE_CURVE('',#293,#301,#54,.F.);
#370=EDGE_CURVE('',#301,#302,#55,.F.);
#371=EDGE_CURVE('',#302,#300,#56,.F.);
#372=EDGE_CURVE('',#303,#292,#57,.T.);
#373=EDGE_CURVE('',#303,#304,#58,.T.);
#374=EDGE_CURVE('',#305,#304,#265,.T.);
#375=EDGE_CURVE('',#301,#305,#59,.T.);
#376=EDGE_CURVE('',#306,#294,#60,.T.);
#377=EDGE_CURVE('',#303,#306,#61,.T.);
#378=EDGE_CURVE('',#302,#307,#62,.T.);
#379=EDGE_CURVE('',#307,#308,#266,.T.);
#380=EDGE_CURVE('',#308,#309,#63,.T.);
#381=EDGE_CURVE('',#296,#309,#64,.T.);
#382=EDGE_CURVE('',#280,#310,#65,.T.);
#383=EDGE_CURVE('',#310,#311,#267,.T.);
#384=EDGE_CURVE('',#311,#281,#66,.T.);
#385=EDGE_CURVE('',#312,#288,#67,.T.);
#386=EDGE_CURVE('',#306,#312,#268,.T.);
#387=EDGE_CURVE('',#313,#314,#68,.T.);
#388=EDGE_CURVE('',#313,#315,#69,.F.);
#389=EDGE_CURVE('',#316,#315,#70,.T.);
#390=EDGE_CURVE('',#314,#316,#71,.T.);
#391=EDGE_CURVE('',#314,#317,#72,.T.);
#392=EDGE_CURVE('',#318,#316,#73,.F.);
#393=EDGE_CURVE('',#317,#318,#74,.F.);
#394=EDGE_CURVE('',#317,#319,#75,.T.);
#395=EDGE_CURVE('',#320,#318,#76,.T.);
#396=EDGE_CURVE('',#319,#320,#77,.T.);
#397=EDGE_CURVE('',#319,#313,#78,.T.);
#398=EDGE_CURVE('',#315,#320,#79,.F.);
#399=EDGE_CURVE('',#321,#322,#80,.T.);
#400=EDGE_CURVE('',#323,#321,#81,.T.);
#401=EDGE_CURVE('',#324,#323,#269,.T.);
#402=EDGE_CURVE('',#322,#324,#82,.T.);
#403=EDGE_CURVE('',#325,#326,#83,.T.);
#404=EDGE_CURVE('',#327,#326,#84,.T.);
#405=EDGE_CURVE('',#328,#327,#270,.T.);
#406=EDGE_CURVE('',#329,#328,#85,.T.);
#407=EDGE_CURVE('',#325,#329,#271,.T.);
#408=EDGE_CURVE('',#324,#304,#86,.T.);
#409=EDGE_CURVE('',#327,#303,#87,.T.);
#410=EDGE_CURVE('',#322,#326,#88,.T.);
#411=EDGE_CURVE('',#310,#325,#89,.T.);
#412=EDGE_CURVE('',#309,#321,#90,.T.);
#413=EDGE_CURVE('',#329,#330,#91,.T.);
#414=EDGE_CURVE('',#310,#330,#272,.T.);
#415=EDGE_CURVE('',#331,#328,#92,.T.);
#416=EDGE_CURVE('',#330,#331,#93,.T.);
#417=EDGE_CURVE('',#331,#306,#273,.T.);
#418=EDGE_CURVE('',#332,#331,#274,.T.);
#419=EDGE_CURVE('',#312,#332,#275,.T.);
#420=EDGE_CURVE('',#333,#330,#276,.T.);
#421=EDGE_CURVE('',#332,#333,#94,.T.);
#422=EDGE_CURVE('',#333,#311,#277,.T.);
#423=EDGE_CURVE('',#323,#308,#95,.T.);
#424=EDGE_CURVE('',#305,#307,#96,.T.);
#425=ORIENTED_EDGE('',*,*,#334,.T.);
#426=ORIENTED_EDGE('',*,*,#335,.T.);
#427=ORIENTED_EDGE('',*,*,#336,.T.);
#428=ORIENTED_EDGE('',*,*,#337,.T.);
#429=ORIENTED_EDGE('',*,*,#338,.T.);
#430=ORIENTED_EDGE('',*,*,#339,.T.);
#431=ORIENTED_EDGE('',*,*,#334,.F.);
#432=ORIENTED_EDGE('',*,*,#340,.T.);
#433=ORIENTED_EDGE('',*,*,#341,.T.);
#434=ORIENTED_EDGE('',*,*,#342,.T.);
#435=ORIENTED_EDGE('',*,*,#338,.F.);
#436=ORIENTED_EDGE('',*,*,#343,.T.);
#437=ORIENTED_EDGE('',*,*,#344,.T.);
#438=ORIENTED_EDGE('',*,*,#345,.T.);
#439=ORIENTED_EDGE('',*,*,#341,.F.);
#440=ORIENTED_EDGE('',*,*,#346,.T.);
#441=ORIENTED_EDGE('',*,*,#347,.T.);
#442=ORIENTED_EDGE('',*,*,#348,.T.);
#443=ORIENTED_EDGE('',*,*,#349,.T.);
#444=ORIENTED_EDGE('',*,*,#350,.T.);
#445=ORIENTED_EDGE('',*,*,#349,.F.);
#446=ORIENTED_EDGE('',*,*,#351,.T.);
#447=ORIENTED_EDGE('',*,*,#344,.F.);
#448=ORIENTED_EDGE('',*,*,#352,.T.);
#449=ORIENTED_EDGE('',*,*,#353,.T.);
#450=ORIENTED_EDGE('',*,*,#354,.T.);
#451=ORIENTED_EDGE('',*,*,#355,.T.);
#452=ORIENTED_EDGE('',*,*,#356,.T.);
#453=ORIENTED_EDGE('',*,*,#355,.F.);
#454=ORIENTED_EDGE('',*,*,#347,.F.);
#455=ORIENTED_EDGE('',*,*,#357,.T.);
#456=ORIENTED_EDGE('',*,*,#335,.F.);
#457=ORIENTED_EDGE('',*,*,#358,.T.);
#458=ORIENTED_EDGE('',*,*,#359,.T.);
#459=ORIENTED_EDGE('',*,*,#360,.T.);
#460=ORIENTED_EDGE('',*,*,#339,.F.);
#461=ORIENTED_EDGE('',*,*,#361,.F.);
#462=ORIENTED_EDGE('',*,*,#362,.T.);
#463=ORIENTED_EDGE('',*,*,#358,.F.);
#464=ORIENTED_EDGE('',*,*,#342,.F.);
#465=ORIENTED_EDGE('',*,*,#363,.T.);
#466=ORIENTED_EDGE('',*,*,#364,.T.);
#467=ORIENTED_EDGE('',*,*,#361,.T.);
#468=ORIENTED_EDGE('',*,*,#345,.F.);
#469=ORIENTED_EDGE('',*,*,#365,.F.);
#470=ORIENTED_EDGE('',*,*,#366,.T.);
#471=ORIENTED_EDGE('',*,*,#363,.F.);
#472=ORIENTED_EDGE('',*,*,#351,.F.);
#473=ORIENTED_EDGE('',*,*,#367,.T.);
#474=ORIENTED_EDGE('',*,*,#368,.T.);
#475=ORIENTED_EDGE('',*,*,#365,.T.);
#476=ORIENTED_EDGE('',*,*,#348,.F.);
#477=ORIENTED_EDGE('',*,*,#354,.F.);
#478=ORIENTED_EDGE('',*,*,#369,.T.);
#479=ORIENTED_EDGE('',*,*,#370,.T.);
#480=ORIENTED_EDGE('',*,*,#371,.T.);
#481=ORIENTED_EDGE('',*,*,#367,.F.);
#482=ORIENTED_EDGE('',*,*,#353,.F.);
#483=ORIENTED_EDGE('',*,*,#372,.F.);
#484=ORIENTED_EDGE('',*,*,#373,.T.);
#485=ORIENTED_EDGE('',*,*,#374,.F.);
#486=ORIENTED_EDGE('',*,*,#375,.F.);
#487=ORIENTED_EDGE('',*,*,#369,.F.);
#488=ORIENTED_EDGE('',*,*,#356,.F.);
#489=ORIENTED_EDGE('',*,*,#376,.F.);
#490=ORIENTED_EDGE('',*,*,#377,.F.);
#491=ORIENTED_EDGE('',*,*,#372,.T.);
#492=ORIENTED_EDGE('',*,*,#368,.F.);
#493=ORIENTED_EDGE('',*,*,#371,.F.);
#494=ORIENTED_EDGE('',*,*,#378,.T.);
#495=ORIENTED_EDGE('',*,*,#379,.T.);
#496=ORIENTED_EDGE('',*,*,#380,.T.);
#497=ORIENTED_EDGE('',*,*,#381,.F.);
#498=ORIENTED_EDGE('',*,*,#359,.F.);
#499=ORIENTED_EDGE('',*,*,#362,.F.);
#500=ORIENTED_EDGE('',*,*,#364,.F.);
#501=ORIENTED_EDGE('',*,*,#366,.F.);
#502=ORIENTED_EDGE('',*,*,#336,.F.);
#503=ORIENTED_EDGE('',*,*,#382,.T.);
#504=ORIENTED_EDGE('',*,*,#383,.T.);
#505=ORIENTED_EDGE('',*,*,#384,.T.);
#506=ORIENTED_EDGE('',*,*,#357,.F.);
#507=ORIENTED_EDGE('',*,*,#385,.F.);
#508=ORIENTED_EDGE('',*,*,#386,.F.);
#509=ORIENTED_EDGE('',*,*,#376,.T.);
#510=ORIENTED_EDGE('',*,*,#387,.F.);
#511=ORIENTED_EDGE('',*,*,#388,.T.);
#512=ORIENTED_EDGE('',*,*,#389,.F.);
#513=ORIENTED_EDGE('',*,*,#390,.F.);
#514=ORIENTED_EDGE('',*,*,#391,.F.);
#515=ORIENTED_EDGE('',*,*,#390,.T.);
#516=ORIENTED_EDGE('',*,*,#392,.F.);
#517=ORIENTED_EDGE('',*,*,#393,.F.);
#518=ORIENTED_EDGE('',*,*,#394,.F.);
#519=ORIENTED_EDGE('',*,*,#393,.T.);
#520=ORIENTED_EDGE('',*,*,#395,.F.);
#521=ORIENTED_EDGE('',*,*,#396,.F.);
#522=ORIENTED_EDGE('',*,*,#397,.F.);
#523=ORIENTED_EDGE('',*,*,#396,.T.);
#524=ORIENTED_EDGE('',*,*,#398,.F.);
#525=ORIENTED_EDGE('',*,*,#388,.F.);
#526=ORIENTED_EDGE('',*,*,#398,.T.);
#527=ORIENTED_EDGE('',*,*,#395,.T.);
#528=ORIENTED_EDGE('',*,*,#392,.T.);
#529=ORIENTED_EDGE('',*,*,#389,.T.);
#530=ORIENTED_EDGE('',*,*,#399,.F.);
#531=ORIENTED_EDGE('',*,*,#400,.F.);
#532=ORIENTED_EDGE('',*,*,#401,.F.);
#533=ORIENTED_EDGE('',*,*,#402,.F.);
#534=ORIENTED_EDGE('',*,*,#403,.T.);
#535=ORIENTED_EDGE('',*,*,#404,.F.);
#536=ORIENTED_EDGE('',*,*,#405,.F.);
#537=ORIENTED_EDGE('',*,*,#406,.F.);
#538=ORIENTED_EDGE('',*,*,#407,.F.);
#539=ORIENTED_EDGE('',*,*,#402,.T.);
#540=ORIENTED_EDGE('',*,*,#408,.T.);
#541=ORIENTED_EDGE('',*,*,#373,.F.);
#542=ORIENTED_EDGE('',*,*,#409,.F.);
#543=ORIENTED_EDGE('',*,*,#404,.T.);
#544=ORIENTED_EDGE('',*,*,#410,.F.);
#545=ORIENTED_EDGE('',*,*,#387,.T.);
#546=ORIENTED_EDGE('',*,*,#391,.T.);
#547=ORIENTED_EDGE('',*,*,#394,.T.);
#548=ORIENTED_EDGE('',*,*,#397,.T.);
#549=ORIENTED_EDGE('',*,*,#411,.F.);
#550=ORIENTED_EDGE('',*,*,#382,.F.);
#551=ORIENTED_EDGE('',*,*,#360,.F.);
#552=ORIENTED_EDGE('',*,*,#381,.T.);
#553=ORIENTED_EDGE('',*,*,#412,.T.);
#554=ORIENTED_EDGE('',*,*,#399,.T.);
#555=ORIENTED_EDGE('',*,*,#410,.T.);
#556=ORIENTED_EDGE('',*,*,#403,.F.);
#557=ORIENTED_EDGE('',*,*,#413,.T.);
#558=ORIENTED_EDGE('',*,*,#414,.F.);
#559=ORIENTED_EDGE('',*,*,#411,.T.);
#560=ORIENTED_EDGE('',*,*,#407,.T.);
#561=ORIENTED_EDGE('',*,*,#415,.F.);
#562=ORIENTED_EDGE('',*,*,#416,.F.);
#563=ORIENTED_EDGE('',*,*,#413,.F.);
#564=ORIENTED_EDGE('',*,*,#406,.T.);
#565=ORIENTED_EDGE('',*,*,#377,.T.);
#566=ORIENTED_EDGE('',*,*,#417,.F.);
#567=ORIENTED_EDGE('',*,*,#415,.T.);
#568=ORIENTED_EDGE('',*,*,#405,.T.);
#569=ORIENTED_EDGE('',*,*,#409,.T.);
#570=ORIENTED_EDGE('',*,*,#418,.T.);
#571=ORIENTED_EDGE('',*,*,#417,.T.);
#572=ORIENTED_EDGE('',*,*,#386,.T.);
#573=ORIENTED_EDGE('',*,*,#419,.T.);
#574=ORIENTED_EDGE('',*,*,#420,.T.);
#575=ORIENTED_EDGE('',*,*,#416,.T.);
#576=ORIENTED_EDGE('',*,*,#418,.F.);
#577=ORIENTED_EDGE('',*,*,#421,.T.);
#578=ORIENTED_EDGE('',*,*,#383,.F.);
#579=ORIENTED_EDGE('',*,*,#414,.T.);
#580=ORIENTED_EDGE('',*,*,#420,.F.);
#581=ORIENTED_EDGE('',*,*,#422,.T.);
#582=ORIENTED_EDGE('',*,*,#337,.F.);
#583=ORIENTED_EDGE('',*,*,#384,.F.);
#584=ORIENTED_EDGE('',*,*,#422,.F.);
#585=ORIENTED_EDGE('',*,*,#421,.F.);
#586=ORIENTED_EDGE('',*,*,#419,.F.);
#587=ORIENTED_EDGE('',*,*,#385,.T.);
#588=ORIENTED_EDGE('',*,*,#350,.F.);
#589=ORIENTED_EDGE('',*,*,#352,.F.);
#590=ORIENTED_EDGE('',*,*,#346,.F.);
#591=ORIENTED_EDGE('',*,*,#343,.F.);
#592=ORIENTED_EDGE('',*,*,#340,.F.);
#593=ORIENTED_EDGE('',*,*,#412,.F.);
#594=ORIENTED_EDGE('',*,*,#380,.F.);
#595=ORIENTED_EDGE('',*,*,#423,.F.);
#596=ORIENTED_EDGE('',*,*,#400,.T.);
#597=ORIENTED_EDGE('',*,*,#374,.T.);
#598=ORIENTED_EDGE('',*,*,#408,.F.);
#599=ORIENTED_EDGE('',*,*,#401,.T.);
#600=ORIENTED_EDGE('',*,*,#423,.T.);
#601=ORIENTED_EDGE('',*,*,#379,.F.);
#602=ORIENTED_EDGE('',*,*,#424,.F.);
#603=ORIENTED_EDGE('',*,*,#375,.T.);
#604=ORIENTED_EDGE('',*,*,#424,.T.);
#605=ORIENTED_EDGE('',*,*,#378,.F.);
#606=ORIENTED_EDGE('',*,*,#370,.F.);
#607=(
BOUNDED_SURFACE()
B_SPLINE_SURFACE(2,2,((#925,#926,#927),(#928,#929,#930),(#931,#932,#933)),
 .UNSPECIFIED.,.F.,.F.,.F.)
B_SPLINE_SURFACE_WITH_KNOTS((3,3),(3,3),(-9.44464178765271E-18,1.57079632679492),
(-1.5707963267949,1.11022302462516E-16),.UNSPECIFIED.)
GEOMETRIC_REPRESENTATION_ITEM()
RATIONAL_B_SPLINE_SURFACE(((1.,0.707106781186547,1.),(0.707106781186562,
0.50000000000001,0.707106781186562),(1.,0.707106781186547,1.)))
REPRESENTATION_ITEM('')
SURFACE()
);
#608=(
BOUNDED_SURFACE()
B_SPLINE_SURFACE(2,2,((#969,#970,#971),(#972,#973,#974),(#975,#976,#977)),
 .UNSPECIFIED.,.F.,.F.,.F.)
B_SPLINE_SURFACE_WITH_KNOTS((3,3),(3,3),(-1.57079632679492,0.),(-3.14159265358979,
-1.5707963267949),.UNSPECIFIED.)
GEOMETRIC_REPRESENTATION_ITEM()
RATIONAL_B_SPLINE_SURFACE(((1.,0.707106781186548,1.),(0.707106781186564,
0.500000000000012,0.707106781186564),(1.,0.707106781186548,1.)))
REPRESENTATION_ITEM('')
SURFACE()
);
#609=(
BOUNDED_SURFACE()
B_SPLINE_SURFACE(2,2,((#1118,#1119,#1120),(#1121,#1122,#1123),(#1124,#1125,
#1126)),.UNSPECIFIED.,.F.,.F.,.F.)
B_SPLINE_SURFACE_WITH_KNOTS((3,3),(3,3),(-1.57079632679492,1.11022302462516E-15),
(1.5707963267949,3.14159265358979),.UNSPECIFIED.)
GEOMETRIC_REPRESENTATION_ITEM()
RATIONAL_B_SPLINE_SURFACE(((1.,0.707106781186548,1.),(0.707106781186563,
0.500000000000011,0.707106781186563),(1.,0.707106781186548,1.)))
REPRESENTATION_ITEM('')
SURFACE()
);
#610=ADVANCED_FACE('',(#169),#607,.F.);
#611=ADVANCED_FACE('',(#170),#156,.T.);
#612=ADVANCED_FACE('',(#171),#36,.T.);
#613=ADVANCED_FACE('',(#172),#157,.T.);
#614=ADVANCED_FACE('',(#173),#158,.T.);
#615=ADVANCED_FACE('',(#174),#608,.F.);
#616=ADVANCED_FACE('',(#175),#159,.T.);
#617=ADVANCED_FACE('',(#176),#35,.T.);
#618=ADVANCED_FACE('',(#177),#160,.T.);
#619=ADVANCED_FACE('',(#178),#16,.F.);
#620=ADVANCED_FACE('',(#179),#161,.F.);
#621=ADVANCED_FACE('',(#180),#17,.F.);
#622=ADVANCED_FACE('',(#181),#162,.T.);
#623=ADVANCED_FACE('',(#182),#18,.T.);
#624=ADVANCED_FACE('',(#183),#19,.F.);
#625=ADVANCED_FACE('',(#184),#20,.T.);
#626=ADVANCED_FACE('',(#185),#21,.F.);
#627=ADVANCED_FACE('',(#186),#163,.T.);
#628=ADVANCED_FACE('',(#187),#164,.T.);
#629=ADVANCED_FACE('',(#188),#22,.T.);
#630=ADVANCED_FACE('',(#189),#23,.T.);
#631=ADVANCED_FACE('',(#190),#24,.T.);
#632=ADVANCED_FACE('',(#191),#25,.T.);
#633=ADVANCED_FACE('',(#192),#26,.T.);
#634=ADVANCED_FACE('',(#193),#27,.F.);
#635=ADVANCED_FACE('',(#194),#28,.T.);
#636=ADVANCED_FACE('',(#195,#15),#29,.T.);
#637=ADVANCED_FACE('',(#196),#30,.F.);
#638=ADVANCED_FACE('',(#197),#165,.T.);
#639=ADVANCED_FACE('',(#198),#31,.T.);
#640=ADVANCED_FACE('',(#199),#166,.T.);
#641=ADVANCED_FACE('',(#200),#37,.T.);
#642=ADVANCED_FACE('',(#201),#167,.T.);
#643=ADVANCED_FACE('',(#202),#609,.F.);
#644=ADVANCED_FACE('',(#203),#32,.T.);
#645=ADVANCED_FACE('',(#204),#33,.F.);
#646=ADVANCED_FACE('',(#205),#168,.F.);
#647=ADVANCED_FACE('',(#206),#34,.F.);
#648=CLOSED_SHELL('',(#610,#611,#612,#613,#614,#615,#616,#617,#618,#619,
#620,#621,#622,#623,#624,#625,#626,#627,#628,#629,#630,#631,#632,#633,#634,
#635,#636,#637,#638,#639,#640,#641,#642,#643,#644,#645,#646,#647));
#649=DERIVED_UNIT_ELEMENT(#651,1.);
#650=DERIVED_UNIT_ELEMENT(#1139,-3.);
#651=(
MASS_UNIT()
NAMED_UNIT(*)
SI_UNIT(.KILO.,.GRAM.)
);
#652=DERIVED_UNIT((#649,#650));
#653=MEASURE_REPRESENTATION_ITEM('density measure',
POSITIVE_RATIO_MEASURE(7850.),#652);
#654=PROPERTY_DEFINITION_REPRESENTATION(#659,#656);
#655=PROPERTY_DEFINITION_REPRESENTATION(#660,#657);
#656=REPRESENTATION('material name',(#658),#1136);
#657=REPRESENTATION('density',(#653),#1136);
#658=DESCRIPTIVE_REPRESENTATION_ITEM('Steel','Steel');
#659=PROPERTY_DEFINITION('material property','material name',#1146);
#660=PROPERTY_DEFINITION('material property','density of part',#1146);
#661=AXIS2_PLACEMENT_3D('',#924,#729,#730);
#662=AXIS2_PLACEMENT_3D('',#936,#731,#732);
#663=AXIS2_PLACEMENT_3D('',#938,#733,#734);
#664=AXIS2_PLACEMENT_3D('',#940,#735,#736);
#665=AXIS2_PLACEMENT_3D('',#941,#737,#738);
#666=AXIS2_PLACEMENT_3D('',#942,#739,#740);
#667=AXIS2_PLACEMENT_3D('',#945,#741,#742);
#668=AXIS2_PLACEMENT_3D('',#948,#745,#746);
#669=AXIS2_PLACEMENT_3D('',#951,#747,#748);
#670=AXIS2_PLACEMENT_3D('',#952,#749,#750);
#671=AXIS2_PLACEMENT_3D('',#953,#751,#752);
#672=AXIS2_PLACEMENT_3D('',#954,#753,#754);
#673=AXIS2_PLACEMENT_3D('',#957,#755,#756);
#674=AXIS2_PLACEMENT_3D('',#960,#759,#760);
#675=AXIS2_PLACEMENT_3D('',#963,#761,#762);
#676=AXIS2_PLACEMENT_3D('',#967,#764,#765);
#677=AXIS2_PLACEMENT_3D('',#978,#767,#768);
#678=AXIS2_PLACEMENT_3D('',#979,#769,#770);
#679=AXIS2_PLACEMENT_3D('',#980,#771,#772);
#680=AXIS2_PLACEMENT_3D('',#983,#773,#774);
#681=AXIS2_PLACEMENT_3D('',#986,#776,#777);
#682=AXIS2_PLACEMENT_3D('',#988,#779,#780);
#683=AXIS2_PLACEMENT_3D('',#989,#781,#782);
#684=AXIS2_PLACEMENT_3D('',#990,#783,#784);
#685=AXIS2_PLACEMENT_3D('',#994,#786,#787);
#686=AXIS2_PLACEMENT_3D('',#996,#789,#790);
#687=AXIS2_PLACEMENT_3D('',#1000,#793,#794);
#688=AXIS2_PLACEMENT_3D('',#1003,#796,#797);
#689=AXIS2_PLACEMENT_3D('',#1004,#798,#799);
#690=AXIS2_PLACEMENT_3D('',#1008,#802,#803);
#691=AXIS2_PLACEMENT_3D('',#1011,#805,#806);
#692=AXIS2_PLACEMENT_3D('',#1012,#807,#808);
#693=AXIS2_PLACEMENT_3D('',#1018,#812,#813);
#694=AXIS2_PLACEMENT_3D('',#1024,#816,#817);
#695=AXIS2_PLACEMENT_3D('',#1026,#819,#820);
#696=AXIS2_PLACEMENT_3D('',#1030,#823,#824);
#697=AXIS2_PLACEMENT_3D('',#1034,#826,#827);
#698=AXIS2_PLACEMENT_3D('',#1038,#830,#831);
#699=AXIS2_PLACEMENT_3D('',#1042,#833,#834);
#700=AXIS2_PLACEMENT_3D('',#1044,#836,#837);
#701=AXIS2_PLACEMENT_3D('',#1047,#839,#840);
#702=AXIS2_PLACEMENT_3D('',#1048,#841,#842);
#703=AXIS2_PLACEMENT_3D('',#1057,#847,#848);
#704=AXIS2_PLACEMENT_3D('',#1063,#852,#853);
#705=AXIS2_PLACEMENT_3D('',#1069,#857,#858);
#706=AXIS2_PLACEMENT_3D('',#1072,#861,#862);
#707=AXIS2_PLACEMENT_3D('',#1073,#863,#864);
#708=AXIS2_PLACEMENT_3D('',#1080,#867,#868);
#709=AXIS2_PLACEMENT_3D('',#1082,#870,#871);
#710=AXIS2_PLACEMENT_3D('',#1089,#874,#875);
#711=AXIS2_PLACEMENT_3D('',#1092,#877,#878);
#712=AXIS2_PLACEMENT_3D('',#1093,#879,#880);
#713=AXIS2_PLACEMENT_3D('',#1097,#884,#885);
#714=AXIS2_PLACEMENT_3D('',#1100,#888,#889);
#715=AXIS2_PLACEMENT_3D('',#1103,#891,#892);
#716=AXIS2_PLACEMENT_3D('',#1104,#893,#894);
#717=AXIS2_PLACEMENT_3D('',#1108,#897,#898);
#718=AXIS2_PLACEMENT_3D('',#1109,#899,#900);
#719=AXIS2_PLACEMENT_3D('',#1110,#901,#902);
#720=AXIS2_PLACEMENT_3D('',#1112,#903,#904);
#721=AXIS2_PLACEMENT_3D('',#1113,#905,#906);
#722=AXIS2_PLACEMENT_3D('',#1114,#907,#908);
#723=AXIS2_PLACEMENT_3D('',#1116,#909,#910);
#724=AXIS2_PLACEMENT_3D('',#1127,#912,#913);
#725=AXIS2_PLACEMENT_3D('',#1128,#914,#915);
#726=AXIS2_PLACEMENT_3D('',#1129,#916,#917);
#727=AXIS2_PLACEMENT_3D('',#1131,#919,#920);
#728=AXIS2_PLACEMENT_3D('',#1133,#922,#923);
#729=DIRECTION('axis',(0.,0.,1.));
#730=DIRECTION('refdir',(1.,0.,0.));
#731=DIRECTION('center_axis',(1.,0.,0.));
#732=DIRECTION('ref_axis',(0.,0.,1.));
#733=DIRECTION('center_axis',(0.,-1.11022302462516E-16,1.));
#734=DIRECTION('ref_axis',(0.258819045102523,-0.965925826289068,-1.38777878078148E-16));
#735=DIRECTION('center_axis',(0.,-1.,0.));
#736=DIRECTION('ref_axis',(1.,0.,2.22044604925036E-15));
#737=DIRECTION('center_axis',(0.,1.11022302462516E-16,-1.));
#738=DIRECTION('ref_axis',(0.258819045102523,-0.965925826289068,-1.0723930924262E-16));
#739=DIRECTION('center_axis',(1.,0.,0.));
#740=DIRECTION('ref_axis',(0.,-0.707106781186578,0.707106781186517));
#741=DIRECTION('center_axis',(1.,0.,0.));
#742=DIRECTION('ref_axis',(0.,0.,1.));
#743=DIRECTION('',(1.,0.,0.));
#744=DIRECTION('',(-1.,0.,0.));
#745=DIRECTION('center_axis',(0.,1.11022302462516E-16,-1.));
#746=DIRECTION('ref_axis',(-1.,0.,0.));
#747=DIRECTION('center_axis',(0.,1.,0.));
#748=DIRECTION('ref_axis',(0.,0.,1.));
#749=DIRECTION('center_axis',(0.,1.11022302462516E-16,-1.));
#750=DIRECTION('ref_axis',(-0.707106781186548,0.707106781186548,8.67361737988405E-17));
#751=DIRECTION('center_axis',(0.,-1.11022302462516E-16,1.));
#752=DIRECTION('ref_axis',(-0.707106781186548,0.707106781186548,7.85046229341888E-17));
#753=DIRECTION('center_axis',(0.,1.,1.11022302462516E-16));
#754=DIRECTION('ref_axis',(0.70710678118654,0.,0.707106781186555));
#755=DIRECTION('center_axis',(0.,1.,0.));
#756=DIRECTION('ref_axis',(0.,0.,1.));
#757=DIRECTION('',(0.,1.,1.11022302462516E-16));
#758=DIRECTION('',(0.,-1.,-1.11022302462516E-16));
#759=DIRECTION('center_axis',(1.,0.,0.));
#760=DIRECTION('ref_axis',(0.,-0.707106781186527,0.707106781186568));
#761=DIRECTION('center_axis',(1.,0.,0.));
#762=DIRECTION('ref_axis',(0.,0.,1.));
#763=DIRECTION('',(1.,0.,0.));
#764=DIRECTION('center_axis',(-1.,0.,0.));
#765=DIRECTION('ref_axis',(0.,-1.,0.));
#766=DIRECTION('',(-1.,0.,0.));
#767=DIRECTION('center_axis',(0.,-1.11022302462516E-16,1.));
#768=DIRECTION('ref_axis',(0.707106781186548,-0.707106781186548,-6.93889390390724E-17));
#769=DIRECTION('center_axis',(0.,1.11022302462516E-16,-1.));
#770=DIRECTION('ref_axis',(0.707106781186548,-0.707106781186548,-7.85046229341888E-17));
#771=DIRECTION('center_axis',(0.,1.11022302462516E-16,-1.));
#772=DIRECTION('ref_axis',(-0.70710678118656,-0.707106781186535,0.));
#773=DIRECTION('center_axis',(2.47487215906024E-16,0.,1.));
#774=DIRECTION('ref_axis',(-0.70710678118656,-0.707106781186535,0.));
#775=DIRECTION('',(0.,-1.11022302462516E-16,1.));
#776=DIRECTION('center_axis',(1.11022302462516E-15,0.,-1.));
#777=DIRECTION('ref_axis',(0.,-1.,0.));
#778=DIRECTION('',(0.,1.11022302462516E-16,-1.));
#779=DIRECTION('center_axis',(-0.816496580927732,0.408248290463859,-0.408248290463856));
#780=DIRECTION('ref_axis',(-0.577350269189616,-0.577350269189644,0.577350269189617));
#781=DIRECTION('center_axis',(0.,-1.,-1.11022302462516E-16));
#782=DIRECTION('ref_axis',(-0.707106781186543,0.,0.707106781186552));
#783=DIRECTION('center_axis',(0.,0.,1.));
#784=DIRECTION('ref_axis',(0.707106781186541,-0.707106781186554,0.));
#785=DIRECTION('',(0.,0.,-1.));
#786=DIRECTION('center_axis',(0.,0.,1.));
#787=DIRECTION('ref_axis',(0.707106781186541,-0.707106781186554,0.));
#788=DIRECTION('',(0.,0.,1.));
#789=DIRECTION('center_axis',(0.,1.,0.));
#790=DIRECTION('ref_axis',(0.,0.,1.));
#791=DIRECTION('',(0.,0.,1.));
#792=DIRECTION('',(1.,0.,0.));
#793=DIRECTION('center_axis',(0.,0.,1.));
#794=DIRECTION('ref_axis',(-0.707106781186549,0.707106781186546,0.));
#795=DIRECTION('',(0.,0.,-1.));
#796=DIRECTION('center_axis',(0.,0.,-1.));
#797=DIRECTION('ref_axis',(-0.707106781186549,0.707106781186546,0.));
#798=DIRECTION('center_axis',(-1.,0.,0.));
#799=DIRECTION('ref_axis',(0.,0.,1.));
#800=DIRECTION('',(0.,-1.11022302462516E-16,1.));
#801=DIRECTION('',(0.,1.,0.));
#802=DIRECTION('center_axis',(0.,-1.11022302462516E-16,1.));
#803=DIRECTION('ref_axis',(0.707106781186541,-0.707106781186554,0.));
#804=DIRECTION('',(0.,1.11022302462516E-16,-1.));
#805=DIRECTION('center_axis',(0.,0.,1.));
#806=DIRECTION('ref_axis',(0.707106781186541,-0.707106781186554,0.));
#807=DIRECTION('center_axis',(0.,-1.,-1.11022302462516E-16));
#808=DIRECTION('ref_axis',(-1.,0.,0.));
#809=DIRECTION('',(-1.,-2.74766005399246E-32,2.47487215906024E-16));
#810=DIRECTION('',(0.,1.11022302462516E-16,-1.));
#811=DIRECTION('',(-1.,0.,0.));
#812=DIRECTION('center_axis',(2.47487215906024E-16,0.,1.));
#813=DIRECTION('ref_axis',(1.,0.,-2.47487215906024E-16));
#814=DIRECTION('',(0.,-1.,0.));
#815=DIRECTION('',(1.,0.,-2.47487215906024E-16));
#816=DIRECTION('center_axis',(-2.47487215906024E-16,0.,-1.));
#817=DIRECTION('ref_axis',(-0.999999999999957,-2.91847374384388E-7,0.));
#818=DIRECTION('',(0.,1.,0.));
#819=DIRECTION('center_axis',(-1.,0.,0.));
#820=DIRECTION('ref_axis',(0.,-1.,-1.11022302462516E-16));
#821=DIRECTION('',(0.,-1.,-1.11022302462516E-16));
#822=DIRECTION('',(0.,-1.11022302462516E-16,1.));
#823=DIRECTION('center_axis',(0.,0.,1.));
#824=DIRECTION('ref_axis',(1.,0.,0.));
#825=DIRECTION('',(0.,1.,0.));
#826=DIRECTION('center_axis',(0.,0.,-1.));
#827=DIRECTION('ref_axis',(-0.999999999999957,-2.91847374384388E-7,0.));
#828=DIRECTION('',(0.999999999037088,-4.38842104840539E-5,0.));
#829=DIRECTION('',(0.,1.,0.));
#830=DIRECTION('center_axis',(0.,1.,1.11022302462516E-16));
#831=DIRECTION('ref_axis',(0.70710678118654,0.,0.707106781186555));
#832=DIRECTION('',(0.,1.,1.11022302462516E-16));
#833=DIRECTION('center_axis',(0.,-1.,0.));
#834=DIRECTION('ref_axis',(1.,0.,-1.11022302462516E-15));
#835=DIRECTION('',(0.,-1.,-1.11022302462516E-16));
#836=DIRECTION('center_axis',(0.,-1.,-1.11022302462516E-16));
#837=DIRECTION('ref_axis',(-0.70710678118654,0.,0.707106781186555));
#838=DIRECTION('',(0.,-1.,-1.11022302462516E-16));
#839=DIRECTION('center_axis',(0.,1.,0.));
#840=DIRECTION('ref_axis',(-1.,0.,0.));
#841=DIRECTION('center_axis',(0.,0.,-1.));
#842=DIRECTION('ref_axis',(1.,0.,0.));
#843=DIRECTION('',(-1.,0.,0.));
#844=DIRECTION('',(0.,1.,0.));
#845=DIRECTION('',(1.,0.,0.));
#846=DIRECTION('',(0.,-1.,0.));
#847=DIRECTION('center_axis',(-1.,0.,0.));
#848=DIRECTION('ref_axis',(0.,0.,-1.));
#849=DIRECTION('',(0.,0.,1.));
#850=DIRECTION('',(0.,0.,1.));
#851=DIRECTION('',(0.,1.,0.));
#852=DIRECTION('center_axis',(0.,0.,1.));
#853=DIRECTION('ref_axis',(-1.,0.,0.));
#854=DIRECTION('',(1.,0.,0.));
#855=DIRECTION('',(-1.,0.,0.));
#856=DIRECTION('',(0.,-1.,0.));
#857=DIRECTION('center_axis',(1.,0.,0.));
#858=DIRECTION('ref_axis',(0.,0.,1.));
#859=DIRECTION('',(0.,0.,-1.));
#860=DIRECTION('',(0.,0.,-1.));
#861=DIRECTION('center_axis',(0.,-1.,0.));
#862=DIRECTION('ref_axis',(0.,0.,-1.));
#863=DIRECTION('center_axis',(0.,1.11022302462516E-16,-1.));
#864=DIRECTION('ref_axis',(-1.,0.,0.));
#865=DIRECTION('',(0.,-1.,-1.11022302462516E-16));
#866=DIRECTION('',(0.999999999037088,-4.38842104840539E-5,0.));
#867=DIRECTION('center_axis',(0.,0.,-1.));
#868=DIRECTION('ref_axis',(-0.999999999999957,-2.91847374384388E-7,0.));
#869=DIRECTION('',(-1.,0.,0.));
#870=DIRECTION('center_axis',(0.,1.11022302462516E-16,-1.));
#871=DIRECTION('ref_axis',(-1.,0.,0.));
#872=DIRECTION('',(0.,-1.,-1.11022302462516E-16));
#873=DIRECTION('',(1.,0.,0.));
#874=DIRECTION('center_axis',(0.,-1.11022302462516E-16,1.));
#875=DIRECTION('ref_axis',(-0.707106781186547,0.707106781186547,0.));
#876=DIRECTION('',(-1.,0.,0.));
#877=DIRECTION('center_axis',(0.,-1.11022302462516E-16,1.));
#878=DIRECTION('ref_axis',(0.707106781186541,0.707106781186554,0.));
#879=DIRECTION('center_axis',(0.,-1.,0.));
#880=DIRECTION('ref_axis',(-1.,0.,0.));
#881=DIRECTION('',(0.,0.,1.));
#882=DIRECTION('',(0.,-1.11022302462516E-16,1.));
#883=DIRECTION('',(0.,0.,-1.));
#884=DIRECTION('center_axis',(-1.,0.,0.));
#885=DIRECTION('ref_axis',(0.,-1.,0.));
#886=DIRECTION('',(0.,1.11022302462516E-16,-1.));
#887=DIRECTION('',(0.,0.,-1.));
#888=DIRECTION('center_axis',(0.,-1.11022302462516E-16,1.));
#889=DIRECTION('ref_axis',(0.707106781186541,0.707106781186554,0.));
#890=DIRECTION('',(0.,-1.11022302462516E-16,1.));
#891=DIRECTION('center_axis',(0.,-1.11022302462516E-16,1.));
#892=DIRECTION('ref_axis',(0.707106781186548,0.707106781186548,6.93889390390724E-17));
#893=DIRECTION('center_axis',(0.,1.,1.11022302462516E-16));
#894=DIRECTION('ref_axis',(-1.,0.,0.));
#895=DIRECTION('',(0.,1.11022302462516E-16,-1.));
#896=DIRECTION('',(-1.,0.,0.));
#897=DIRECTION('center_axis',(0.,-1.11022302462516E-16,1.));
#898=DIRECTION('ref_axis',(-0.707106781186547,0.707106781186547,0.));
#899=DIRECTION('center_axis',(0.,-1.11022302462516E-16,1.));
#900=DIRECTION('ref_axis',(-0.586408603313457,0.810015401063437,9.02056207507939E-17));
#901=DIRECTION('center_axis',(0.,-1.11022302462516E-16,1.));
#902=DIRECTION('ref_axis',(1.,0.,0.));
#903=DIRECTION('center_axis',(-1.,0.,0.));
#904=DIRECTION('ref_axis',(0.,0.,1.));
#905=DIRECTION('center_axis',(0.,1.11022302462516E-16,-1.));
#906=DIRECTION('ref_axis',(-0.586408603313457,0.810015401063437,8.99297748561608E-17));
#907=DIRECTION('center_axis',(-1.,0.,0.));
#908=DIRECTION('ref_axis',(0.,0.707106781186528,0.707106781186567));
#909=DIRECTION('center_axis',(-1.,0.,0.));
#910=DIRECTION('ref_axis',(0.,0.,1.));
#911=DIRECTION('',(1.,0.,0.));
#912=DIRECTION('center_axis',(0.,1.11022302462516E-16,-1.));
#913=DIRECTION('ref_axis',(0.707106781186548,0.707106781186548,7.85046229341888E-17));
#914=DIRECTION('center_axis',(0.,-1.11022302462516E-16,1.));
#915=DIRECTION('ref_axis',(1.,0.,0.));
#916=DIRECTION('center_axis',(4.38842104840539E-5,0.999999999037088,0.));
#917=DIRECTION('ref_axis',(0.999999999037088,-4.38842104840539E-5,0.));
#918=DIRECTION('',(0.,0.,1.));
#919=DIRECTION('center_axis',(0.,0.,-1.));
#920=DIRECTION('ref_axis',(-0.999999999999957,-2.91847374384388E-7,0.));
#921=DIRECTION('',(0.,0.,1.));
#922=DIRECTION('center_axis',(-1.,0.,0.));
#923=DIRECTION('ref_axis',(0.,1.,0.));
#924=CARTESIAN_POINT('',(0.,0.,0.));
#925=CARTESIAN_POINT('Ctrl Pts',(-45.,217.002636550839,3.5));
#926=CARTESIAN_POINT('Ctrl Pts',(-44.,217.002636550839,3.5));
#927=CARTESIAN_POINT('Ctrl Pts',(-44.,218.002636550839,3.5));
#928=CARTESIAN_POINT('Ctrl Pts',(-45.,217.002636550839,4.00000000000001));
#929=CARTESIAN_POINT('Ctrl Pts',(-44.,217.002636550839,4.00000000000001));
#930=CARTESIAN_POINT('Ctrl Pts',(-44.,218.002636550839,4.00000000000001));
#931=CARTESIAN_POINT('Ctrl Pts',(-45.,217.502636550839,4.));
#932=CARTESIAN_POINT('Ctrl Pts',(-44.5,217.502636550839,4.));
#933=CARTESIAN_POINT('Ctrl Pts',(-44.5,218.002636550839,4.));
#934=CARTESIAN_POINT('',(-45.,217.502636550839,3.99999999999999));
#935=CARTESIAN_POINT('',(-45.,217.002636550839,3.5));
#936=CARTESIAN_POINT('Origin',(-45.,217.502636550839,3.5));
#937=CARTESIAN_POINT('',(-44.,218.002636550839,3.5));
#938=CARTESIAN_POINT('Origin',(-45.,218.002636550839,3.5));
#939=CARTESIAN_POINT('',(-44.5,218.002636550839,3.99999999999999));
#940=CARTESIAN_POINT('Origin',(-44.5,218.002636550839,3.5));
#941=CARTESIAN_POINT('Origin',(-45.,218.002636550839,3.99999999999999));
#942=CARTESIAN_POINT('Origin',(-46.749895758276,217.502636550839,3.5));
#943=CARTESIAN_POINT('',(-47.999895758276,217.502636550839,3.99999999999999));
#944=CARTESIAN_POINT('',(-47.999895758276,217.002636550839,3.5));
#945=CARTESIAN_POINT('Origin',(-47.999895758276,217.502636550839,3.5));
#946=CARTESIAN_POINT('',(-46.749895758276,217.002636550839,3.5));
#947=CARTESIAN_POINT('',(-46.749895758276,217.502636550839,3.99999999999999));
#948=CARTESIAN_POINT('Origin',(-47.999895758276,213.002636550839,3.5));
#949=CARTESIAN_POINT('',(-52.499895758276,213.002636550839,3.99999999999999));
#950=CARTESIAN_POINT('',(-51.999895758276,213.002636550839,3.5));
#951=CARTESIAN_POINT('Origin',(-52.499895758276,213.002636550839,3.5));
#952=CARTESIAN_POINT('Origin',(-47.999895758276,213.002636550839,3.5));
#953=CARTESIAN_POINT('Origin',(-47.999895758276,213.002636550839,3.99999999999999));
#954=CARTESIAN_POINT('Origin',(-52.499895758276,113.752084853581,3.49999999999999));
#955=CARTESIAN_POINT('',(-52.499895758276,209.002533156323,3.99999999999999));
#956=CARTESIAN_POINT('',(-51.999895758276,209.002533156323,3.5));
#957=CARTESIAN_POINT('Origin',(-52.499895758276,209.002533156323,3.5));
#958=CARTESIAN_POINT('',(-51.999895758276,113.752084853581,3.49999999999999));
#959=CARTESIAN_POINT('',(-52.499895758276,113.752084853581,3.99999999999999));
#960=CARTESIAN_POINT('Origin',(-50.999895758276,208.502533156322,3.5));
#961=CARTESIAN_POINT('',(-57.499895758276,208.502533156322,3.99999999999999));
#962=CARTESIAN_POINT('',(-57.499895758276,208.002533156322,3.5));
#963=CARTESIAN_POINT('Origin',(-57.499895758276,208.502533156322,3.5));
#964=CARTESIAN_POINT('',(-52.999895758276,208.002533156322,3.5));
#965=CARTESIAN_POINT('',(-50.999895758276,208.002533156322,3.5));
#966=CARTESIAN_POINT('',(-52.999895758276,208.502533156322,3.99999999999999));
#967=CARTESIAN_POINT('Origin',(-52.999895758276,208.502533156322,3.5));
#968=CARTESIAN_POINT('',(-50.999895758276,208.502533156322,3.99999999999999));
#969=CARTESIAN_POINT('Ctrl Pts',(-52.499895758276,209.002533156323,4.));
#970=CARTESIAN_POINT('Ctrl Pts',(-52.499895758276,208.502533156323,4.));
#971=CARTESIAN_POINT('Ctrl Pts',(-52.999895758276,208.502533156322,4.));
#972=CARTESIAN_POINT('Ctrl Pts',(-51.999895758276,209.002533156323,4.00000000000001));
#973=CARTESIAN_POINT('Ctrl Pts',(-51.999895758276,208.002533156323,4.00000000000001));
#974=CARTESIAN_POINT('Ctrl Pts',(-52.999895758276,208.002533156323,4.00000000000001));
#975=CARTESIAN_POINT('Ctrl Pts',(-51.999895758276,209.002533156323,3.5));
#976=CARTESIAN_POINT('Ctrl Pts',(-51.999895758276,208.002533156323,3.5));
#977=CARTESIAN_POINT('Ctrl Pts',(-52.999895758276,208.002533156323,3.5));
#978=CARTESIAN_POINT('Origin',(-52.999895758276,209.002533156323,3.5));
#979=CARTESIAN_POINT('Origin',(-52.999895758276,209.002533156323,3.99999999999999));
#980=CARTESIAN_POINT('Origin',(-57.499895758276,208.502533156322,-3.00000000000001));
#981=CARTESIAN_POINT('',(-57.999895758276,208.502533156322,0.499999999999998));
#982=CARTESIAN_POINT('',(-57.499895758276,208.002533156322,0.499999999999998));
#983=CARTESIAN_POINT('Origin',(-57.499895758276,208.502533156322,0.499999999999998));
#984=CARTESIAN_POINT('',(-57.499895758276,208.002533156322,-3.00000000000001));
#985=CARTESIAN_POINT('',(-57.999895758276,208.502533156322,3.5));
#986=CARTESIAN_POINT('Origin',(-57.499895758276,208.502533156322,3.5));
#987=CARTESIAN_POINT('',(-57.999895758276,208.502533156322,-3.00000000000001));
#988=CARTESIAN_POINT('Origin',(-57.499895758276,208.502533156322,3.5));
#989=CARTESIAN_POINT('Origin',(-57.499895758276,208.502533156322,3.5));
#990=CARTESIAN_POINT('Origin',(-45.,218.002636550839,-1.65875000000002));
#991=CARTESIAN_POINT('',(-45.,217.002636550839,0.864999999999982));
#992=CARTESIAN_POINT('',(-45.,217.002636550839,-1.65875000000002));
#993=CARTESIAN_POINT('',(-44.,218.002636550839,0.864999999999982));
#994=CARTESIAN_POINT('Origin',(-45.,218.002636550839,0.864999999999982));
#995=CARTESIAN_POINT('',(-44.,218.002636550839,-1.65875000000002));
#996=CARTESIAN_POINT('Origin',(-45.999895758276,217.002636550839,2.68249999999997));
#997=CARTESIAN_POINT('',(-47.999895758276,217.002636550839,0.864999999999982));
#998=CARTESIAN_POINT('',(-47.999895758276,217.002636550839,2.02374999999998));
#999=CARTESIAN_POINT('',(-57.999947879138,217.002636550839,0.864999999999982));
#1000=CARTESIAN_POINT('Origin',(-47.999895758276,213.002636550839,2.02374999999998));
#1001=CARTESIAN_POINT('',(-51.999895758276,213.002636550839,0.864999999999982));
#1002=CARTESIAN_POINT('',(-51.999895758276,213.002636550839,2.02374999999998));
#1003=CARTESIAN_POINT('Origin',(-47.999895758276,213.002636550839,0.864999999999982));
#1004=CARTESIAN_POINT('Origin',(-51.999895758276,15.001636550839,1.36499999999998));
#1005=CARTESIAN_POINT('',(-51.999895758276,209.002533156323,0.864999999999982));
#1006=CARTESIAN_POINT('',(-51.999895758276,209.002533156323,0.682499999999999));
#1007=CARTESIAN_POINT('',(-51.999895758276,125.000818275419,0.864999999999982));
#1008=CARTESIAN_POINT('Origin',(-52.999895758276,209.002533156323,0.682499999999999));
#1009=CARTESIAN_POINT('',(-52.999895758276,208.002533156322,0.864999999999982));
#1010=CARTESIAN_POINT('',(-52.999895758276,208.002533156322,0.682499999999999));
#1011=CARTESIAN_POINT('Origin',(-52.999895758276,209.002533156323,0.864999999999982));
#1012=CARTESIAN_POINT('Origin',(-54.499895758276,208.002533156322,-8.88178419700125E-15));
#1013=CARTESIAN_POINT('',(-55.,208.002533156322,0.499999999999998));
#1014=CARTESIAN_POINT('',(-63.2498994533283,208.002533156322,0.499999999999998));
#1015=CARTESIAN_POINT('',(-55.,208.002533156322,0.864999999999982));
#1016=CARTESIAN_POINT('',(-55.,208.002533156322,0.));
#1017=CARTESIAN_POINT('',(-62.249947879138,208.002533156322,0.864999999999982));
#1018=CARTESIAN_POINT('Origin',(-71.9999031483805,223.002533156322,0.499999999999998));
#1019=CARTESIAN_POINT('',(-57.999895758276,213.002533156322,0.499999999999998));
#1020=CARTESIAN_POINT('',(-57.999895758276,223.002533156322,0.499999999999998));
#1021=CARTESIAN_POINT('',(-54.9834240342798,213.002533156322,0.499999999999998));
#1022=CARTESIAN_POINT('',(-57.9999515741902,213.002533156322,0.499999999999998));
#1023=CARTESIAN_POINT('',(-55.,212.504169,0.499999999999998));
#1024=CARTESIAN_POINT('Origin',(-47.500002188855,212.50417118886,0.499999999999998));
#1025=CARTESIAN_POINT('',(-55.,115.251266578161,0.499999999999998));
#1026=CARTESIAN_POINT('Origin',(-57.999895758276,223.002533156322,-6.));
#1027=CARTESIAN_POINT('',(-57.999895758276,213.002533156322,3.5));
#1028=CARTESIAN_POINT('',(-57.999895758276,217.752533156322,3.5));
#1029=CARTESIAN_POINT('',(-57.999895758276,213.002533156322,-6.));
#1030=CARTESIAN_POINT('Origin',(-70.,235.,0.864999999999982));
#1031=CARTESIAN_POINT('',(-55.,212.504169,0.864999999999982));
#1032=CARTESIAN_POINT('',(-55.,7.5,0.864999999999982));
#1033=CARTESIAN_POINT('',(-47.5,220.004169,0.864999999999982));
#1034=CARTESIAN_POINT('Origin',(-47.500002188855,212.50417118886,0.864999999999982));
#1035=CARTESIAN_POINT('',(-44.,220.004015405263,0.864999999999982));
#1036=CARTESIAN_POINT('',(-47.5,220.004169,0.864999999999982));
#1037=CARTESIAN_POINT('',(-44.,229.002249065793,0.864999999999982));
#1038=CARTESIAN_POINT('Origin',(-44.5,217.753515643954,3.5));
#1039=CARTESIAN_POINT('',(-44.,222.002533156322,3.5));
#1040=CARTESIAN_POINT('',(-44.,217.753515643954,3.5));
#1041=CARTESIAN_POINT('',(-44.5,222.002533156322,3.99999999999999));
#1042=CARTESIAN_POINT('Origin',(-44.5,222.002533156322,3.5));
#1043=CARTESIAN_POINT('',(-44.5,217.753515643954,3.99999999999999));
#1044=CARTESIAN_POINT('Origin',(-57.499895758276,217.752533156322,3.5));
#1045=CARTESIAN_POINT('',(-57.499895758276,213.002533156322,3.99999999999999));
#1046=CARTESIAN_POINT('',(-57.499895758276,217.752533156322,3.99999999999999));
#1047=CARTESIAN_POINT('Origin',(-57.499895758276,213.002533156322,3.5));
#1048=CARTESIAN_POINT('Origin',(-55.999947879138,213.002533156322,-4.));
#1049=CARTESIAN_POINT('',(-46.199947879138,213.002533156322,-4.));
#1050=CARTESIAN_POINT('',(-55.799947879138,213.002533156322,-4.));
#1051=CARTESIAN_POINT('',(-49.999973939569,213.002533156322,-4.));
#1052=CARTESIAN_POINT('',(-46.199947879138,208.302533156323,-4.));
#1053=CARTESIAN_POINT('',(-46.199947879138,213.002533156322,-4.));
#1054=CARTESIAN_POINT('',(-55.799947879138,208.302533156323,-4.));
#1055=CARTESIAN_POINT('',(-55.999947879138,208.302533156323,-4.));
#1056=CARTESIAN_POINT('',(-55.799947879138,213.002533156322,-4.));
#1057=CARTESIAN_POINT('Origin',(-55.799947879138,213.002533156322,-2.));
#1058=CARTESIAN_POINT('',(-55.799947879138,213.002533156322,-2.));
#1059=CARTESIAN_POINT('',(-55.799947879138,213.002533156322,-4.00000000000001));
#1060=CARTESIAN_POINT('',(-55.799947879138,208.302533156323,-2.));
#1061=CARTESIAN_POINT('',(-55.799947879138,208.302533156323,-2.50000000000001));
#1062=CARTESIAN_POINT('',(-55.799947879138,213.002533156322,-2.));
#1063=CARTESIAN_POINT('Origin',(-45.999947879138,213.002533156322,-2.));
#1064=CARTESIAN_POINT('',(-46.199947879138,213.002533156322,-2.));
#1065=CARTESIAN_POINT('',(-44.999973939569,213.002533156322,-2.));
#1066=CARTESIAN_POINT('',(-46.199947879138,208.302533156323,-2.));
#1067=CARTESIAN_POINT('',(-45.999947879138,208.302533156323,-2.));
#1068=CARTESIAN_POINT('',(-46.199947879138,213.002533156322,-2.));
#1069=CARTESIAN_POINT('Origin',(-46.199947879138,213.002533156322,-4.));
#1070=CARTESIAN_POINT('',(-46.199947879138,213.002533156322,-5.00000000000001));
#1071=CARTESIAN_POINT('',(-46.199947879138,208.302533156323,-3.50000000000001));
#1072=CARTESIAN_POINT('Origin',(-50.999947879138,208.302533156323,-3.00000000000001));
#1073=CARTESIAN_POINT('Origin',(-47.499895758276,7.50163655083897,-2.66453525910038E-14));
#1074=CARTESIAN_POINT('',(-44.,220.004015405263,-1.77635683940025E-14));
#1075=CARTESIAN_POINT('',(-44.,213.002533156322,0.));
#1076=CARTESIAN_POINT('',(-44.,115.252084853581,-1.77635683940025E-14));
#1077=CARTESIAN_POINT('',(-47.5,220.004169,-1.77635683940025E-14));
#1078=CARTESIAN_POINT('',(-47.5,220.004169,-1.77635683940025E-14));
#1079=CARTESIAN_POINT('',(-54.9834240342798,213.002533156322,-1.77635683940025E-14));
#1080=CARTESIAN_POINT('Origin',(-47.500002188855,212.50417118886,-1.77635683940025E-14));
#1081=CARTESIAN_POINT('',(-45.749947879138,213.002533156322,0.));
#1082=CARTESIAN_POINT('Origin',(-47.499895758276,7.50163655083897,-6.00000000000003));
#1083=CARTESIAN_POINT('',(-44.,222.002533156322,-6.00000000000001));
#1084=CARTESIAN_POINT('',(-44.,213.002533156322,-6.00000000000001));
#1085=CARTESIAN_POINT('',(-44.,115.253067341212,-6.00000000000001));
#1086=CARTESIAN_POINT('',(-57.999895758276,213.002533156322,-6.00000000000001));
#1087=CARTESIAN_POINT('',(-45.749947879138,213.002533156322,-6.00000000000001));
#1088=CARTESIAN_POINT('',(-47.999895758276,223.002533156322,-6.));
#1089=CARTESIAN_POINT('Origin',(-47.999895758276,213.002533156322,-6.00000000000001));
#1090=CARTESIAN_POINT('',(-45.,223.002533156322,-6.));
#1091=CARTESIAN_POINT('',(58.0000968516195,223.002533156322,-6.));
#1092=CARTESIAN_POINT('Origin',(-45.,222.002533156322,-6.00000000000001));
#1093=CARTESIAN_POINT('Origin',(-44.,213.002533156322,-6.00000000000001));
#1094=CARTESIAN_POINT('',(-54.9834240342798,213.002533156322,-1.77635683940025E-14));
#1095=CARTESIAN_POINT('',(-57.999895758276,213.002533156322,-6.));
#1096=CARTESIAN_POINT('',(-44.,213.002533156322,-6.00000000000001));
#1097=CARTESIAN_POINT('Origin',(-44.,223.004498131585,-6.00000000000001));
#1098=CARTESIAN_POINT('',(-44.,222.002533156322,-6.00000000000001));
#1099=CARTESIAN_POINT('',(-44.,220.004015405263,-3.00000000000002));
#1100=CARTESIAN_POINT('Origin',(-45.,222.002533156322,-6.00000000000001));
#1101=CARTESIAN_POINT('',(-45.,223.002533156322,3.5));
#1102=CARTESIAN_POINT('',(-45.,223.002533156322,-6.00000000000001));
#1103=CARTESIAN_POINT('Origin',(-45.,222.002533156322,3.5));
#1104=CARTESIAN_POINT('Origin',(58.0000968516195,223.002533156322,-6.));
#1105=CARTESIAN_POINT('',(-47.999895758276,223.002533156322,3.5));
#1106=CARTESIAN_POINT('',(-47.999895758276,223.002533156322,-6.));
#1107=CARTESIAN_POINT('',(5.25010054667175,223.002533156322,3.5));
#1108=CARTESIAN_POINT('Origin',(-47.999895758276,213.002533156322,-6.));
#1109=CARTESIAN_POINT('Origin',(-47.999895758276,213.002533156322,3.5));
#1110=CARTESIAN_POINT('Origin',(-47.999895758276,213.002533156322,3.5));
#1111=CARTESIAN_POINT('',(-47.999895758276,222.502533156322,3.99999999999999));
#1112=CARTESIAN_POINT('Origin',(-47.999895758276,222.502533156322,3.5));
#1113=CARTESIAN_POINT('Origin',(-47.999895758276,213.002533156322,3.99999999999999));
#1114=CARTESIAN_POINT('Origin',(5.25010054667175,222.502533156322,3.5));
#1115=CARTESIAN_POINT('',(-45.,222.502533156322,3.99999999999999));
#1116=CARTESIAN_POINT('Origin',(-45.,222.502533156322,3.5));
#1117=CARTESIAN_POINT('',(5.25010054667175,222.502533156322,3.99999999999999));
#1118=CARTESIAN_POINT('Ctrl Pts',(-45.,222.502533156322,4.));
#1119=CARTESIAN_POINT('Ctrl Pts',(-44.5,222.502533156322,4.));
#1120=CARTESIAN_POINT('Ctrl Pts',(-44.5,222.002533156322,4.));
#1121=CARTESIAN_POINT('Ctrl Pts',(-45.,223.002533156322,4.00000000000001));
#1122=CARTESIAN_POINT('Ctrl Pts',(-44.,223.002533156322,4.00000000000001));
#1123=CARTESIAN_POINT('Ctrl Pts',(-44.,222.002533156322,4.00000000000001));
#1124=CARTESIAN_POINT('Ctrl Pts',(-45.,223.002533156322,3.5));
#1125=CARTESIAN_POINT('Ctrl Pts',(-44.,223.002533156322,3.5));
#1126=CARTESIAN_POINT('Ctrl Pts',(-44.,222.002533156322,3.5));
#1127=CARTESIAN_POINT('Origin',(-45.,222.002533156322,3.99999999999999));
#1128=CARTESIAN_POINT('Origin',(-47.499895758276,212.502533156322,3.99999999999999));
#1129=CARTESIAN_POINT('Origin',(-47.5,220.004169,-1.77635683940025E-14));
#1130=CARTESIAN_POINT('',(-47.5,220.004169,-1.77635683940025E-14));
#1131=CARTESIAN_POINT('Origin',(-47.500002188855,212.50417118886,-1.77635683940025E-14));
#1132=CARTESIAN_POINT('',(-55.,212.504169,-1.77635683940025E-14));
#1133=CARTESIAN_POINT('Origin',(-55.,7.5,-1.77635683940025E-14));
#1134=UNCERTAINTY_MEASURE_WITH_UNIT(LENGTH_MEASURE(0.01),#1138,
'DISTANCE_ACCURACY_VALUE',
'Maximum model space distance between geometric entities at asserted c
onnectivities');
#1135=UNCERTAINTY_MEASURE_WITH_UNIT(LENGTH_MEASURE(0.01),#1138,
'DISTANCE_ACCURACY_VALUE',
'Maximum model space distance between geometric entities at asserted c
onnectivities');
#1136=(
GEOMETRIC_REPRESENTATION_CONTEXT(3)
GLOBAL_UNCERTAINTY_ASSIGNED_CONTEXT((#1134))
GLOBAL_UNIT_ASSIGNED_CONTEXT((#1138,#1140,#1141))
REPRESENTATION_CONTEXT('','3D')
);
#1137=(
GEOMETRIC_REPRESENTATION_CONTEXT(3)
GLOBAL_UNCERTAINTY_ASSIGNED_CONTEXT((#1135))
GLOBAL_UNIT_ASSIGNED_CONTEXT((#1138,#1140,#1141))
REPRESENTATION_CONTEXT('','3D')
);
#1138=(
LENGTH_UNIT()
NAMED_UNIT(*)
SI_UNIT(.MILLI.,.METRE.)
);
#1139=(
LENGTH_UNIT()
NAMED_UNIT(*)
SI_UNIT($,.METRE.)
);
#1140=(
NAMED_UNIT(*)
PLANE_ANGLE_UNIT()
SI_UNIT($,.RADIAN.)
);
#1141=(
NAMED_UNIT(*)
SI_UNIT($,.STERADIAN.)
SOLID_ANGLE_UNIT()
);
#1142=SHAPE_DEFINITION_REPRESENTATION(#1143,#1144);
#1143=PRODUCT_DEFINITION_SHAPE('',$,#1146);
#1144=SHAPE_REPRESENTATION('',(#661),#1136);
#1145=PRODUCT_DEFINITION_CONTEXT('part definition',#1150,'design');
#1146=PRODUCT_DEFINITION('FinnishTrainProject',
'FinnishTrainProject v64',#1147,#1145);
#1147=PRODUCT_DEFINITION_FORMATION('',$,#1152);
#1148=PRODUCT_RELATED_PRODUCT_CATEGORY('FinnishTrainProject v64',
'FinnishTrainProject v64',(#1152));
#1149=APPLICATION_PROTOCOL_DEFINITION('international standard',
'automotive_design',2009,#1150);
#1150=APPLICATION_CONTEXT(
'Core Data for Automotive Mechanical Design Process');
#1151=PRODUCT_CONTEXT('part definition',#1150,'mechanical');
#1152=PRODUCT('FinnishTrainProject','FinnishTrainProject v64',$,(#1151));
#1153=PRESENTATION_STYLE_ASSIGNMENT((#1156));
#1154=PRESENTATION_STYLE_ASSIGNMENT((#1157));
#1155=PRESENTATION_STYLE_ASSIGNMENT((#1158));
#1156=SURFACE_STYLE_USAGE(.BOTH.,#1159);
#1157=SURFACE_STYLE_USAGE(.BOTH.,#1160);
#1158=SURFACE_STYLE_USAGE(.BOTH.,#1161);
#1159=SURFACE_SIDE_STYLE('',(#1162));
#1160=SURFACE_SIDE_STYLE('',(#1163));
#1161=SURFACE_SIDE_STYLE('',(#1164));
#1162=SURFACE_STYLE_FILL_AREA(#1165);
#1163=SURFACE_STYLE_FILL_AREA(#1166);
#1164=SURFACE_STYLE_FILL_AREA(#1167);
#1165=FILL_AREA_STYLE('Steel - Satin',(#1168));
#1166=FILL_AREA_STYLE('Opaque(52,52,52)',(#1169));
#1167=FILL_AREA_STYLE('Plastic - Matte (Black)',(#1170));
#1168=FILL_AREA_STYLE_COLOUR('Steel - Satin',#1171);
#1169=FILL_AREA_STYLE_COLOUR('Opaque(52,52,52)',#1172);
#1170=FILL_AREA_STYLE_COLOUR('Plastic - Matte (Black)',#1173);
#1171=COLOUR_RGB('Steel - Satin',0.627450980392157,0.627450980392157,0.627450980392157);
#1172=COLOUR_RGB('Opaque(52,52,52)',0.203921568627451,0.203921568627451,
0.203921568627451);
#1173=COLOUR_RGB('Plastic - Matte (Black)',0.0980392156862745,0.0980392156862745,
0.0980392156862745);
ENDSEC;
END-ISO-10303-21;
