ISO-10303-21;
HEADER;
/* Generated by software containing ST-Developer
 * from STEP Tools, Inc. (www.steptools.com) 
 */

FILE_DESCRIPTION(
/* description */ (''),
/* implementation_level */ '2;1');

FILE_NAME(
/* name */ 'WallMountTopRight.step',
/* time_stamp */ '2026-07-19T13:20:02+03:00',
/* author */ (''),
/* organization */ (''),
/* preprocessor_version */ 'ST-DEVELOPER v20.1',
/* originating_system */ 'Autodesk Translation Framework v15.8.0.0',
/* authorisation */ '');

FILE_SCHEMA (('AUTOMOTIVE_DESIGN { 1 0 10303 214 3 1 1 }'));
ENDSEC;

DATA;
#10=MECHANICAL_DESIGN_GEOMETRIC_PRESENTATION_REPRESENTATION('',(#13),#1222);
#11=SHAPE_REPRESENTATION_RELATIONSHIP('SRR','None',#1229,#12);
#12=ADVANCED_BREP_SHAPE_REPRESENTATION('',(#14),#1221);
#13=STYLED_ITEM('',(#1240),#14);
#14=MANIFOLD_SOLID_BREP('WallMountTopRight',#695);
#15=FACE_BOUND('',#111,.T.);
#16=PLANE('',#731);
#17=PLANE('',#734);
#18=PLANE('',#737);
#19=PLANE('',#742);
#20=PLANE('',#746);
#21=PLANE('',#747);
#22=PLANE('',#748);
#23=PLANE('',#749);
#24=PLANE('',#750);
#25=PLANE('',#751);
#26=PLANE('',#752);
#27=PLANE('',#753);
#28=PLANE('',#757);
#29=PLANE('',#760);
#30=PLANE('',#761);
#31=PLANE('',#763);
#32=PLANE('',#768);
#33=PLANE('',#769);
#34=PLANE('',#780);
#35=PLANE('',#782);
#36=SPHERICAL_SURFACE('',#729,0.5);
#37=SPHERICAL_SURFACE('',#778,0.5);
#38=TOROIDAL_SURFACE('',#718,4.5,0.5);
#39=TOROIDAL_SURFACE('',#775,9.5,0.5);
#40=(
BOUNDED_SURFACE()
B_SPLINE_SURFACE(2,2,((#1005,#1006,#1007),(#1008,#1009,#1010),(#1011,#1012,
#1013)),.UNSPECIFIED.,.F.,.F.,.F.)
B_SPLINE_SURFACE_WITH_KNOTS((3,3),(3,3),(-9.44464178765271E-18,1.57079632679492),
(-3.14159265358979,-1.5707963267949),.UNSPECIFIED.)
GEOMETRIC_REPRESENTATION_ITEM()
RATIONAL_B_SPLINE_SURFACE(((1.,0.707106781186548,1.),(0.707106781186562,
0.50000000000001,0.707106781186562),(1.,0.707106781186548,1.)))
REPRESENTATION_ITEM('')
SURFACE()
);
#41=(
BOUNDED_SURFACE()
B_SPLINE_SURFACE(2,2,((#1040,#1041,#1042),(#1043,#1044,#1045),(#1046,#1047,
#1048)),.UNSPECIFIED.,.F.,.F.,.F.)
B_SPLINE_SURFACE_WITH_KNOTS((3,3),(3,3),(-1.57079632679495,0.),(-1.5707963267949,
1.11022302462516E-16),.UNSPECIFIED.)
GEOMETRIC_REPRESENTATION_ITEM()
RATIONAL_B_SPLINE_SURFACE(((1.,0.707106781186547,1.),(0.707106781186534,
0.499999999999991,0.707106781186534),(1.,0.707106781186547,1.)))
REPRESENTATION_ITEM('')
SURFACE()
);
#42=(
BOUNDED_SURFACE()
B_SPLINE_SURFACE(2,2,((#1193,#1194,#1195),(#1196,#1197,#1198),(#1199,#1200,
#1201)),.UNSPECIFIED.,.F.,.F.,.F.)
B_SPLINE_SURFACE_WITH_KNOTS((3,3),(3,3),(-1.5707963267949,2.22044604925028E-16),
(0.0204201220702647,1.5707963267949),.UNSPECIFIED.)
GEOMETRIC_REPRESENTATION_ITEM()
RATIONAL_B_SPLINE_SURFACE(((1.,0.714289403170984,1.),(0.707106781186549,
0.505078880711895,0.707106781186549),(1.,0.714289403170984,1.)))
REPRESENTATION_ITEM('')
SURFACE()
);
#43=FACE_OUTER_BOUND('',#84,.T.);
#44=FACE_OUTER_BOUND('',#85,.T.);
#45=FACE_OUTER_BOUND('',#86,.T.);
#46=FACE_OUTER_BOUND('',#87,.T.);
#47=FACE_OUTER_BOUND('',#88,.T.);
#48=FACE_OUTER_BOUND('',#89,.T.);
#49=FACE_OUTER_BOUND('',#90,.T.);
#50=FACE_OUTER_BOUND('',#91,.T.);
#51=FACE_OUTER_BOUND('',#92,.T.);
#52=FACE_OUTER_BOUND('',#93,.T.);
#53=FACE_OUTER_BOUND('',#94,.T.);
#54=FACE_OUTER_BOUND('',#95,.T.);
#55=FACE_OUTER_BOUND('',#96,.T.);
#56=FACE_OUTER_BOUND('',#97,.T.);
#57=FACE_OUTER_BOUND('',#98,.T.);
#58=FACE_OUTER_BOUND('',#99,.T.);
#59=FACE_OUTER_BOUND('',#100,.T.);
#60=FACE_OUTER_BOUND('',#101,.T.);
#61=FACE_OUTER_BOUND('',#102,.T.);
#62=FACE_OUTER_BOUND('',#103,.T.);
#63=FACE_OUTER_BOUND('',#104,.T.);
#64=FACE_OUTER_BOUND('',#105,.T.);
#65=FACE_OUTER_BOUND('',#106,.T.);
#66=FACE_OUTER_BOUND('',#107,.T.);
#67=FACE_OUTER_BOUND('',#108,.T.);
#68=FACE_OUTER_BOUND('',#109,.T.);
#69=FACE_OUTER_BOUND('',#110,.T.);
#70=FACE_OUTER_BOUND('',#112,.T.);
#71=FACE_OUTER_BOUND('',#113,.T.);
#72=FACE_OUTER_BOUND('',#114,.T.);
#73=FACE_OUTER_BOUND('',#115,.T.);
#74=FACE_OUTER_BOUND('',#116,.T.);
#75=FACE_OUTER_BOUND('',#117,.T.);
#76=FACE_OUTER_BOUND('',#118,.T.);
#77=FACE_OUTER_BOUND('',#119,.T.);
#78=FACE_OUTER_BOUND('',#120,.T.);
#79=FACE_OUTER_BOUND('',#121,.T.);
#80=FACE_OUTER_BOUND('',#122,.T.);
#81=FACE_OUTER_BOUND('',#123,.T.);
#82=FACE_OUTER_BOUND('',#124,.T.);
#83=FACE_OUTER_BOUND('',#125,.T.);
#84=EDGE_LOOP('',(#444,#445,#446,#447));
#85=EDGE_LOOP('',(#448,#449,#450,#451));
#86=EDGE_LOOP('',(#452,#453,#454,#455));
#87=EDGE_LOOP('',(#456,#457,#458,#459));
#88=EDGE_LOOP('',(#460,#461,#462,#463));
#89=EDGE_LOOP('',(#464,#465,#466,#467));
#90=EDGE_LOOP('',(#468,#469,#470,#471));
#91=EDGE_LOOP('',(#472,#473,#474));
#92=EDGE_LOOP('',(#475,#476,#477,#478,#479,#480));
#93=EDGE_LOOP('',(#481,#482,#483,#484));
#94=EDGE_LOOP('',(#485,#486,#487,#488));
#95=EDGE_LOOP('',(#489,#490,#491,#492));
#96=EDGE_LOOP('',(#493,#494,#495,#496));
#97=EDGE_LOOP('',(#497,#498,#499,#500));
#98=EDGE_LOOP('',(#501,#502,#503,#504));
#99=EDGE_LOOP('',(#505,#506,#507,#508,#509,#510,#511,#512,#513,#514));
#100=EDGE_LOOP('',(#515,#516,#517,#518));
#101=EDGE_LOOP('',(#519,#520,#521,#522));
#102=EDGE_LOOP('',(#523,#524,#525,#526));
#103=EDGE_LOOP('',(#527,#528,#529,#530));
#104=EDGE_LOOP('',(#531,#532,#533,#534));
#105=EDGE_LOOP('',(#535,#536,#537,#538));
#106=EDGE_LOOP('',(#539,#540,#541,#542));
#107=EDGE_LOOP('',(#543,#544,#545,#546));
#108=EDGE_LOOP('',(#547,#548,#549,#550,#551,#552,#553));
#109=EDGE_LOOP('',(#554,#555,#556,#557,#558));
#110=EDGE_LOOP('',(#559,#560,#561,#562,#563,#564));
#111=EDGE_LOOP('',(#565,#566,#567,#568));
#112=EDGE_LOOP('',(#569,#570,#571,#572,#573,#574));
#113=EDGE_LOOP('',(#575,#576,#577,#578));
#114=EDGE_LOOP('',(#579,#580,#581,#582,#583,#584));
#115=EDGE_LOOP('',(#585,#586,#587,#588));
#116=EDGE_LOOP('',(#589,#590,#591,#592,#593,#594));
#117=EDGE_LOOP('',(#595,#596,#597,#598));
#118=EDGE_LOOP('',(#599,#600,#601,#602));
#119=EDGE_LOOP('',(#603,#604,#605,#606));
#120=EDGE_LOOP('',(#607,#608,#609,#610));
#121=EDGE_LOOP('',(#611,#612,#613));
#122=EDGE_LOOP('',(#614,#615,#616,#617,#618));
#123=EDGE_LOOP('',(#619,#620,#621,#622,#623,#624,#625,#626,#627,#628,#629));
#124=EDGE_LOOP('',(#630,#631,#632,#633,#634,#635));
#125=EDGE_LOOP('',(#636,#637,#638,#639));
#126=LINE('',#1001,#188);
#127=LINE('',#1004,#189);
#128=LINE('',#1026,#190);
#129=LINE('',#1027,#191);
#130=LINE('',#1038,#192);
#131=LINE('',#1039,#193);
#132=LINE('',#1057,#194);
#133=LINE('',#1058,#195);
#134=LINE('',#1063,#196);
#135=LINE('',#1065,#197);
#136=LINE('',#1067,#198);
#137=LINE('',#1068,#199);
#138=LINE('',#1071,#200);
#139=LINE('',#1075,#201);
#140=LINE('',#1076,#202);
#141=LINE('',#1079,#203);
#142=LINE('',#1083,#204);
#143=LINE('',#1084,#205);
#144=LINE('',#1087,#206);
#145=LINE('',#1091,#207);
#146=LINE('',#1094,#208);
#147=LINE('',#1097,#209);
#148=LINE('',#1099,#210);
#149=LINE('',#1102,#211);
#150=LINE('',#1105,#212);
#151=LINE('',#1108,#213);
#152=LINE('',#1111,#214);
#153=LINE('',#1112,#215);
#154=LINE('',#1116,#216);
#155=LINE('',#1118,#217);
#156=LINE('',#1120,#218);
#157=LINE('',#1121,#219);
#158=LINE('',#1124,#220);
#159=LINE('',#1126,#221);
#160=LINE('',#1127,#222);
#161=LINE('',#1130,#223);
#162=LINE('',#1132,#224);
#163=LINE('',#1133,#225);
#164=LINE('',#1135,#226);
#165=LINE('',#1136,#227);
#166=LINE('',#1141,#228);
#167=LINE('',#1143,#229);
#168=LINE('',#1145,#230);
#169=LINE('',#1146,#231);
#170=LINE('',#1149,#232);
#171=LINE('',#1153,#233);
#172=LINE('',#1155,#234);
#173=LINE('',#1161,#235);
#174=LINE('',#1165,#236);
#175=LINE('',#1168,#237);
#176=LINE('',#1170,#238);
#177=LINE('',#1171,#239);
#178=LINE('',#1174,#240);
#179=LINE('',#1178,#241);
#180=LINE('',#1180,#242);
#181=LINE('',#1181,#243);
#182=LINE('',#1184,#244);
#183=LINE('',#1187,#245);
#184=LINE('',#1190,#246);
#185=LINE('',#1192,#247);
#186=LINE('',#1209,#248);
#187=LINE('',#1217,#249);
#188=VECTOR('',#789,10.);
#189=VECTOR('',#792,10.);
#190=VECTOR('',#805,10.);
#191=VECTOR('',#806,10.);
#192=VECTOR('',#819,10.);
#193=VECTOR('',#820,10.);
#194=VECTOR('',#831,10.);
#195=VECTOR('',#832,10.);
#196=VECTOR('',#839,10.);
#197=VECTOR('',#840,10.);
#198=VECTOR('',#841,10.);
#199=VECTOR('',#842,10.);
#200=VECTOR('',#845,10.);
#201=VECTOR('',#850,10.);
#202=VECTOR('',#851,10.);
#203=VECTOR('',#854,10.);
#204=VECTOR('',#859,10.);
#205=VECTOR('',#860,10.);
#206=VECTOR('',#863,10.);
#207=VECTOR('',#868,10.);
#208=VECTOR('',#871,10.);
#209=VECTOR('',#874,10.);
#210=VECTOR('',#875,10.);
#211=VECTOR('',#878,10.);
#212=VECTOR('',#881,10.);
#213=VECTOR('',#884,0.5);
#214=VECTOR('',#887,10.);
#215=VECTOR('',#888,10.);
#216=VECTOR('',#891,10.);
#217=VECTOR('',#892,10.);
#218=VECTOR('',#893,10.);
#219=VECTOR('',#894,10.);
#220=VECTOR('',#897,10.);
#221=VECTOR('',#898,10.);
#222=VECTOR('',#899,10.);
#223=VECTOR('',#902,10.);
#224=VECTOR('',#903,10.);
#225=VECTOR('',#904,10.);
#226=VECTOR('',#907,10.);
#227=VECTOR('',#908,10.);
#228=VECTOR('',#913,10.);
#229=VECTOR('',#914,10.);
#230=VECTOR('',#915,10.);
#231=VECTOR('',#916,10.);
#232=VECTOR('',#919,10.);
#233=VECTOR('',#922,0.999999999999912);
#234=VECTOR('',#923,10.);
#235=VECTOR('',#930,10.);
#236=VECTOR('',#933,10.);
#237=VECTOR('',#938,10.);
#238=VECTOR('',#939,10.);
#239=VECTOR('',#940,10.);
#240=VECTOR('',#943,10.);
#241=VECTOR('',#948,10.);
#242=VECTOR('',#949,10.);
#243=VECTOR('',#950,10.);
#244=VECTOR('',#953,10.);
#245=VECTOR('',#958,10.);
#246=VECTOR('',#963,10.);
#247=VECTOR('',#966,1.);
#248=VECTOR('',#977,10.);
#249=VECTOR('',#992,1.);
#250=CIRCLE('',#710,0.5);
#251=CIRCLE('',#711,0.499999999999998);
#252=CIRCLE('',#712,0.5);
#253=CIRCLE('',#713,1.);
#254=CIRCLE('',#714,0.500000000000007);
#255=CIRCLE('',#715,0.5);
#256=CIRCLE('',#717,0.500000000000007);
#257=CIRCLE('',#719,0.499999999999989);
#258=CIRCLE('',#720,4.5);
#259=CIRCLE('',#721,4.);
#260=CIRCLE('',#723,0.499999999999998);
#261=CIRCLE('',#724,0.500000000000043);
#262=CIRCLE('',#725,0.5);
#263=CIRCLE('',#726,1.);
#264=CIRCLE('',#728,0.500000000000007);
#265=CIRCLE('',#730,0.500000000000002);
#266=CIRCLE('',#733,1.);
#267=CIRCLE('',#736,4.);
#268=CIRCLE('',#739,1.);
#269=CIRCLE('',#741,0.499999999999998);
#270=CIRCLE('',#743,7.553356614391);
#271=CIRCLE('',#745,0.5);
#272=CIRCLE('',#754,7.553356614391);
#273=CIRCLE('',#755,0.5);
#274=CIRCLE('',#756,1.);
#275=CIRCLE('',#758,1.);
#276=CIRCLE('',#759,10.);
#277=CIRCLE('',#762,7.553356614391);
#278=CIRCLE('',#765,1.);
#279=CIRCLE('',#767,0.499999999999998);
#280=CIRCLE('',#770,0.5);
#281=CIRCLE('',#771,0.5);
#282=CIRCLE('',#772,0.5);
#283=CIRCLE('',#774,0.499999999999999);
#284=CIRCLE('',#776,10.);
#285=CIRCLE('',#777,9.5);
#286=VERTEX_POINT('',#997);
#287=VERTEX_POINT('',#998);
#288=VERTEX_POINT('',#1000);
#289=VERTEX_POINT('',#1002);
#290=VERTEX_POINT('',#1014);
#291=VERTEX_POINT('',#1015);
#292=VERTEX_POINT('',#1017);
#293=VERTEX_POINT('',#1019);
#294=VERTEX_POINT('',#1023);
#295=VERTEX_POINT('',#1024);
#296=VERTEX_POINT('',#1029);
#297=VERTEX_POINT('',#1030);
#298=VERTEX_POINT('',#1035);
#299=VERTEX_POINT('',#1036);
#300=VERTEX_POINT('',#1049);
#301=VERTEX_POINT('',#1050);
#302=VERTEX_POINT('',#1055);
#303=VERTEX_POINT('',#1062);
#304=VERTEX_POINT('',#1064);
#305=VERTEX_POINT('',#1066);
#306=VERTEX_POINT('',#1070);
#307=VERTEX_POINT('',#1074);
#308=VERTEX_POINT('',#1078);
#309=VERTEX_POINT('',#1082);
#310=VERTEX_POINT('',#1086);
#311=VERTEX_POINT('',#1090);
#312=VERTEX_POINT('',#1092);
#313=VERTEX_POINT('',#1096);
#314=VERTEX_POINT('',#1098);
#315=VERTEX_POINT('',#1100);
#316=VERTEX_POINT('',#1104);
#317=VERTEX_POINT('',#1106);
#318=VERTEX_POINT('',#1110);
#319=VERTEX_POINT('',#1114);
#320=VERTEX_POINT('',#1115);
#321=VERTEX_POINT('',#1117);
#322=VERTEX_POINT('',#1119);
#323=VERTEX_POINT('',#1123);
#324=VERTEX_POINT('',#1125);
#325=VERTEX_POINT('',#1129);
#326=VERTEX_POINT('',#1131);
#327=VERTEX_POINT('',#1139);
#328=VERTEX_POINT('',#1140);
#329=VERTEX_POINT('',#1142);
#330=VERTEX_POINT('',#1144);
#331=VERTEX_POINT('',#1148);
#332=VERTEX_POINT('',#1150);
#333=VERTEX_POINT('',#1152);
#334=VERTEX_POINT('',#1154);
#335=VERTEX_POINT('',#1156);
#336=VERTEX_POINT('',#1160);
#337=VERTEX_POINT('',#1162);
#338=VERTEX_POINT('',#1164);
#339=VERTEX_POINT('',#1169);
#340=VERTEX_POINT('',#1173);
#341=VERTEX_POINT('',#1177);
#342=VERTEX_POINT('',#1179);
#343=VERTEX_POINT('',#1183);
#344=VERTEX_POINT('',#1203);
#345=VERTEX_POINT('',#1207);
#346=EDGE_CURVE('',#286,#287,#250,.T.);
#347=EDGE_CURVE('',#287,#288,#126,.T.);
#348=EDGE_CURVE('',#288,#289,#251,.T.);
#349=EDGE_CURVE('',#289,#286,#127,.T.);
#350=EDGE_CURVE('',#290,#291,#252,.T.);
#351=EDGE_CURVE('',#291,#292,#253,.T.);
#352=EDGE_CURVE('',#292,#293,#254,.T.);
#353=EDGE_CURVE('',#293,#290,#255,.T.);
#354=EDGE_CURVE('',#294,#295,#256,.T.);
#355=EDGE_CURVE('',#295,#293,#128,.T.);
#356=EDGE_CURVE('',#292,#294,#129,.T.);
#357=EDGE_CURVE('',#296,#297,#257,.T.);
#358=EDGE_CURVE('',#297,#295,#258,.T.);
#359=EDGE_CURVE('',#294,#296,#259,.T.);
#360=EDGE_CURVE('',#298,#299,#260,.T.);
#361=EDGE_CURVE('',#299,#297,#130,.T.);
#362=EDGE_CURVE('',#296,#298,#131,.T.);
#363=EDGE_CURVE('',#300,#301,#261,.T.);
#364=EDGE_CURVE('',#301,#299,#262,.T.);
#365=EDGE_CURVE('',#298,#300,#263,.T.);
#366=EDGE_CURVE('',#289,#302,#264,.T.);
#367=EDGE_CURVE('',#302,#301,#132,.T.);
#368=EDGE_CURVE('',#300,#289,#133,.T.);
#369=EDGE_CURVE('',#288,#302,#265,.T.);
#370=EDGE_CURVE('',#303,#300,#134,.T.);
#371=EDGE_CURVE('',#303,#304,#135,.F.);
#372=EDGE_CURVE('',#304,#305,#136,.F.);
#373=EDGE_CURVE('',#305,#286,#137,.F.);
#374=EDGE_CURVE('',#298,#306,#138,.T.);
#375=EDGE_CURVE('',#306,#303,#266,.T.);
#376=EDGE_CURVE('',#307,#296,#139,.T.);
#377=EDGE_CURVE('',#306,#307,#140,.T.);
#378=EDGE_CURVE('',#294,#308,#141,.T.);
#379=EDGE_CURVE('',#308,#307,#267,.T.);
#380=EDGE_CURVE('',#309,#292,#142,.T.);
#381=EDGE_CURVE('',#308,#309,#143,.T.);
#382=EDGE_CURVE('',#291,#310,#144,.T.);
#383=EDGE_CURVE('',#310,#309,#268,.T.);
#384=EDGE_CURVE('',#290,#311,#145,.T.);
#385=EDGE_CURVE('',#312,#311,#269,.T.);
#386=EDGE_CURVE('',#312,#291,#146,.T.);
#387=EDGE_CURVE('',#313,#310,#147,.F.);
#388=EDGE_CURVE('',#313,#314,#148,.F.);
#389=EDGE_CURVE('',#314,#315,#270,.F.);
#390=EDGE_CURVE('',#315,#304,#149,.F.);
#391=EDGE_CURVE('',#288,#316,#150,.T.);
#392=EDGE_CURVE('',#317,#316,#271,.T.);
#393=EDGE_CURVE('',#302,#317,#151,.T.);
#394=EDGE_CURVE('',#287,#318,#152,.T.);
#395=EDGE_CURVE('',#316,#318,#153,.T.);
#396=EDGE_CURVE('',#319,#320,#154,.T.);
#397=EDGE_CURVE('',#319,#321,#155,.F.);
#398=EDGE_CURVE('',#322,#321,#156,.T.);
#399=EDGE_CURVE('',#320,#322,#157,.T.);
#400=EDGE_CURVE('',#320,#323,#158,.T.);
#401=EDGE_CURVE('',#324,#322,#159,.F.);
#402=EDGE_CURVE('',#323,#324,#160,.F.);
#403=EDGE_CURVE('',#323,#325,#161,.T.);
#404=EDGE_CURVE('',#326,#324,#162,.T.);
#405=EDGE_CURVE('',#325,#326,#163,.T.);
#406=EDGE_CURVE('',#325,#319,#164,.T.);
#407=EDGE_CURVE('',#321,#326,#165,.F.);
#408=EDGE_CURVE('',#327,#328,#166,.T.);
#409=EDGE_CURVE('',#327,#329,#167,.T.);
#410=EDGE_CURVE('',#330,#329,#168,.T.);
#411=EDGE_CURVE('',#330,#328,#169,.T.);
#412=EDGE_CURVE('',#331,#330,#170,.T.);
#413=EDGE_CURVE('',#332,#331,#272,.T.);
#414=EDGE_CURVE('',#333,#332,#171,.T.);
#415=EDGE_CURVE('',#333,#334,#172,.T.);
#416=EDGE_CURVE('',#335,#334,#273,.F.);
#417=EDGE_CURVE('',#328,#335,#274,.T.);
#418=EDGE_CURVE('',#329,#336,#173,.T.);
#419=EDGE_CURVE('',#337,#327,#275,.T.);
#420=EDGE_CURVE('',#338,#337,#174,.T.);
#421=EDGE_CURVE('',#336,#338,#276,.T.);
#422=EDGE_CURVE('',#318,#336,#175,.T.);
#423=EDGE_CURVE('',#339,#318,#176,.T.);
#424=EDGE_CURVE('',#339,#331,#177,.T.);
#425=EDGE_CURVE('',#340,#305,#178,.T.);
#426=EDGE_CURVE('',#339,#340,#277,.T.);
#427=EDGE_CURVE('',#341,#337,#179,.T.);
#428=EDGE_CURVE('',#342,#341,#180,.T.);
#429=EDGE_CURVE('',#338,#342,#181,.T.);
#430=EDGE_CURVE('',#343,#335,#182,.T.);
#431=EDGE_CURVE('',#341,#343,#278,.T.);
#432=EDGE_CURVE('',#334,#312,#183,.T.);
#433=EDGE_CURVE('',#312,#343,#279,.T.);
#434=EDGE_CURVE('',#333,#313,#184,.F.);
#435=EDGE_CURVE('',#332,#314,#185,.T.);
#436=EDGE_CURVE('',#343,#311,#280,.T.);
#437=EDGE_CURVE('',#311,#344,#281,.T.);
#438=EDGE_CURVE('',#344,#341,#282,.T.);
#439=EDGE_CURVE('',#345,#342,#283,.T.);
#440=EDGE_CURVE('',#344,#345,#186,.T.);
#441=EDGE_CURVE('',#316,#342,#284,.T.);
#442=EDGE_CURVE('',#345,#317,#285,.T.);
#443=EDGE_CURVE('',#340,#315,#187,.T.);
#444=ORIENTED_EDGE('',*,*,#346,.T.);
#445=ORIENTED_EDGE('',*,*,#347,.T.);
#446=ORIENTED_EDGE('',*,*,#348,.T.);
#447=ORIENTED_EDGE('',*,*,#349,.T.);
#448=ORIENTED_EDGE('',*,*,#350,.T.);
#449=ORIENTED_EDGE('',*,*,#351,.T.);
#450=ORIENTED_EDGE('',*,*,#352,.T.);
#451=ORIENTED_EDGE('',*,*,#353,.T.);
#452=ORIENTED_EDGE('',*,*,#354,.T.);
#453=ORIENTED_EDGE('',*,*,#355,.T.);
#454=ORIENTED_EDGE('',*,*,#352,.F.);
#455=ORIENTED_EDGE('',*,*,#356,.T.);
#456=ORIENTED_EDGE('',*,*,#357,.T.);
#457=ORIENTED_EDGE('',*,*,#358,.T.);
#458=ORIENTED_EDGE('',*,*,#354,.F.);
#459=ORIENTED_EDGE('',*,*,#359,.T.);
#460=ORIENTED_EDGE('',*,*,#360,.T.);
#461=ORIENTED_EDGE('',*,*,#361,.T.);
#462=ORIENTED_EDGE('',*,*,#357,.F.);
#463=ORIENTED_EDGE('',*,*,#362,.T.);
#464=ORIENTED_EDGE('',*,*,#363,.T.);
#465=ORIENTED_EDGE('',*,*,#364,.T.);
#466=ORIENTED_EDGE('',*,*,#360,.F.);
#467=ORIENTED_EDGE('',*,*,#365,.T.);
#468=ORIENTED_EDGE('',*,*,#366,.T.);
#469=ORIENTED_EDGE('',*,*,#367,.T.);
#470=ORIENTED_EDGE('',*,*,#363,.F.);
#471=ORIENTED_EDGE('',*,*,#368,.T.);
#472=ORIENTED_EDGE('',*,*,#366,.F.);
#473=ORIENTED_EDGE('',*,*,#348,.F.);
#474=ORIENTED_EDGE('',*,*,#369,.T.);
#475=ORIENTED_EDGE('',*,*,#349,.F.);
#476=ORIENTED_EDGE('',*,*,#368,.F.);
#477=ORIENTED_EDGE('',*,*,#370,.F.);
#478=ORIENTED_EDGE('',*,*,#371,.T.);
#479=ORIENTED_EDGE('',*,*,#372,.T.);
#480=ORIENTED_EDGE('',*,*,#373,.T.);
#481=ORIENTED_EDGE('',*,*,#365,.F.);
#482=ORIENTED_EDGE('',*,*,#374,.T.);
#483=ORIENTED_EDGE('',*,*,#375,.T.);
#484=ORIENTED_EDGE('',*,*,#370,.T.);
#485=ORIENTED_EDGE('',*,*,#362,.F.);
#486=ORIENTED_EDGE('',*,*,#376,.F.);
#487=ORIENTED_EDGE('',*,*,#377,.F.);
#488=ORIENTED_EDGE('',*,*,#374,.F.);
#489=ORIENTED_EDGE('',*,*,#359,.F.);
#490=ORIENTED_EDGE('',*,*,#378,.T.);
#491=ORIENTED_EDGE('',*,*,#379,.T.);
#492=ORIENTED_EDGE('',*,*,#376,.T.);
#493=ORIENTED_EDGE('',*,*,#356,.F.);
#494=ORIENTED_EDGE('',*,*,#380,.F.);
#495=ORIENTED_EDGE('',*,*,#381,.F.);
#496=ORIENTED_EDGE('',*,*,#378,.F.);
#497=ORIENTED_EDGE('',*,*,#351,.F.);
#498=ORIENTED_EDGE('',*,*,#382,.T.);
#499=ORIENTED_EDGE('',*,*,#383,.T.);
#500=ORIENTED_EDGE('',*,*,#380,.T.);
#501=ORIENTED_EDGE('',*,*,#350,.F.);
#502=ORIENTED_EDGE('',*,*,#384,.T.);
#503=ORIENTED_EDGE('',*,*,#385,.F.);
#504=ORIENTED_EDGE('',*,*,#386,.T.);
#505=ORIENTED_EDGE('',*,*,#375,.F.);
#506=ORIENTED_EDGE('',*,*,#377,.T.);
#507=ORIENTED_EDGE('',*,*,#379,.F.);
#508=ORIENTED_EDGE('',*,*,#381,.T.);
#509=ORIENTED_EDGE('',*,*,#383,.F.);
#510=ORIENTED_EDGE('',*,*,#387,.F.);
#511=ORIENTED_EDGE('',*,*,#388,.T.);
#512=ORIENTED_EDGE('',*,*,#389,.T.);
#513=ORIENTED_EDGE('',*,*,#390,.T.);
#514=ORIENTED_EDGE('',*,*,#371,.F.);
#515=ORIENTED_EDGE('',*,*,#369,.F.);
#516=ORIENTED_EDGE('',*,*,#391,.T.);
#517=ORIENTED_EDGE('',*,*,#392,.F.);
#518=ORIENTED_EDGE('',*,*,#393,.F.);
#519=ORIENTED_EDGE('',*,*,#347,.F.);
#520=ORIENTED_EDGE('',*,*,#394,.T.);
#521=ORIENTED_EDGE('',*,*,#395,.F.);
#522=ORIENTED_EDGE('',*,*,#391,.F.);
#523=ORIENTED_EDGE('',*,*,#396,.F.);
#524=ORIENTED_EDGE('',*,*,#397,.T.);
#525=ORIENTED_EDGE('',*,*,#398,.F.);
#526=ORIENTED_EDGE('',*,*,#399,.F.);
#527=ORIENTED_EDGE('',*,*,#400,.F.);
#528=ORIENTED_EDGE('',*,*,#399,.T.);
#529=ORIENTED_EDGE('',*,*,#401,.F.);
#530=ORIENTED_EDGE('',*,*,#402,.F.);
#531=ORIENTED_EDGE('',*,*,#403,.F.);
#532=ORIENTED_EDGE('',*,*,#402,.T.);
#533=ORIENTED_EDGE('',*,*,#404,.F.);
#534=ORIENTED_EDGE('',*,*,#405,.F.);
#535=ORIENTED_EDGE('',*,*,#406,.F.);
#536=ORIENTED_EDGE('',*,*,#405,.T.);
#537=ORIENTED_EDGE('',*,*,#407,.F.);
#538=ORIENTED_EDGE('',*,*,#397,.F.);
#539=ORIENTED_EDGE('',*,*,#407,.T.);
#540=ORIENTED_EDGE('',*,*,#404,.T.);
#541=ORIENTED_EDGE('',*,*,#401,.T.);
#542=ORIENTED_EDGE('',*,*,#398,.T.);
#543=ORIENTED_EDGE('',*,*,#408,.F.);
#544=ORIENTED_EDGE('',*,*,#409,.T.);
#545=ORIENTED_EDGE('',*,*,#410,.F.);
#546=ORIENTED_EDGE('',*,*,#411,.T.);
#547=ORIENTED_EDGE('',*,*,#412,.F.);
#548=ORIENTED_EDGE('',*,*,#413,.F.);
#549=ORIENTED_EDGE('',*,*,#414,.F.);
#550=ORIENTED_EDGE('',*,*,#415,.T.);
#551=ORIENTED_EDGE('',*,*,#416,.F.);
#552=ORIENTED_EDGE('',*,*,#417,.F.);
#553=ORIENTED_EDGE('',*,*,#411,.F.);
#554=ORIENTED_EDGE('',*,*,#418,.F.);
#555=ORIENTED_EDGE('',*,*,#409,.F.);
#556=ORIENTED_EDGE('',*,*,#419,.F.);
#557=ORIENTED_EDGE('',*,*,#420,.F.);
#558=ORIENTED_EDGE('',*,*,#421,.F.);
#559=ORIENTED_EDGE('',*,*,#418,.T.);
#560=ORIENTED_EDGE('',*,*,#422,.F.);
#561=ORIENTED_EDGE('',*,*,#423,.F.);
#562=ORIENTED_EDGE('',*,*,#424,.T.);
#563=ORIENTED_EDGE('',*,*,#412,.T.);
#564=ORIENTED_EDGE('',*,*,#410,.T.);
#565=ORIENTED_EDGE('',*,*,#396,.T.);
#566=ORIENTED_EDGE('',*,*,#400,.T.);
#567=ORIENTED_EDGE('',*,*,#403,.T.);
#568=ORIENTED_EDGE('',*,*,#406,.T.);
#569=ORIENTED_EDGE('',*,*,#346,.F.);
#570=ORIENTED_EDGE('',*,*,#373,.F.);
#571=ORIENTED_EDGE('',*,*,#425,.F.);
#572=ORIENTED_EDGE('',*,*,#426,.F.);
#573=ORIENTED_EDGE('',*,*,#423,.T.);
#574=ORIENTED_EDGE('',*,*,#394,.F.);
#575=ORIENTED_EDGE('',*,*,#427,.F.);
#576=ORIENTED_EDGE('',*,*,#428,.F.);
#577=ORIENTED_EDGE('',*,*,#429,.F.);
#578=ORIENTED_EDGE('',*,*,#420,.T.);
#579=ORIENTED_EDGE('',*,*,#430,.F.);
#580=ORIENTED_EDGE('',*,*,#431,.F.);
#581=ORIENTED_EDGE('',*,*,#427,.T.);
#582=ORIENTED_EDGE('',*,*,#419,.T.);
#583=ORIENTED_EDGE('',*,*,#408,.T.);
#584=ORIENTED_EDGE('',*,*,#417,.T.);
#585=ORIENTED_EDGE('',*,*,#432,.T.);
#586=ORIENTED_EDGE('',*,*,#433,.T.);
#587=ORIENTED_EDGE('',*,*,#430,.T.);
#588=ORIENTED_EDGE('',*,*,#416,.T.);
#589=ORIENTED_EDGE('',*,*,#434,.T.);
#590=ORIENTED_EDGE('',*,*,#387,.T.);
#591=ORIENTED_EDGE('',*,*,#382,.F.);
#592=ORIENTED_EDGE('',*,*,#386,.F.);
#593=ORIENTED_EDGE('',*,*,#432,.F.);
#594=ORIENTED_EDGE('',*,*,#415,.F.);
#595=ORIENTED_EDGE('',*,*,#435,.T.);
#596=ORIENTED_EDGE('',*,*,#388,.F.);
#597=ORIENTED_EDGE('',*,*,#434,.F.);
#598=ORIENTED_EDGE('',*,*,#414,.T.);
#599=ORIENTED_EDGE('',*,*,#436,.T.);
#600=ORIENTED_EDGE('',*,*,#437,.T.);
#601=ORIENTED_EDGE('',*,*,#438,.T.);
#602=ORIENTED_EDGE('',*,*,#431,.T.);
#603=ORIENTED_EDGE('',*,*,#439,.T.);
#604=ORIENTED_EDGE('',*,*,#428,.T.);
#605=ORIENTED_EDGE('',*,*,#438,.F.);
#606=ORIENTED_EDGE('',*,*,#440,.T.);
#607=ORIENTED_EDGE('',*,*,#392,.T.);
#608=ORIENTED_EDGE('',*,*,#441,.T.);
#609=ORIENTED_EDGE('',*,*,#439,.F.);
#610=ORIENTED_EDGE('',*,*,#442,.T.);
#611=ORIENTED_EDGE('',*,*,#436,.F.);
#612=ORIENTED_EDGE('',*,*,#433,.F.);
#613=ORIENTED_EDGE('',*,*,#385,.T.);
#614=ORIENTED_EDGE('',*,*,#429,.T.);
#615=ORIENTED_EDGE('',*,*,#441,.F.);
#616=ORIENTED_EDGE('',*,*,#395,.T.);
#617=ORIENTED_EDGE('',*,*,#422,.T.);
#618=ORIENTED_EDGE('',*,*,#421,.T.);
#619=ORIENTED_EDGE('',*,*,#367,.F.);
#620=ORIENTED_EDGE('',*,*,#393,.T.);
#621=ORIENTED_EDGE('',*,*,#442,.F.);
#622=ORIENTED_EDGE('',*,*,#440,.F.);
#623=ORIENTED_EDGE('',*,*,#437,.F.);
#624=ORIENTED_EDGE('',*,*,#384,.F.);
#625=ORIENTED_EDGE('',*,*,#353,.F.);
#626=ORIENTED_EDGE('',*,*,#355,.F.);
#627=ORIENTED_EDGE('',*,*,#358,.F.);
#628=ORIENTED_EDGE('',*,*,#361,.F.);
#629=ORIENTED_EDGE('',*,*,#364,.F.);
#630=ORIENTED_EDGE('',*,*,#426,.T.);
#631=ORIENTED_EDGE('',*,*,#443,.T.);
#632=ORIENTED_EDGE('',*,*,#389,.F.);
#633=ORIENTED_EDGE('',*,*,#435,.F.);
#634=ORIENTED_EDGE('',*,*,#413,.T.);
#635=ORIENTED_EDGE('',*,*,#424,.F.);
#636=ORIENTED_EDGE('',*,*,#425,.T.);
#637=ORIENTED_EDGE('',*,*,#372,.F.);
#638=ORIENTED_EDGE('',*,*,#390,.F.);
#639=ORIENTED_EDGE('',*,*,#443,.F.);
#640=CYLINDRICAL_SURFACE('',#709,0.5);
#641=CYLINDRICAL_SURFACE('',#716,0.5);
#642=CYLINDRICAL_SURFACE('',#722,0.5);
#643=CYLINDRICAL_SURFACE('',#727,0.5);
#644=CYLINDRICAL_SURFACE('',#732,1.);
#645=CYLINDRICAL_SURFACE('',#735,4.);
#646=CYLINDRICAL_SURFACE('',#738,1.);
#647=CYLINDRICAL_SURFACE('',#740,0.5);
#648=CYLINDRICAL_SURFACE('',#744,0.5);
#649=CYLINDRICAL_SURFACE('',#764,1.);
#650=CYLINDRICAL_SURFACE('',#766,0.5);
#651=CYLINDRICAL_SURFACE('',#773,0.5);
#652=CYLINDRICAL_SURFACE('',#779,10.);
#653=CYLINDRICAL_SURFACE('',#781,7.553356614391);
#654=ADVANCED_FACE('',(#43),#640,.T.);
#655=ADVANCED_FACE('',(#44),#40,.F.);
#656=ADVANCED_FACE('',(#45),#641,.T.);
#657=ADVANCED_FACE('',(#46),#38,.T.);
#658=ADVANCED_FACE('',(#47),#642,.T.);
#659=ADVANCED_FACE('',(#48),#41,.F.);
#660=ADVANCED_FACE('',(#49),#643,.T.);
#661=ADVANCED_FACE('',(#50),#36,.T.);
#662=ADVANCED_FACE('',(#51),#16,.T.);
#663=ADVANCED_FACE('',(#52),#644,.T.);
#664=ADVANCED_FACE('',(#53),#17,.F.);
#665=ADVANCED_FACE('',(#54),#645,.F.);
#666=ADVANCED_FACE('',(#55),#18,.F.);
#667=ADVANCED_FACE('',(#56),#646,.T.);
#668=ADVANCED_FACE('',(#57),#647,.T.);
#669=ADVANCED_FACE('',(#58),#19,.F.);
#670=ADVANCED_FACE('',(#59),#648,.T.);
#671=ADVANCED_FACE('',(#60),#20,.T.);
#672=ADVANCED_FACE('',(#61),#21,.T.);
#673=ADVANCED_FACE('',(#62),#22,.T.);
#674=ADVANCED_FACE('',(#63),#23,.T.);
#675=ADVANCED_FACE('',(#64),#24,.T.);
#676=ADVANCED_FACE('',(#65),#25,.T.);
#677=ADVANCED_FACE('',(#66),#26,.F.);
#678=ADVANCED_FACE('',(#67),#27,.F.);
#679=ADVANCED_FACE('',(#68),#28,.T.);
#680=ADVANCED_FACE('',(#69,#15),#29,.T.);
#681=ADVANCED_FACE('',(#70),#30,.F.);
#682=ADVANCED_FACE('',(#71),#31,.T.);
#683=ADVANCED_FACE('',(#72),#649,.T.);
#684=ADVANCED_FACE('',(#73),#650,.T.);
#685=ADVANCED_FACE('',(#74),#32,.T.);
#686=ADVANCED_FACE('',(#75),#33,.F.);
#687=ADVANCED_FACE('',(#76),#42,.F.);
#688=ADVANCED_FACE('',(#77),#651,.T.);
#689=ADVANCED_FACE('',(#78),#39,.T.);
#690=ADVANCED_FACE('',(#79),#37,.T.);
#691=ADVANCED_FACE('',(#80),#652,.T.);
#692=ADVANCED_FACE('',(#81),#34,.T.);
#693=ADVANCED_FACE('',(#82),#653,.F.);
#694=ADVANCED_FACE('',(#83),#35,.F.);
#695=CLOSED_SHELL('',(#654,#655,#656,#657,#658,#659,#660,#661,#662,#663,
#664,#665,#666,#667,#668,#669,#670,#671,#672,#673,#674,#675,#676,#677,#678,
#679,#680,#681,#682,#683,#684,#685,#686,#687,#688,#689,#690,#691,#692,#693,
#694));
#696=DERIVED_UNIT_ELEMENT(#698,1.);
#697=DERIVED_UNIT_ELEMENT(#1224,-3.);
#698=(
MASS_UNIT()
NAMED_UNIT(*)
SI_UNIT(.KILO.,.GRAM.)
);
#699=DERIVED_UNIT((#696,#697));
#700=MEASURE_REPRESENTATION_ITEM('density measure',
POSITIVE_RATIO_MEASURE(7850.),#699);
#701=PROPERTY_DEFINITION_REPRESENTATION(#706,#703);
#702=PROPERTY_DEFINITION_REPRESENTATION(#707,#704);
#703=REPRESENTATION('material name',(#705),#1221);
#704=REPRESENTATION('density',(#700),#1221);
#705=DESCRIPTIVE_REPRESENTATION_ITEM('Steel','Steel');
#706=PROPERTY_DEFINITION('material property','material name',#1231);
#707=PROPERTY_DEFINITION('material property','density of part',#1231);
#708=AXIS2_PLACEMENT_3D('',#995,#783,#784);
#709=AXIS2_PLACEMENT_3D('',#996,#785,#786);
#710=AXIS2_PLACEMENT_3D('',#999,#787,#788);
#711=AXIS2_PLACEMENT_3D('',#1003,#790,#791);
#712=AXIS2_PLACEMENT_3D('',#1016,#793,#794);
#713=AXIS2_PLACEMENT_3D('',#1018,#795,#796);
#714=AXIS2_PLACEMENT_3D('',#1020,#797,#798);
#715=AXIS2_PLACEMENT_3D('',#1021,#799,#800);
#716=AXIS2_PLACEMENT_3D('',#1022,#801,#802);
#717=AXIS2_PLACEMENT_3D('',#1025,#803,#804);
#718=AXIS2_PLACEMENT_3D('',#1028,#807,#808);
#719=AXIS2_PLACEMENT_3D('',#1031,#809,#810);
#720=AXIS2_PLACEMENT_3D('',#1032,#811,#812);
#721=AXIS2_PLACEMENT_3D('',#1033,#813,#814);
#722=AXIS2_PLACEMENT_3D('',#1034,#815,#816);
#723=AXIS2_PLACEMENT_3D('',#1037,#817,#818);
#724=AXIS2_PLACEMENT_3D('',#1051,#821,#822);
#725=AXIS2_PLACEMENT_3D('',#1052,#823,#824);
#726=AXIS2_PLACEMENT_3D('',#1053,#825,#826);
#727=AXIS2_PLACEMENT_3D('',#1054,#827,#828);
#728=AXIS2_PLACEMENT_3D('',#1056,#829,#830);
#729=AXIS2_PLACEMENT_3D('',#1059,#833,#834);
#730=AXIS2_PLACEMENT_3D('',#1060,#835,#836);
#731=AXIS2_PLACEMENT_3D('',#1061,#837,#838);
#732=AXIS2_PLACEMENT_3D('',#1069,#843,#844);
#733=AXIS2_PLACEMENT_3D('',#1072,#846,#847);
#734=AXIS2_PLACEMENT_3D('',#1073,#848,#849);
#735=AXIS2_PLACEMENT_3D('',#1077,#852,#853);
#736=AXIS2_PLACEMENT_3D('',#1080,#855,#856);
#737=AXIS2_PLACEMENT_3D('',#1081,#857,#858);
#738=AXIS2_PLACEMENT_3D('',#1085,#861,#862);
#739=AXIS2_PLACEMENT_3D('',#1088,#864,#865);
#740=AXIS2_PLACEMENT_3D('',#1089,#866,#867);
#741=AXIS2_PLACEMENT_3D('',#1093,#869,#870);
#742=AXIS2_PLACEMENT_3D('',#1095,#872,#873);
#743=AXIS2_PLACEMENT_3D('',#1101,#876,#877);
#744=AXIS2_PLACEMENT_3D('',#1103,#879,#880);
#745=AXIS2_PLACEMENT_3D('',#1107,#882,#883);
#746=AXIS2_PLACEMENT_3D('',#1109,#885,#886);
#747=AXIS2_PLACEMENT_3D('',#1113,#889,#890);
#748=AXIS2_PLACEMENT_3D('',#1122,#895,#896);
#749=AXIS2_PLACEMENT_3D('',#1128,#900,#901);
#750=AXIS2_PLACEMENT_3D('',#1134,#905,#906);
#751=AXIS2_PLACEMENT_3D('',#1137,#909,#910);
#752=AXIS2_PLACEMENT_3D('',#1138,#911,#912);
#753=AXIS2_PLACEMENT_3D('',#1147,#917,#918);
#754=AXIS2_PLACEMENT_3D('',#1151,#920,#921);
#755=AXIS2_PLACEMENT_3D('',#1157,#924,#925);
#756=AXIS2_PLACEMENT_3D('',#1158,#926,#927);
#757=AXIS2_PLACEMENT_3D('',#1159,#928,#929);
#758=AXIS2_PLACEMENT_3D('',#1163,#931,#932);
#759=AXIS2_PLACEMENT_3D('',#1166,#934,#935);
#760=AXIS2_PLACEMENT_3D('',#1167,#936,#937);
#761=AXIS2_PLACEMENT_3D('',#1172,#941,#942);
#762=AXIS2_PLACEMENT_3D('',#1175,#944,#945);
#763=AXIS2_PLACEMENT_3D('',#1176,#946,#947);
#764=AXIS2_PLACEMENT_3D('',#1182,#951,#952);
#765=AXIS2_PLACEMENT_3D('',#1185,#954,#955);
#766=AXIS2_PLACEMENT_3D('',#1186,#956,#957);
#767=AXIS2_PLACEMENT_3D('',#1188,#959,#960);
#768=AXIS2_PLACEMENT_3D('',#1189,#961,#962);
#769=AXIS2_PLACEMENT_3D('',#1191,#964,#965);
#770=AXIS2_PLACEMENT_3D('',#1202,#967,#968);
#771=AXIS2_PLACEMENT_3D('',#1204,#969,#970);
#772=AXIS2_PLACEMENT_3D('',#1205,#971,#972);
#773=AXIS2_PLACEMENT_3D('',#1206,#973,#974);
#774=AXIS2_PLACEMENT_3D('',#1208,#975,#976);
#775=AXIS2_PLACEMENT_3D('',#1210,#978,#979);
#776=AXIS2_PLACEMENT_3D('',#1211,#980,#981);
#777=AXIS2_PLACEMENT_3D('',#1212,#982,#983);
#778=AXIS2_PLACEMENT_3D('',#1213,#984,#985);
#779=AXIS2_PLACEMENT_3D('',#1214,#986,#987);
#780=AXIS2_PLACEMENT_3D('',#1215,#988,#989);
#781=AXIS2_PLACEMENT_3D('',#1216,#990,#991);
#782=AXIS2_PLACEMENT_3D('',#1218,#993,#994);
#783=DIRECTION('axis',(0.,0.,1.));
#784=DIRECTION('refdir',(1.,0.,0.));
#785=DIRECTION('center_axis',(0.,1.11022302462516E-16,-1.));
#786=DIRECTION('ref_axis',(0.70710678118656,-0.707106781186535,0.));
#787=DIRECTION('center_axis',(2.47487215906024E-16,0.,1.));
#788=DIRECTION('ref_axis',(0.70710678118656,-0.707106781186535,0.));
#789=DIRECTION('',(0.,-1.11022302462516E-16,1.));
#790=DIRECTION('center_axis',(1.11022302462516E-15,0.,-1.));
#791=DIRECTION('ref_axis',(1.,0.,1.11022302462516E-15));
#792=DIRECTION('',(0.,1.11022302462516E-16,-1.));
#793=DIRECTION('center_axis',(0.,-1.,0.));
#794=DIRECTION('ref_axis',(1.77635683940025E-14,0.,1.));
#795=DIRECTION('center_axis',(0.,-1.11022302462516E-16,1.));
#796=DIRECTION('ref_axis',(-0.258819045102523,-0.965925826289068,-1.38777878078148E-16));
#797=DIRECTION('center_axis',(-1.,0.,0.));
#798=DIRECTION('ref_axis',(0.,-1.,0.));
#799=DIRECTION('center_axis',(0.,1.11022302462516E-16,-1.));
#800=DIRECTION('ref_axis',(-0.258819045102523,-0.965925826289068,-1.0723930924262E-16));
#801=DIRECTION('center_axis',(1.,0.,0.));
#802=DIRECTION('ref_axis',(0.,-0.707106781186527,0.707106781186568));
#803=DIRECTION('center_axis',(-1.,0.,0.));
#804=DIRECTION('ref_axis',(0.,-1.,0.));
#805=DIRECTION('',(-1.,0.,0.));
#806=DIRECTION('',(1.,0.,0.));
#807=DIRECTION('center_axis',(0.,1.11022302462516E-16,-1.));
#808=DIRECTION('ref_axis',(-1.,0.,0.));
#809=DIRECTION('center_axis',(0.,1.,0.));
#810=DIRECTION('ref_axis',(-1.,0.,0.));
#811=DIRECTION('center_axis',(0.,-1.11022302462516E-16,1.));
#812=DIRECTION('ref_axis',(0.707106781186548,0.707106781186548,7.85046229341888E-17));
#813=DIRECTION('center_axis',(0.,1.11022302462516E-16,-1.));
#814=DIRECTION('ref_axis',(0.707106781186548,0.707106781186548,8.67361737988405E-17));
#815=DIRECTION('center_axis',(0.,-1.,-1.11022302462516E-16));
#816=DIRECTION('ref_axis',(-0.70710678118654,0.,0.707106781186555));
#817=DIRECTION('center_axis',(0.,1.,0.));
#818=DIRECTION('ref_axis',(-1.,0.,0.));
#819=DIRECTION('',(0.,1.,1.11022302462516E-16));
#820=DIRECTION('',(0.,-1.,-1.11022302462516E-16));
#821=DIRECTION('center_axis',(-1.,0.,0.));
#822=DIRECTION('ref_axis',(0.,-1.,0.));
#823=DIRECTION('center_axis',(0.,1.11022302462516E-16,-1.));
#824=DIRECTION('ref_axis',(-0.707106781186548,-0.707106781186548,-7.85046229341888E-17));
#825=DIRECTION('center_axis',(0.,-1.11022302462516E-16,1.));
#826=DIRECTION('ref_axis',(-0.707106781186548,-0.707106781186548,-6.93889390390724E-17));
#827=DIRECTION('center_axis',(-1.,0.,0.));
#828=DIRECTION('ref_axis',(0.,-0.707106781186527,0.707106781186568));
#829=DIRECTION('center_axis',(-1.,0.,0.));
#830=DIRECTION('ref_axis',(0.,-1.,0.));
#831=DIRECTION('',(-1.,0.,0.));
#832=DIRECTION('',(1.,0.,0.));
#833=DIRECTION('center_axis',(-0.816496580927732,-0.408248290463859,0.408248290463856));
#834=DIRECTION('ref_axis',(0.577350269189616,-0.577350269189644,0.577350269189617));
#835=DIRECTION('center_axis',(0.,-1.,-1.11022302462516E-16));
#836=DIRECTION('ref_axis',(0.707106781186543,0.,0.707106781186552));
#837=DIRECTION('center_axis',(0.,-1.,-1.11022302462516E-16));
#838=DIRECTION('ref_axis',(-1.,0.,0.));
#839=DIRECTION('',(0.,-1.11022302462516E-16,1.));
#840=DIRECTION('',(-1.,0.,0.));
#841=DIRECTION('',(-1.09399367183816E-22,-1.11022302462516E-16,1.));
#842=DIRECTION('',(-1.,-2.74766005399246E-32,2.47487215906024E-16));
#843=DIRECTION('center_axis',(0.,-1.11022302462516E-16,1.));
#844=DIRECTION('ref_axis',(-0.707106781186541,-0.707106781186554,0.));
#845=DIRECTION('',(0.,1.11022302462516E-16,-1.));
#846=DIRECTION('center_axis',(0.,0.,1.));
#847=DIRECTION('ref_axis',(-0.707106781186541,-0.707106781186554,0.));
#848=DIRECTION('center_axis',(1.,0.,0.));
#849=DIRECTION('ref_axis',(0.,0.,-1.));
#850=DIRECTION('',(0.,0.,1.));
#851=DIRECTION('',(0.,1.,0.));
#852=DIRECTION('center_axis',(0.,0.,1.));
#853=DIRECTION('ref_axis',(0.707106781186555,0.70710678118654,0.));
#854=DIRECTION('',(0.,0.,-1.));
#855=DIRECTION('center_axis',(0.,0.,-1.));
#856=DIRECTION('ref_axis',(0.707106781186555,0.70710678118654,0.));
#857=DIRECTION('center_axis',(0.,1.,0.));
#858=DIRECTION('ref_axis',(0.,0.,1.));
#859=DIRECTION('',(0.,0.,1.));
#860=DIRECTION('',(-1.,0.,0.));
#861=DIRECTION('center_axis',(0.,0.,1.));
#862=DIRECTION('ref_axis',(-0.707106781186541,-0.707106781186554,0.));
#863=DIRECTION('',(0.,0.,-1.));
#864=DIRECTION('center_axis',(0.,0.,1.));
#865=DIRECTION('ref_axis',(-0.707106781186541,-0.707106781186554,0.));
#866=DIRECTION('center_axis',(0.,1.,1.11022302462516E-16));
#867=DIRECTION('ref_axis',(-0.707106781186552,0.,0.707106781186543));
#868=DIRECTION('',(0.,1.,1.11022302462516E-16));
#869=DIRECTION('center_axis',(0.,1.,1.11022302462516E-16));
#870=DIRECTION('ref_axis',(-0.707106781186549,0.,0.707106781186546));
#871=DIRECTION('',(0.,-1.,-1.11022302462516E-16));
#872=DIRECTION('center_axis',(0.,0.,1.));
#873=DIRECTION('ref_axis',(1.,0.,0.));
#874=DIRECTION('',(0.,1.,0.));
#875=DIRECTION('',(-0.999999999037088,4.38842104840539E-5,0.));
#876=DIRECTION('center_axis',(0.,0.,1.));
#877=DIRECTION('ref_axis',(0.00701244094289417,0.999975412533739,0.));
#878=DIRECTION('',(9.85381898566721E-7,0.999999999999514,0.));
#879=DIRECTION('center_axis',(0.,1.,1.11022302462516E-16));
#880=DIRECTION('ref_axis',(0.70710678118654,0.,0.707106781186555));
#881=DIRECTION('',(0.,1.,1.11022302462516E-16));
#882=DIRECTION('center_axis',(0.,1.,0.));
#883=DIRECTION('ref_axis',(1.77635683940025E-14,0.,1.));
#884=DIRECTION('',(0.,1.,1.11022302462516E-16));
#885=DIRECTION('center_axis',(1.,0.,0.));
#886=DIRECTION('ref_axis',(0.,1.,1.11022302462516E-16));
#887=DIRECTION('',(0.,1.,0.));
#888=DIRECTION('',(0.,1.11022302462516E-16,-1.));
#889=DIRECTION('center_axis',(0.,0.,-1.));
#890=DIRECTION('ref_axis',(1.,0.,0.));
#891=DIRECTION('',(-1.,0.,0.));
#892=DIRECTION('',(0.,1.,0.));
#893=DIRECTION('',(1.,0.,0.));
#894=DIRECTION('',(0.,-1.,0.));
#895=DIRECTION('center_axis',(-1.,0.,0.));
#896=DIRECTION('ref_axis',(0.,0.,-1.));
#897=DIRECTION('',(0.,0.,1.));
#898=DIRECTION('',(0.,0.,1.));
#899=DIRECTION('',(0.,1.,0.));
#900=DIRECTION('center_axis',(0.,0.,1.));
#901=DIRECTION('ref_axis',(-1.,0.,0.));
#902=DIRECTION('',(1.,0.,0.));
#903=DIRECTION('',(-1.,0.,0.));
#904=DIRECTION('',(0.,-1.,0.));
#905=DIRECTION('center_axis',(1.,0.,0.));
#906=DIRECTION('ref_axis',(0.,0.,1.));
#907=DIRECTION('',(0.,0.,-1.));
#908=DIRECTION('',(0.,0.,-1.));
#909=DIRECTION('center_axis',(0.,-1.,0.));
#910=DIRECTION('ref_axis',(0.,0.,-1.));
#911=DIRECTION('center_axis',(1.,0.,0.));
#912=DIRECTION('ref_axis',(0.,1.,0.));
#913=DIRECTION('',(0.,-1.11022302462516E-16,1.));
#914=DIRECTION('',(0.,-1.,-1.11022302462516E-16));
#915=DIRECTION('',(0.,0.,-1.));
#916=DIRECTION('',(0.,1.,1.11022302462516E-16));
#917=DIRECTION('center_axis',(0.,1.11022302462516E-16,-1.));
#918=DIRECTION('ref_axis',(-1.,0.,0.));
#919=DIRECTION('',(-1.,0.,0.));
#920=DIRECTION('center_axis',(0.,0.,-1.));
#921=DIRECTION('ref_axis',(0.00701244094289417,0.999975412533739,0.));
#922=DIRECTION('',(0.999999999037088,-4.38842104840539E-5,0.));
#923=DIRECTION('',(0.,1.,1.11022302462516E-16));
#924=DIRECTION('center_axis',(0.,1.11022302462516E-16,-1.));
#925=DIRECTION('ref_axis',(-0.999947877779622,0.0102098836443495,0.));
#926=DIRECTION('center_axis',(0.,1.11022302462516E-16,-1.));
#927=DIRECTION('ref_axis',(-0.707106781186516,0.707106781186579,0.));
#928=DIRECTION('center_axis',(0.,1.11022302462516E-16,-1.));
#929=DIRECTION('ref_axis',(-1.,0.,0.));
#930=DIRECTION('',(1.,0.,0.));
#931=DIRECTION('center_axis',(0.,-1.11022302462516E-16,1.));
#932=DIRECTION('ref_axis',(-0.707106781186516,0.707106781186579,0.));
#933=DIRECTION('',(-1.,0.,0.));
#934=DIRECTION('center_axis',(0.,-1.11022302462516E-16,1.));
#935=DIRECTION('ref_axis',(0.707106781186547,0.707106781186547,0.));
#936=DIRECTION('center_axis',(0.,-1.,0.));
#937=DIRECTION('ref_axis',(-1.,0.,0.));
#938=DIRECTION('',(0.,1.11022302462516E-16,-1.));
#939=DIRECTION('',(1.,0.,-2.47487215906024E-16));
#940=DIRECTION('',(0.,0.,-1.));
#941=DIRECTION('center_axis',(2.47487215906024E-16,0.,1.));
#942=DIRECTION('ref_axis',(1.,0.,-2.47487215906024E-16));
#943=DIRECTION('',(-9.85381898566721E-7,-0.999999999999514,2.43869422680471E-22));
#944=DIRECTION('center_axis',(-2.47487215906024E-16,0.,-1.));
#945=DIRECTION('ref_axis',(0.00701244094289417,0.999975412533739,0.));
#946=DIRECTION('center_axis',(0.,1.,1.11022302462516E-16));
#947=DIRECTION('ref_axis',(-1.,0.,0.));
#948=DIRECTION('',(0.,1.11022302462516E-16,-1.));
#949=DIRECTION('',(-1.,0.,0.));
#950=DIRECTION('',(0.,-1.11022302462516E-16,1.));
#951=DIRECTION('center_axis',(0.,-1.11022302462516E-16,1.));
#952=DIRECTION('ref_axis',(-0.707106781186516,0.707106781186579,0.));
#953=DIRECTION('',(0.,1.11022302462516E-16,-1.));
#954=DIRECTION('center_axis',(0.,-1.11022302462516E-16,1.));
#955=DIRECTION('ref_axis',(-0.258760913385751,0.965941400760818,1.38777878078144E-16));
#956=DIRECTION('center_axis',(0.,-1.11022302462516E-16,1.));
#957=DIRECTION('ref_axis',(-0.999947877779622,0.0102098836443495,0.));
#958=DIRECTION('',(0.,-1.11022302462516E-16,1.));
#959=DIRECTION('center_axis',(1.11022302462516E-15,5.43615117666804E-14,
-1.));
#960=DIRECTION('ref_axis',(-1.,0.,-1.11022302462516E-15));
#961=DIRECTION('center_axis',(-1.,0.,0.));
#962=DIRECTION('ref_axis',(0.,-1.,-1.11022302462516E-16));
#963=DIRECTION('',(0.,0.,-1.));
#964=DIRECTION('center_axis',(4.38842104840539E-5,0.999999999037088,0.));
#965=DIRECTION('ref_axis',(0.999999999037088,-4.38842104840539E-5,0.));
#966=DIRECTION('',(0.,0.,1.));
#967=DIRECTION('center_axis',(0.0204187029647329,0.999791516551945,0.));
#968=DIRECTION('ref_axis',(-0.999791516551945,0.0204187029647329,0.));
#969=DIRECTION('center_axis',(0.,1.11022302462516E-16,-1.));
#970=DIRECTION('ref_axis',(-0.258760913385751,0.965941400760818,1.07241038356334E-16));
#971=DIRECTION('center_axis',(-1.,0.,0.));
#972=DIRECTION('ref_axis',(0.,0.,1.));
#973=DIRECTION('center_axis',(1.,0.,0.));
#974=DIRECTION('ref_axis',(0.,0.707106781186528,0.707106781186567));
#975=DIRECTION('center_axis',(-1.,0.,0.));
#976=DIRECTION('ref_axis',(0.,0.,1.));
#977=DIRECTION('',(1.,0.,0.));
#978=DIRECTION('center_axis',(0.,-1.11022302462516E-16,1.));
#979=DIRECTION('ref_axis',(1.,0.,0.));
#980=DIRECTION('center_axis',(0.,-1.11022302462516E-16,1.));
#981=DIRECTION('ref_axis',(0.586408603313457,0.810015401063437,9.02056207507939E-17));
#982=DIRECTION('center_axis',(0.,1.11022302462516E-16,-1.));
#983=DIRECTION('ref_axis',(0.586408603313457,0.810015401063437,8.99297748561608E-17));
#984=DIRECTION('center_axis',(-0.44720893325524,0.00456618917309016,-0.894417866510473));
#985=DIRECTION('ref_axis',(-0.894371247465326,0.00913190234632563,0.44723224399282));
#986=DIRECTION('center_axis',(0.,-1.11022302462516E-16,1.));
#987=DIRECTION('ref_axis',(0.707106781186547,0.707106781186547,0.));
#988=DIRECTION('center_axis',(0.,-1.11022302462516E-16,1.));
#989=DIRECTION('ref_axis',(1.,0.,0.));
#990=DIRECTION('center_axis',(0.,0.,-1.));
#991=DIRECTION('ref_axis',(0.00701244094289417,0.999975412533739,0.));
#992=DIRECTION('',(0.,0.,1.));
#993=DIRECTION('center_axis',(0.999999999999515,-9.85381898566722E-7,0.));
#994=DIRECTION('ref_axis',(-9.85381898566722E-7,-0.999999999999515,0.));
#995=CARTESIAN_POINT('',(0.,0.,0.));
#996=CARTESIAN_POINT('Origin',(57.5000968516195,208.502533156322,-3.00000000000001));
#997=CARTESIAN_POINT('',(57.5000968516195,208.002533156322,0.499999999999972));
#998=CARTESIAN_POINT('',(58.0000968516195,208.502533156322,0.499999999999972));
#999=CARTESIAN_POINT('Origin',(57.5000968516195,208.502533156322,0.499999999999998));
#1000=CARTESIAN_POINT('',(58.0000968516195,208.502533156322,3.5));
#1001=CARTESIAN_POINT('',(58.0000968516195,208.502533156322,-3.00000000000001));
#1002=CARTESIAN_POINT('',(57.5000968516195,208.002533156322,3.5));
#1003=CARTESIAN_POINT('Origin',(57.5000968516195,208.502533156322,3.5));
#1004=CARTESIAN_POINT('',(57.5000968516195,208.002533156322,-3.00000000000001));
#1005=CARTESIAN_POINT('Ctrl Pts',(44.0000968516195,218.002533156322,3.5));
#1006=CARTESIAN_POINT('Ctrl Pts',(44.0000968516195,217.002533156323,3.5));
#1007=CARTESIAN_POINT('Ctrl Pts',(45.0000968516195,217.002533156323,3.5));
#1008=CARTESIAN_POINT('Ctrl Pts',(44.0000968516195,218.002533156322,4.00000000000001));
#1009=CARTESIAN_POINT('Ctrl Pts',(44.0000968516195,217.002533156323,4.00000000000001));
#1010=CARTESIAN_POINT('Ctrl Pts',(45.0000968516195,217.002533156323,4.00000000000001));
#1011=CARTESIAN_POINT('Ctrl Pts',(44.5000968516195,218.002533156322,4.));
#1012=CARTESIAN_POINT('Ctrl Pts',(44.5000968516195,217.502533156323,4.));
#1013=CARTESIAN_POINT('Ctrl Pts',(45.0000968516195,217.502533156322,4.));
#1014=CARTESIAN_POINT('',(44.5000968516195,218.002533156322,3.99999999999999));
#1015=CARTESIAN_POINT('',(44.0000968516195,218.002533156322,3.5));
#1016=CARTESIAN_POINT('Origin',(44.5000968516195,218.002533156322,3.5));
#1017=CARTESIAN_POINT('',(45.0000968516195,217.002533156322,3.5));
#1018=CARTESIAN_POINT('Origin',(45.0000968516195,218.002533156322,3.5));
#1019=CARTESIAN_POINT('',(45.0000968516195,217.502533156322,3.99999999999999));
#1020=CARTESIAN_POINT('Origin',(45.0000968516195,217.502533156322,3.5));
#1021=CARTESIAN_POINT('Origin',(45.0000968516195,218.002533156322,3.99999999999999));
#1022=CARTESIAN_POINT('Origin',(43.7500968516195,217.502533156322,3.5));
#1023=CARTESIAN_POINT('',(48.0000968516195,217.002533156322,3.5));
#1024=CARTESIAN_POINT('',(48.0000968516195,217.502533156322,3.99999999999999));
#1025=CARTESIAN_POINT('Origin',(48.0000968516195,217.502533156322,3.5));
#1026=CARTESIAN_POINT('',(43.7500968516195,217.502533156322,3.99999999999999));
#1027=CARTESIAN_POINT('',(43.7500968516195,217.002533156322,3.5));
#1028=CARTESIAN_POINT('Origin',(48.0000968516195,213.002533156323,3.5));
#1029=CARTESIAN_POINT('',(52.0000968516195,213.002533156323,3.5));
#1030=CARTESIAN_POINT('',(52.5000968516195,213.002533156323,3.99999999999999));
#1031=CARTESIAN_POINT('Origin',(52.5000968516195,213.002533156323,3.5));
#1032=CARTESIAN_POINT('Origin',(48.0000968516195,213.002533156323,3.99999999999999));
#1033=CARTESIAN_POINT('Origin',(48.0000968516195,213.002533156323,3.5));
#1034=CARTESIAN_POINT('Origin',(52.5000968516195,211.752533156322,3.5));
#1035=CARTESIAN_POINT('',(52.0000968516195,209.002533156323,3.5));
#1036=CARTESIAN_POINT('',(52.5000968516195,209.002533156323,3.99999999999999));
#1037=CARTESIAN_POINT('Origin',(52.5000968516195,209.002533156323,3.5));
#1038=CARTESIAN_POINT('',(52.5000968516195,211.752533156322,3.99999999999999));
#1039=CARTESIAN_POINT('',(52.0000968516195,211.752533156322,3.5));
#1040=CARTESIAN_POINT('Ctrl Pts',(53.0000968516195,208.502533156323,4.));
#1041=CARTESIAN_POINT('Ctrl Pts',(52.5000968516195,208.502533156323,4.));
#1042=CARTESIAN_POINT('Ctrl Pts',(52.5000968516195,209.002533156323,4.));
#1043=CARTESIAN_POINT('Ctrl Pts',(53.0000968516195,208.002533156323,4.00000000000002));
#1044=CARTESIAN_POINT('Ctrl Pts',(52.0000968516195,208.002533156323,4.00000000000002));
#1045=CARTESIAN_POINT('Ctrl Pts',(52.0000968516195,209.002533156323,4.00000000000002));
#1046=CARTESIAN_POINT('Ctrl Pts',(53.0000968516195,208.002533156323,3.5));
#1047=CARTESIAN_POINT('Ctrl Pts',(52.0000968516195,208.002533156323,3.5));
#1048=CARTESIAN_POINT('Ctrl Pts',(52.0000968516195,209.002533156323,3.5));
#1049=CARTESIAN_POINT('',(53.0000968516195,208.002533156322,3.5));
#1050=CARTESIAN_POINT('',(53.0000968516195,208.502533156323,3.99999999999999));
#1051=CARTESIAN_POINT('Origin',(53.0000968516195,208.502533156323,3.5));
#1052=CARTESIAN_POINT('Origin',(53.0000968516195,209.002533156323,3.99999999999999));
#1053=CARTESIAN_POINT('Origin',(53.0000968516195,209.002533156323,3.5));
#1054=CARTESIAN_POINT('Origin',(51.2500968516195,208.502533156322,3.5));
#1055=CARTESIAN_POINT('',(57.5000968516195,208.502533156322,3.99999999999999));
#1056=CARTESIAN_POINT('Origin',(57.5000968516195,208.502533156322,3.5));
#1057=CARTESIAN_POINT('',(51.2500968516195,208.502533156322,3.99999999999999));
#1058=CARTESIAN_POINT('',(51.2500968516195,208.002533156322,3.5));
#1059=CARTESIAN_POINT('Origin',(57.5000968516195,208.502533156322,3.5));
#1060=CARTESIAN_POINT('Origin',(57.5000968516195,208.502533156322,3.5));
#1061=CARTESIAN_POINT('Origin',(55.0000968516195,208.002533156322,-8.88178419700125E-15));
#1062=CARTESIAN_POINT('',(53.0000968516195,208.002533156322,1.36499999999998));
#1063=CARTESIAN_POINT('',(53.0000968516195,208.002533156322,1.34124999999999));
#1064=CARTESIAN_POINT('',(55.0001975682776,208.002533156322,1.36499999999998));
#1065=CARTESIAN_POINT('',(-7.49995157419025,208.002533156322,1.36499999999998));
#1066=CARTESIAN_POINT('',(55.0001975682776,208.002533156322,0.499999999999972));
#1067=CARTESIAN_POINT('',(55.0001975682776,208.002533156322,-8.88178419700125E-15));
#1068=CARTESIAN_POINT('',(-8.49990314838051,208.002533156322,0.49999999999998));
#1069=CARTESIAN_POINT('Origin',(53.0000968516195,209.002533156323,1.34124999999999));
#1070=CARTESIAN_POINT('',(52.0000968516195,209.002533156323,1.36499999999998));
#1071=CARTESIAN_POINT('',(52.0000968516195,209.002533156323,1.34124999999999));
#1072=CARTESIAN_POINT('Origin',(53.0000968516195,209.002533156323,1.36499999999998));
#1073=CARTESIAN_POINT('Origin',(52.0000968516195,211.002533156322,2.68249999999999));
#1074=CARTESIAN_POINT('',(52.0000968516195,213.002533156323,1.36499999999998));
#1075=CARTESIAN_POINT('',(52.0000968516195,213.002533156323,2.02374999999998));
#1076=CARTESIAN_POINT('',(52.0000968516195,223.001266578161,1.36499999999998));
#1077=CARTESIAN_POINT('Origin',(48.0000968516195,213.002533156323,2.02374999999998));
#1078=CARTESIAN_POINT('',(48.0000968516195,217.002533156323,1.36499999999998));
#1079=CARTESIAN_POINT('',(48.0000968516195,217.002533156322,2.02374999999998));
#1080=CARTESIAN_POINT('Origin',(48.0000968516195,213.002533156323,1.36499999999998));
#1081=CARTESIAN_POINT('Origin',(40.0000968516195,217.002533156322,1.36499999999998));
#1082=CARTESIAN_POINT('',(45.0000968516195,217.002533156323,1.36499999999998));
#1083=CARTESIAN_POINT('',(45.0000968516195,217.002533156322,0.68249999999999));
#1084=CARTESIAN_POINT('',(-14.9999515741903,217.002533156323,1.36499999999998));
#1085=CARTESIAN_POINT('Origin',(45.0000968516195,218.002533156322,0.68249999999999));
#1086=CARTESIAN_POINT('',(44.0000968516195,218.002533156322,1.36499999999998));
#1087=CARTESIAN_POINT('',(44.0000968516195,218.002533156322,0.68249999999999));
#1088=CARTESIAN_POINT('Origin',(45.0000968516195,218.002533156322,1.36499999999998));
#1089=CARTESIAN_POINT('Origin',(44.5000968516195,216.252533156322,3.5));
#1090=CARTESIAN_POINT('',(44.5000968516195,222.012742507805,3.99999999999999));
#1091=CARTESIAN_POINT('',(44.5000968516195,216.252533156322,3.99999999999999));
#1092=CARTESIAN_POINT('',(44.0000968516195,222.012742507805,3.5));
#1093=CARTESIAN_POINT('Origin',(44.5000968516195,222.012742507805,3.5));
#1094=CARTESIAN_POINT('',(44.0000968516195,216.252533156322,3.5));
#1095=CARTESIAN_POINT('Origin',(-70.,235.,1.36499999999998));
#1096=CARTESIAN_POINT('',(44.0000968516195,220.000153590487,1.36499999999998));
#1097=CARTESIAN_POINT('',(44.0000968516195,227.501266578161,1.36499999999998));
#1098=CARTESIAN_POINT('',(47.5,220.,1.36499999999998));
#1099=CARTESIAN_POINT('',(-58.7503290184361,220.004662711807,1.36499999999998));
#1100=CARTESIAN_POINT('',(55.000202,212.5,1.36499999999998));
#1101=CARTESIAN_POINT('Origin',(47.44703253282,212.44682910351,1.36499999999998));
#1102=CARTESIAN_POINT('',(55.0002130854857,223.749938413521,1.36499999999998));
#1103=CARTESIAN_POINT('Origin',(57.5000968516195,208.752533156322,3.5));
#1104=CARTESIAN_POINT('',(58.0000968516195,213.002533156322,3.5));
#1105=CARTESIAN_POINT('',(58.0000968516195,208.752533156322,3.5));
#1106=CARTESIAN_POINT('',(57.5000968516195,213.002533156322,3.99999999999999));
#1107=CARTESIAN_POINT('Origin',(57.5000968516195,213.002533156322,3.5));
#1108=CARTESIAN_POINT('',(57.5000968516195,208.752533156322,3.99999999999999));
#1109=CARTESIAN_POINT('Origin',(58.0000968516195,205.002533156322,-6.00000000000001));
#1110=CARTESIAN_POINT('',(58.0000968516195,213.002533156322,0.499999999999972));
#1111=CARTESIAN_POINT('',(58.0000968516195,214.002533156322,0.499999999999972));
#1112=CARTESIAN_POINT('',(58.0000968516195,213.002533156322,-6.00000000000001));
#1113=CARTESIAN_POINT('Origin',(46.0000447307575,213.002533156322,-3.75000000000002));
#1114=CARTESIAN_POINT('',(55.8000447307575,213.002533156322,-3.75000000000002));
#1115=CARTESIAN_POINT('',(46.2000447307575,213.002533156322,-3.75000000000002));
#1116=CARTESIAN_POINT('',(52.0000707911885,213.002533156322,-3.75000000000002));
#1117=CARTESIAN_POINT('',(55.8000447307575,208.302533156323,-3.75000000000002));
#1118=CARTESIAN_POINT('',(55.8000447307575,213.002533156322,-3.75000000000002));
#1119=CARTESIAN_POINT('',(46.2000447307575,208.302533156323,-3.75000000000002));
#1120=CARTESIAN_POINT('',(46.0000447307575,208.302533156323,-3.75000000000002));
#1121=CARTESIAN_POINT('',(46.2000447307575,213.002533156322,-3.75000000000002));
#1122=CARTESIAN_POINT('Origin',(46.2000447307575,213.002533156322,-1.75000000000002));
#1123=CARTESIAN_POINT('',(46.2000447307575,213.002533156322,-1.75000000000002));
#1124=CARTESIAN_POINT('',(46.2000447307575,213.002533156322,-3.87500000000002));
#1125=CARTESIAN_POINT('',(46.2000447307575,208.302533156323,-1.75000000000002));
#1126=CARTESIAN_POINT('',(46.2000447307575,208.302533156323,-2.25000000000002));
#1127=CARTESIAN_POINT('',(46.2000447307575,213.002533156322,-1.75000000000002));
#1128=CARTESIAN_POINT('Origin',(56.0000447307575,213.002533156322,-1.75000000000002));
#1129=CARTESIAN_POINT('',(55.8000447307575,213.002533156322,-1.75000000000002));
#1130=CARTESIAN_POINT('',(57.0000707911885,213.002533156322,-1.75000000000002));
#1131=CARTESIAN_POINT('',(55.8000447307575,208.302533156323,-1.75000000000002));
#1132=CARTESIAN_POINT('',(56.0000447307575,208.302533156323,-1.75000000000002));
#1133=CARTESIAN_POINT('',(55.8000447307575,213.002533156322,-1.75000000000002));
#1134=CARTESIAN_POINT('Origin',(55.8000447307575,213.002533156322,-3.75000000000002));
#1135=CARTESIAN_POINT('',(55.8000447307575,213.002533156322,-4.87500000000002));
#1136=CARTESIAN_POINT('',(55.8000447307575,208.302533156323,-3.25000000000002));
#1137=CARTESIAN_POINT('Origin',(51.0000447307575,208.302533156323,-2.75000000000002));
#1138=CARTESIAN_POINT('Origin',(43.9999926098955,220.004498131585,-6.00000000000001));
#1139=CARTESIAN_POINT('',(43.9999926098955,222.002533156322,-6.00000000000001));
#1140=CARTESIAN_POINT('',(43.9999926098955,222.002533156322,0.));
#1141=CARTESIAN_POINT('',(43.9999926098955,222.002533156322,-6.00000000000001));
#1142=CARTESIAN_POINT('',(43.9999926098955,213.002533156322,-6.00000000000001));
#1143=CARTESIAN_POINT('',(43.9999926098955,110.252084853581,-6.00000000000001));
#1144=CARTESIAN_POINT('',(43.9999926098955,213.002533156322,0.));
#1145=CARTESIAN_POINT('',(43.9999926098955,213.002533156322,-6.00000000000001));
#1146=CARTESIAN_POINT('',(43.9999926098955,110.252084853581,-1.77635683940025E-14));
#1147=CARTESIAN_POINT('Origin',(-47.499895758276,7.50163655083897,-2.66453525910038E-14));
#1148=CARTESIAN_POINT('',(54.9799197050702,213.002533156322,-1.77635683940025E-14));
#1149=CARTESIAN_POINT('',(5.25010054667176,213.002533156322,0.));
#1150=CARTESIAN_POINT('',(47.5,220.,-1.77635683940025E-14));
#1151=CARTESIAN_POINT('Origin',(47.44703253282,212.44682910351,-1.77635683940025E-14));
#1152=CARTESIAN_POINT('',(44.0000968516195,220.000153590487,-1.77635683940025E-14));
#1153=CARTESIAN_POINT('',(-47.5,220.004169,-1.77635683940025E-14));
#1154=CARTESIAN_POINT('',(44.0000968516195,222.012742507805,0.));
#1155=CARTESIAN_POINT('',(44.0000968516195,113.752084853581,-1.77635683940025E-14));
#1156=CARTESIAN_POINT('',(44.0002010933435,222.022951859288,0.));
#1157=CARTESIAN_POINT('Origin',(44.5000968516195,222.012742507805,0.));
#1158=CARTESIAN_POINT('Origin',(44.9999926098955,222.002533156322,0.));
#1159=CARTESIAN_POINT('Origin',(-47.499895758276,7.50163655083897,-6.00000000000003));
#1160=CARTESIAN_POINT('',(58.0000968516195,213.002533156322,-6.00000000000001));
#1161=CARTESIAN_POINT('',(5.25010054667176,213.002533156322,-6.00000000000001));
#1162=CARTESIAN_POINT('',(44.9999926098955,223.002533156322,-6.));
#1163=CARTESIAN_POINT('Origin',(44.9999926098955,222.002533156322,-6.00000000000001));
#1164=CARTESIAN_POINT('',(48.0000968516195,223.002533156322,-6.));
#1165=CARTESIAN_POINT('',(58.0000968516195,223.002533156322,-6.));
#1166=CARTESIAN_POINT('Origin',(48.0000968516195,213.002533156322,-6.00000000000001));
#1167=CARTESIAN_POINT('Origin',(58.0000968516195,213.002533156322,-6.00000000000001));
#1168=CARTESIAN_POINT('',(58.0000968516195,213.002533156322,-6.00000000000001));
#1169=CARTESIAN_POINT('',(54.9799197050702,213.002533156322,0.499999999999998));
#1170=CARTESIAN_POINT('',(-6.99990314838051,213.002533156322,0.49999999999998));
#1171=CARTESIAN_POINT('',(54.9799197050702,213.002533156322,-1.77635683940025E-14));
#1172=CARTESIAN_POINT('Origin',(-71.9999031483805,223.002533156322,0.499999999999998));
#1173=CARTESIAN_POINT('',(55.000202,212.5,0.499999999999972));
#1174=CARTESIAN_POINT('',(55.0002071744414,217.751204006354,0.499999999999972));
#1175=CARTESIAN_POINT('Origin',(47.44703253282,212.44682910351,0.499999999999998));
#1176=CARTESIAN_POINT('Origin',(58.0000968516195,223.002533156322,-6.));
#1177=CARTESIAN_POINT('',(44.9999926098955,223.002533156322,3.5));
#1178=CARTESIAN_POINT('',(44.9999926098955,223.002533156322,-6.00000000000001));
#1179=CARTESIAN_POINT('',(48.0000968516195,223.002533156322,3.5));
#1180=CARTESIAN_POINT('',(52.7500968516195,223.002533156322,3.5));
#1181=CARTESIAN_POINT('',(48.0000968516195,223.002533156322,-6.00000000000001));
#1182=CARTESIAN_POINT('Origin',(44.9999926098955,222.002533156322,-6.00000000000001));
#1183=CARTESIAN_POINT('',(44.0002010933435,222.022951859288,3.5));
#1184=CARTESIAN_POINT('',(44.0002010933435,222.022951859288,-6.00000000000001));
#1185=CARTESIAN_POINT('Origin',(44.9999926098955,222.002533156322,3.5));
#1186=CARTESIAN_POINT('Origin',(44.5000968516195,222.012742507805,-6.00000000000001));
#1187=CARTESIAN_POINT('',(44.0000968516195,222.012742507805,-6.00000000000001));
#1188=CARTESIAN_POINT('Origin',(44.5000968516195,222.012742507805,3.5));
#1189=CARTESIAN_POINT('Origin',(44.0000968516195,220.002533156322,-8.88178419700125E-15));
#1190=CARTESIAN_POINT('',(44.0000968516195,220.000153590487,-8.88178419700125E-15));
#1191=CARTESIAN_POINT('Origin',(-47.5,220.004169,-1.77635683940025E-14));
#1192=CARTESIAN_POINT('',(47.5,220.,-1.77635683940025E-14));
#1193=CARTESIAN_POINT('Ctrl Pts',(44.5000968516195,222.012742507805,4.));
#1194=CARTESIAN_POINT('Ctrl Pts',(44.5100998268412,222.502533156322,4.));
#1195=CARTESIAN_POINT('Ctrl Pts',(44.9999926098955,222.502533156322,4.));
#1196=CARTESIAN_POINT('Ctrl Pts',(44.0002010933435,222.022951859287,4.));
#1197=CARTESIAN_POINT('Ctrl Pts',(44.020207043787,223.002533156322,4.));
#1198=CARTESIAN_POINT('Ctrl Pts',(44.9999926098955,223.002533156322,4.));
#1199=CARTESIAN_POINT('Ctrl Pts',(44.0002010933435,222.022951859287,3.5));
#1200=CARTESIAN_POINT('Ctrl Pts',(44.020207043787,223.002533156322,3.5));
#1201=CARTESIAN_POINT('Ctrl Pts',(44.9999926098955,223.002533156322,3.5));
#1202=CARTESIAN_POINT('Origin',(44.5000968516195,222.012742507805,3.5));
#1203=CARTESIAN_POINT('',(44.9999926098955,222.502533156322,3.99999999999999));
#1204=CARTESIAN_POINT('Origin',(44.9999926098955,222.002533156322,3.99999999999999));
#1205=CARTESIAN_POINT('Origin',(44.9999926098955,222.502533156322,3.5));
#1206=CARTESIAN_POINT('Origin',(52.7500968516195,222.502533156322,3.5));
#1207=CARTESIAN_POINT('',(48.0000968516195,222.502533156322,3.99999999999999));
#1208=CARTESIAN_POINT('Origin',(48.0000968516195,222.502533156322,3.5));
#1209=CARTESIAN_POINT('',(52.7500968516195,222.502533156322,3.99999999999999));
#1210=CARTESIAN_POINT('Origin',(48.0000968516195,213.002533156322,3.5));
#1211=CARTESIAN_POINT('Origin',(48.0000968516195,213.002533156322,3.5));
#1212=CARTESIAN_POINT('Origin',(48.0000968516195,213.002533156322,3.99999999999999));
#1213=CARTESIAN_POINT('Origin',(44.5000968516195,222.012742507805,3.5));
#1214=CARTESIAN_POINT('Origin',(48.0000968516195,213.002533156322,-6.00000000000001));
#1215=CARTESIAN_POINT('Origin',(47.5000968516195,212.502533156322,3.99999999999999));
#1216=CARTESIAN_POINT('Origin',(47.44703253282,212.44682910351,-1.77635683940025E-14));
#1217=CARTESIAN_POINT('',(55.000202,212.5,-1.77635683940025E-14));
#1218=CARTESIAN_POINT('Origin',(55.000202,212.5,-1.77635683940025E-14));
#1219=UNCERTAINTY_MEASURE_WITH_UNIT(LENGTH_MEASURE(0.01),#1223,
'DISTANCE_ACCURACY_VALUE',
'Maximum model space distance between geometric entities at asserted c
onnectivities');
#1220=UNCERTAINTY_MEASURE_WITH_UNIT(LENGTH_MEASURE(0.01),#1223,
'DISTANCE_ACCURACY_VALUE',
'Maximum model space distance between geometric entities at asserted c
onnectivities');
#1221=(
GEOMETRIC_REPRESENTATION_CONTEXT(3)
GLOBAL_UNCERTAINTY_ASSIGNED_CONTEXT((#1219))
GLOBAL_UNIT_ASSIGNED_CONTEXT((#1223,#1225,#1226))
REPRESENTATION_CONTEXT('','3D')
);
#1222=(
GEOMETRIC_REPRESENTATION_CONTEXT(3)
GLOBAL_UNCERTAINTY_ASSIGNED_CONTEXT((#1220))
GLOBAL_UNIT_ASSIGNED_CONTEXT((#1223,#1225,#1226))
REPRESENTATION_CONTEXT('','3D')
);
#1223=(
LENGTH_UNIT()
NAMED_UNIT(*)
SI_UNIT(.MILLI.,.METRE.)
);
#1224=(
LENGTH_UNIT()
NAMED_UNIT(*)
SI_UNIT($,.METRE.)
);
#1225=(
NAMED_UNIT(*)
PLANE_ANGLE_UNIT()
SI_UNIT($,.RADIAN.)
);
#1226=(
NAMED_UNIT(*)
SI_UNIT($,.STERADIAN.)
SOLID_ANGLE_UNIT()
);
#1227=SHAPE_DEFINITION_REPRESENTATION(#1228,#1229);
#1228=PRODUCT_DEFINITION_SHAPE('',$,#1231);
#1229=SHAPE_REPRESENTATION('',(#708),#1221);
#1230=PRODUCT_DEFINITION_CONTEXT('part definition',#1235,'design');
#1231=PRODUCT_DEFINITION('FinnishTrainProject',
'FinnishTrainProject v64',#1232,#1230);
#1232=PRODUCT_DEFINITION_FORMATION('',$,#1237);
#1233=PRODUCT_RELATED_PRODUCT_CATEGORY('FinnishTrainProject v64',
'FinnishTrainProject v64',(#1237));
#1234=APPLICATION_PROTOCOL_DEFINITION('international standard',
'automotive_design',2009,#1235);
#1235=APPLICATION_CONTEXT(
'Core Data for Automotive Mechanical Design Process');
#1236=PRODUCT_CONTEXT('part definition',#1235,'mechanical');
#1237=PRODUCT('FinnishTrainProject','FinnishTrainProject v64',$,(#1236));
#1238=PRESENTATION_STYLE_ASSIGNMENT((#1241));
#1239=PRESENTATION_STYLE_ASSIGNMENT((#1242));
#1240=PRESENTATION_STYLE_ASSIGNMENT((#1243));
#1241=SURFACE_STYLE_USAGE(.BOTH.,#1244);
#1242=SURFACE_STYLE_USAGE(.BOTH.,#1245);
#1243=SURFACE_STYLE_USAGE(.BOTH.,#1246);
#1244=SURFACE_SIDE_STYLE('',(#1247));
#1245=SURFACE_SIDE_STYLE('',(#1248));
#1246=SURFACE_SIDE_STYLE('',(#1249));
#1247=SURFACE_STYLE_FILL_AREA(#1250);
#1248=SURFACE_STYLE_FILL_AREA(#1251);
#1249=SURFACE_STYLE_FILL_AREA(#1252);
#1250=FILL_AREA_STYLE('Steel - Satin',(#1253));
#1251=FILL_AREA_STYLE('Opaque(52,52,52)',(#1254));
#1252=FILL_AREA_STYLE('Plastic - Matte (Black)',(#1255));
#1253=FILL_AREA_STYLE_COLOUR('Steel - Satin',#1256);
#1254=FILL_AREA_STYLE_COLOUR('Opaque(52,52,52)',#1257);
#1255=FILL_AREA_STYLE_COLOUR('Plastic - Matte (Black)',#1258);
#1256=COLOUR_RGB('Steel - Satin',0.627450980392157,0.627450980392157,0.627450980392157);
#1257=COLOUR_RGB('Opaque(52,52,52)',0.203921568627451,0.203921568627451,
0.203921568627451);
#1258=COLOUR_RGB('Plastic - Matte (Black)',0.0980392156862745,0.0980392156862745,
0.0980392156862745);
ENDSEC;
END-ISO-10303-21;
