%TF.GenerationSoftware,KiCad,Pcbnew,10.0.2*%
%TF.CreationDate,2026-05-26T15:57:49+03:00*%
%TF.ProjectId,fin-ltm,66696e2d-6c74-46d2-9e6b-696361645f70,rev?*%
%TF.SameCoordinates,Original*%
%TF.FileFunction,Legend,Bot*%
%TF.FilePolarity,Positive*%
%FSLAX46Y46*%
G04 Gerber Fmt 4.6, Leading zero omitted, Abs format (unit mm)*
G04 Created by KiCad (PCBNEW 10.0.2) date 2026-05-26 15:57:49*
%MOMM*%
%LPD*%
G01*
G04 APERTURE LIST*
%ADD10C,0.100000*%
G04 APERTURE END LIST*
D10*
X25661027Y-49457419D02*
X26137217Y-49457419D01*
X26137217Y-49457419D02*
X26184836Y-49933609D01*
X26184836Y-49933609D02*
X26137217Y-49885990D01*
X26137217Y-49885990D02*
X26041979Y-49838371D01*
X26041979Y-49838371D02*
X25803884Y-49838371D01*
X25803884Y-49838371D02*
X25708646Y-49885990D01*
X25708646Y-49885990D02*
X25661027Y-49933609D01*
X25661027Y-49933609D02*
X25613408Y-50028847D01*
X25613408Y-50028847D02*
X25613408Y-50266942D01*
X25613408Y-50266942D02*
X25661027Y-50362180D01*
X25661027Y-50362180D02*
X25708646Y-50409800D01*
X25708646Y-50409800D02*
X25803884Y-50457419D01*
X25803884Y-50457419D02*
X26041979Y-50457419D01*
X26041979Y-50457419D02*
X26137217Y-50409800D01*
X26137217Y-50409800D02*
X26184836Y-50362180D01*
X25327693Y-49457419D02*
X24994360Y-50457419D01*
X24994360Y-50457419D02*
X24661027Y-49457419D01*
X26851503Y-52505038D02*
X26946741Y-52457419D01*
X26946741Y-52457419D02*
X27089598Y-52457419D01*
X27089598Y-52457419D02*
X27232455Y-52505038D01*
X27232455Y-52505038D02*
X27327693Y-52600276D01*
X27327693Y-52600276D02*
X27375312Y-52695514D01*
X27375312Y-52695514D02*
X27422931Y-52885990D01*
X27422931Y-52885990D02*
X27422931Y-53028847D01*
X27422931Y-53028847D02*
X27375312Y-53219323D01*
X27375312Y-53219323D02*
X27327693Y-53314561D01*
X27327693Y-53314561D02*
X27232455Y-53409800D01*
X27232455Y-53409800D02*
X27089598Y-53457419D01*
X27089598Y-53457419D02*
X26994360Y-53457419D01*
X26994360Y-53457419D02*
X26851503Y-53409800D01*
X26851503Y-53409800D02*
X26803884Y-53362180D01*
X26803884Y-53362180D02*
X26803884Y-53028847D01*
X26803884Y-53028847D02*
X26994360Y-53028847D01*
X26375312Y-53457419D02*
X26375312Y-52457419D01*
X26375312Y-52457419D02*
X25803884Y-53457419D01*
X25803884Y-53457419D02*
X25803884Y-52457419D01*
X25327693Y-53457419D02*
X25327693Y-52457419D01*
X25327693Y-52457419D02*
X25089598Y-52457419D01*
X25089598Y-52457419D02*
X24946741Y-52505038D01*
X24946741Y-52505038D02*
X24851503Y-52600276D01*
X24851503Y-52600276D02*
X24803884Y-52695514D01*
X24803884Y-52695514D02*
X24756265Y-52885990D01*
X24756265Y-52885990D02*
X24756265Y-53028847D01*
X24756265Y-53028847D02*
X24803884Y-53219323D01*
X24803884Y-53219323D02*
X24851503Y-53314561D01*
X24851503Y-53314561D02*
X24946741Y-53409800D01*
X24946741Y-53409800D02*
X25089598Y-53457419D01*
X25089598Y-53457419D02*
X25327693Y-53457419D01*
X27851504Y-56457419D02*
X28184837Y-55981228D01*
X28422932Y-56457419D02*
X28422932Y-55457419D01*
X28422932Y-55457419D02*
X28041980Y-55457419D01*
X28041980Y-55457419D02*
X27946742Y-55505038D01*
X27946742Y-55505038D02*
X27899123Y-55552657D01*
X27899123Y-55552657D02*
X27851504Y-55647895D01*
X27851504Y-55647895D02*
X27851504Y-55790752D01*
X27851504Y-55790752D02*
X27899123Y-55885990D01*
X27899123Y-55885990D02*
X27946742Y-55933609D01*
X27946742Y-55933609D02*
X28041980Y-55981228D01*
X28041980Y-55981228D02*
X28422932Y-55981228D01*
X27041980Y-56409800D02*
X27137218Y-56457419D01*
X27137218Y-56457419D02*
X27327694Y-56457419D01*
X27327694Y-56457419D02*
X27422932Y-56409800D01*
X27422932Y-56409800D02*
X27470551Y-56314561D01*
X27470551Y-56314561D02*
X27470551Y-55933609D01*
X27470551Y-55933609D02*
X27422932Y-55838371D01*
X27422932Y-55838371D02*
X27327694Y-55790752D01*
X27327694Y-55790752D02*
X27137218Y-55790752D01*
X27137218Y-55790752D02*
X27041980Y-55838371D01*
X27041980Y-55838371D02*
X26994361Y-55933609D01*
X26994361Y-55933609D02*
X26994361Y-56028847D01*
X26994361Y-56028847D02*
X27470551Y-56124085D01*
X26613408Y-56409800D02*
X26518170Y-56457419D01*
X26518170Y-56457419D02*
X26327694Y-56457419D01*
X26327694Y-56457419D02*
X26232456Y-56409800D01*
X26232456Y-56409800D02*
X26184837Y-56314561D01*
X26184837Y-56314561D02*
X26184837Y-56266942D01*
X26184837Y-56266942D02*
X26232456Y-56171704D01*
X26232456Y-56171704D02*
X26327694Y-56124085D01*
X26327694Y-56124085D02*
X26470551Y-56124085D01*
X26470551Y-56124085D02*
X26565789Y-56076466D01*
X26565789Y-56076466D02*
X26613408Y-55981228D01*
X26613408Y-55981228D02*
X26613408Y-55933609D01*
X26613408Y-55933609D02*
X26565789Y-55838371D01*
X26565789Y-55838371D02*
X26470551Y-55790752D01*
X26470551Y-55790752D02*
X26327694Y-55790752D01*
X26327694Y-55790752D02*
X26232456Y-55838371D01*
X25375313Y-56409800D02*
X25470551Y-56457419D01*
X25470551Y-56457419D02*
X25661027Y-56457419D01*
X25661027Y-56457419D02*
X25756265Y-56409800D01*
X25756265Y-56409800D02*
X25803884Y-56314561D01*
X25803884Y-56314561D02*
X25803884Y-55933609D01*
X25803884Y-55933609D02*
X25756265Y-55838371D01*
X25756265Y-55838371D02*
X25661027Y-55790752D01*
X25661027Y-55790752D02*
X25470551Y-55790752D01*
X25470551Y-55790752D02*
X25375313Y-55838371D01*
X25375313Y-55838371D02*
X25327694Y-55933609D01*
X25327694Y-55933609D02*
X25327694Y-56028847D01*
X25327694Y-56028847D02*
X25803884Y-56124085D01*
X25041979Y-55790752D02*
X24661027Y-55790752D01*
X24899122Y-55457419D02*
X24899122Y-56314561D01*
X24899122Y-56314561D02*
X24851503Y-56409800D01*
X24851503Y-56409800D02*
X24756265Y-56457419D01*
X24756265Y-56457419D02*
X24661027Y-56457419D01*
X25708646Y-59457419D02*
X26041979Y-58981228D01*
X26280074Y-59457419D02*
X26280074Y-58457419D01*
X26280074Y-58457419D02*
X25899122Y-58457419D01*
X25899122Y-58457419D02*
X25803884Y-58505038D01*
X25803884Y-58505038D02*
X25756265Y-58552657D01*
X25756265Y-58552657D02*
X25708646Y-58647895D01*
X25708646Y-58647895D02*
X25708646Y-58790752D01*
X25708646Y-58790752D02*
X25756265Y-58885990D01*
X25756265Y-58885990D02*
X25803884Y-58933609D01*
X25803884Y-58933609D02*
X25899122Y-58981228D01*
X25899122Y-58981228D02*
X26280074Y-58981228D01*
X25375312Y-58457419D02*
X24708646Y-59457419D01*
X24708646Y-58457419D02*
X25375312Y-59457419D01*
X26184836Y-61457419D02*
X25613408Y-61457419D01*
X25899122Y-62457419D02*
X25899122Y-61457419D01*
X25375312Y-61457419D02*
X24708646Y-62457419D01*
X24708646Y-61457419D02*
X25375312Y-62457419D01*
X26851503Y-64505038D02*
X26946741Y-64457419D01*
X26946741Y-64457419D02*
X27089598Y-64457419D01*
X27089598Y-64457419D02*
X27232455Y-64505038D01*
X27232455Y-64505038D02*
X27327693Y-64600276D01*
X27327693Y-64600276D02*
X27375312Y-64695514D01*
X27375312Y-64695514D02*
X27422931Y-64885990D01*
X27422931Y-64885990D02*
X27422931Y-65028847D01*
X27422931Y-65028847D02*
X27375312Y-65219323D01*
X27375312Y-65219323D02*
X27327693Y-65314561D01*
X27327693Y-65314561D02*
X27232455Y-65409800D01*
X27232455Y-65409800D02*
X27089598Y-65457419D01*
X27089598Y-65457419D02*
X26994360Y-65457419D01*
X26994360Y-65457419D02*
X26851503Y-65409800D01*
X26851503Y-65409800D02*
X26803884Y-65362180D01*
X26803884Y-65362180D02*
X26803884Y-65028847D01*
X26803884Y-65028847D02*
X26994360Y-65028847D01*
X26375312Y-65457419D02*
X26375312Y-64457419D01*
X26375312Y-64457419D02*
X25803884Y-65457419D01*
X25803884Y-65457419D02*
X25803884Y-64457419D01*
X25327693Y-65457419D02*
X25327693Y-64457419D01*
X25327693Y-64457419D02*
X25089598Y-64457419D01*
X25089598Y-64457419D02*
X24946741Y-64505038D01*
X24946741Y-64505038D02*
X24851503Y-64600276D01*
X24851503Y-64600276D02*
X24803884Y-64695514D01*
X24803884Y-64695514D02*
X24756265Y-64885990D01*
X24756265Y-64885990D02*
X24756265Y-65028847D01*
X24756265Y-65028847D02*
X24803884Y-65219323D01*
X24803884Y-65219323D02*
X24851503Y-65314561D01*
X24851503Y-65314561D02*
X24946741Y-65409800D01*
X24946741Y-65409800D02*
X25089598Y-65457419D01*
X25089598Y-65457419D02*
X25327693Y-65457419D01*
X27661026Y-67457419D02*
X27041979Y-67457419D01*
X27041979Y-67457419D02*
X27375312Y-67838371D01*
X27375312Y-67838371D02*
X27232455Y-67838371D01*
X27232455Y-67838371D02*
X27137217Y-67885990D01*
X27137217Y-67885990D02*
X27089598Y-67933609D01*
X27089598Y-67933609D02*
X27041979Y-68028847D01*
X27041979Y-68028847D02*
X27041979Y-68266942D01*
X27041979Y-68266942D02*
X27089598Y-68362180D01*
X27089598Y-68362180D02*
X27137217Y-68409800D01*
X27137217Y-68409800D02*
X27232455Y-68457419D01*
X27232455Y-68457419D02*
X27518169Y-68457419D01*
X27518169Y-68457419D02*
X27613407Y-68409800D01*
X27613407Y-68409800D02*
X27661026Y-68362180D01*
X26613407Y-68362180D02*
X26565788Y-68409800D01*
X26565788Y-68409800D02*
X26613407Y-68457419D01*
X26613407Y-68457419D02*
X26661026Y-68409800D01*
X26661026Y-68409800D02*
X26613407Y-68362180D01*
X26613407Y-68362180D02*
X26613407Y-68457419D01*
X26232455Y-67457419D02*
X25613408Y-67457419D01*
X25613408Y-67457419D02*
X25946741Y-67838371D01*
X25946741Y-67838371D02*
X25803884Y-67838371D01*
X25803884Y-67838371D02*
X25708646Y-67885990D01*
X25708646Y-67885990D02*
X25661027Y-67933609D01*
X25661027Y-67933609D02*
X25613408Y-68028847D01*
X25613408Y-68028847D02*
X25613408Y-68266942D01*
X25613408Y-68266942D02*
X25661027Y-68362180D01*
X25661027Y-68362180D02*
X25708646Y-68409800D01*
X25708646Y-68409800D02*
X25803884Y-68457419D01*
X25803884Y-68457419D02*
X26089598Y-68457419D01*
X26089598Y-68457419D02*
X26184836Y-68409800D01*
X26184836Y-68409800D02*
X26232455Y-68362180D01*
X25327693Y-67457419D02*
X24994360Y-68457419D01*
X24994360Y-68457419D02*
X24661027Y-67457419D01*
%LPC*%
G36*
X20838612Y-219183371D02*
G01*
X20973199Y-219210142D01*
X21099978Y-219262655D01*
X21214075Y-219338893D01*
X21311107Y-219435925D01*
X21387345Y-219550022D01*
X21439858Y-219676801D01*
X21466629Y-219811388D01*
X21466629Y-219948612D01*
X21439858Y-220083199D01*
X21387345Y-220209978D01*
X21311107Y-220324075D01*
X21214075Y-220421107D01*
X21099978Y-220497345D01*
X20973199Y-220549858D01*
X20838612Y-220576629D01*
X20770000Y-220580000D01*
X20769384Y-220580000D01*
X19970616Y-220580000D01*
X19970000Y-220580000D01*
X19901388Y-220576629D01*
X19766801Y-220549858D01*
X19640022Y-220497345D01*
X19525925Y-220421107D01*
X19428893Y-220324075D01*
X19352655Y-220209978D01*
X19300142Y-220083199D01*
X19273371Y-219948612D01*
X19273371Y-219811388D01*
X19300142Y-219676801D01*
X19352655Y-219550022D01*
X19428893Y-219435925D01*
X19525925Y-219338893D01*
X19640022Y-219262655D01*
X19766801Y-219210142D01*
X19901388Y-219183371D01*
X19970000Y-219180000D01*
X20770000Y-219180000D01*
X20838612Y-219183371D01*
G37*
G36*
X25138612Y-219183371D02*
G01*
X25273199Y-219210142D01*
X25399978Y-219262655D01*
X25514075Y-219338893D01*
X25611107Y-219435925D01*
X25687345Y-219550022D01*
X25739858Y-219676801D01*
X25766629Y-219811388D01*
X25766629Y-219948612D01*
X25739858Y-220083199D01*
X25687345Y-220209978D01*
X25611107Y-220324075D01*
X25514075Y-220421107D01*
X25399978Y-220497345D01*
X25273199Y-220549858D01*
X25138612Y-220576629D01*
X25070000Y-220580000D01*
X25069384Y-220580000D01*
X24070616Y-220580000D01*
X24070000Y-220580000D01*
X24001388Y-220576629D01*
X23866801Y-220549858D01*
X23740022Y-220497345D01*
X23625925Y-220421107D01*
X23528893Y-220324075D01*
X23452655Y-220209978D01*
X23400142Y-220083199D01*
X23373371Y-219948612D01*
X23373371Y-219811388D01*
X23400142Y-219676801D01*
X23452655Y-219550022D01*
X23528893Y-219435925D01*
X23625925Y-219338893D01*
X23740022Y-219262655D01*
X23866801Y-219210142D01*
X24001388Y-219183371D01*
X24070000Y-219180000D01*
X25070000Y-219180000D01*
X25138612Y-219183371D01*
G37*
G36*
X24183939Y-218116642D02*
G01*
X24263067Y-218162326D01*
X24327674Y-218226933D01*
X24373358Y-218306061D01*
X24397006Y-218394316D01*
X24397006Y-218485684D01*
X24373358Y-218573939D01*
X24327674Y-218653067D01*
X24263067Y-218717674D01*
X24183939Y-218763358D01*
X24095684Y-218787006D01*
X24004316Y-218787006D01*
X23916061Y-218763358D01*
X23836933Y-218717674D01*
X23772326Y-218653067D01*
X23726642Y-218573939D01*
X23702994Y-218485684D01*
X23702994Y-218394316D01*
X23726642Y-218306061D01*
X23772326Y-218226933D01*
X23836933Y-218162326D01*
X23916061Y-218116642D01*
X24004316Y-218092994D01*
X24095684Y-218092994D01*
X24183939Y-218116642D01*
G37*
G36*
X19864805Y-217272836D02*
G01*
X19932628Y-217311994D01*
X19988006Y-217367372D01*
X20027164Y-217435195D01*
X20047433Y-217510842D01*
X20047433Y-217589158D01*
X20027164Y-217664805D01*
X19988006Y-217732628D01*
X19932628Y-217788006D01*
X19864805Y-217827164D01*
X19789158Y-217847433D01*
X19710842Y-217847433D01*
X19635195Y-217827164D01*
X19567372Y-217788006D01*
X19511994Y-217732628D01*
X19472836Y-217664805D01*
X19452567Y-217589158D01*
X19452567Y-217510842D01*
X19472836Y-217435195D01*
X19511994Y-217367372D01*
X19567372Y-217311994D01*
X19635195Y-217272836D01*
X19710842Y-217252567D01*
X19789158Y-217252567D01*
X19864805Y-217272836D01*
G37*
G36*
X21864805Y-217272836D02*
G01*
X21932628Y-217311994D01*
X21988006Y-217367372D01*
X22027164Y-217435195D01*
X22047433Y-217510842D01*
X22047433Y-217589158D01*
X22027164Y-217664805D01*
X21988006Y-217732628D01*
X21932628Y-217788006D01*
X21864805Y-217827164D01*
X21789158Y-217847433D01*
X21710842Y-217847433D01*
X21635195Y-217827164D01*
X21567372Y-217788006D01*
X21511994Y-217732628D01*
X21472836Y-217664805D01*
X21452567Y-217589158D01*
X21452567Y-217510842D01*
X21472836Y-217435195D01*
X21511994Y-217367372D01*
X21567372Y-217311994D01*
X21635195Y-217272836D01*
X21710842Y-217252567D01*
X21789158Y-217252567D01*
X21864805Y-217272836D01*
G37*
G36*
X19864805Y-213272836D02*
G01*
X19932628Y-213311994D01*
X19988006Y-213367372D01*
X20027164Y-213435195D01*
X20047433Y-213510842D01*
X20047433Y-213589158D01*
X20027164Y-213664805D01*
X19988006Y-213732628D01*
X19932628Y-213788006D01*
X19864805Y-213827164D01*
X19789158Y-213847433D01*
X19710842Y-213847433D01*
X19635195Y-213827164D01*
X19567372Y-213788006D01*
X19511994Y-213732628D01*
X19472836Y-213664805D01*
X19452567Y-213589158D01*
X19452567Y-213510842D01*
X19472836Y-213435195D01*
X19511994Y-213367372D01*
X19567372Y-213311994D01*
X19635195Y-213272836D01*
X19710842Y-213252567D01*
X19789158Y-213252567D01*
X19864805Y-213272836D01*
G37*
G36*
X21864805Y-213272836D02*
G01*
X21932628Y-213311994D01*
X21988006Y-213367372D01*
X22027164Y-213435195D01*
X22047433Y-213510842D01*
X22047433Y-213589158D01*
X22027164Y-213664805D01*
X21988006Y-213732628D01*
X21932628Y-213788006D01*
X21864805Y-213827164D01*
X21789158Y-213847433D01*
X21710842Y-213847433D01*
X21635195Y-213827164D01*
X21567372Y-213788006D01*
X21511994Y-213732628D01*
X21472836Y-213664805D01*
X21452567Y-213589158D01*
X21452567Y-213510842D01*
X21472836Y-213435195D01*
X21511994Y-213367372D01*
X21567372Y-213311994D01*
X21635195Y-213272836D01*
X21710842Y-213252567D01*
X21789158Y-213252567D01*
X21864805Y-213272836D01*
G37*
G36*
X24183939Y-212336642D02*
G01*
X24263067Y-212382326D01*
X24327674Y-212446933D01*
X24373358Y-212526061D01*
X24397006Y-212614316D01*
X24397006Y-212705684D01*
X24373358Y-212793939D01*
X24327674Y-212873067D01*
X24263067Y-212937674D01*
X24183939Y-212983358D01*
X24095684Y-213007006D01*
X24004316Y-213007006D01*
X23916061Y-212983358D01*
X23836933Y-212937674D01*
X23772326Y-212873067D01*
X23726642Y-212793939D01*
X23702994Y-212705684D01*
X23702994Y-212614316D01*
X23726642Y-212526061D01*
X23772326Y-212446933D01*
X23836933Y-212382326D01*
X23916061Y-212336642D01*
X24004316Y-212312994D01*
X24095684Y-212312994D01*
X24183939Y-212336642D01*
G37*
G36*
X20838612Y-210523371D02*
G01*
X20973199Y-210550142D01*
X21099978Y-210602655D01*
X21214075Y-210678893D01*
X21311107Y-210775925D01*
X21387345Y-210890022D01*
X21439858Y-211016801D01*
X21466629Y-211151388D01*
X21466629Y-211288612D01*
X21439858Y-211423199D01*
X21387345Y-211549978D01*
X21311107Y-211664075D01*
X21214075Y-211761107D01*
X21099978Y-211837345D01*
X20973199Y-211889858D01*
X20838612Y-211916629D01*
X20770000Y-211920000D01*
X20769384Y-211920000D01*
X19970616Y-211920000D01*
X19970000Y-211920000D01*
X19901388Y-211916629D01*
X19766801Y-211889858D01*
X19640022Y-211837345D01*
X19525925Y-211761107D01*
X19428893Y-211664075D01*
X19352655Y-211549978D01*
X19300142Y-211423199D01*
X19273371Y-211288612D01*
X19273371Y-211151388D01*
X19300142Y-211016801D01*
X19352655Y-210890022D01*
X19428893Y-210775925D01*
X19525925Y-210678893D01*
X19640022Y-210602655D01*
X19766801Y-210550142D01*
X19901388Y-210523371D01*
X19970000Y-210520000D01*
X20770000Y-210520000D01*
X20838612Y-210523371D01*
G37*
G36*
X25138612Y-210523371D02*
G01*
X25273199Y-210550142D01*
X25399978Y-210602655D01*
X25514075Y-210678893D01*
X25611107Y-210775925D01*
X25687345Y-210890022D01*
X25739858Y-211016801D01*
X25766629Y-211151388D01*
X25766629Y-211288612D01*
X25739858Y-211423199D01*
X25687345Y-211549978D01*
X25611107Y-211664075D01*
X25514075Y-211761107D01*
X25399978Y-211837345D01*
X25273199Y-211889858D01*
X25138612Y-211916629D01*
X25070000Y-211920000D01*
X25069384Y-211920000D01*
X24070616Y-211920000D01*
X24070000Y-211920000D01*
X24001388Y-211916629D01*
X23866801Y-211889858D01*
X23740022Y-211837345D01*
X23625925Y-211761107D01*
X23528893Y-211664075D01*
X23452655Y-211549978D01*
X23400142Y-211423199D01*
X23373371Y-211288612D01*
X23373371Y-211151388D01*
X23400142Y-211016801D01*
X23452655Y-210890022D01*
X23528893Y-210775925D01*
X23625925Y-210678893D01*
X23740022Y-210602655D01*
X23866801Y-210550142D01*
X24001388Y-210523371D01*
X24070000Y-210520000D01*
X25070000Y-210520000D01*
X25138612Y-210523371D01*
G37*
G36*
X22808148Y-66716472D02*
G01*
X23005142Y-66780479D01*
X23189698Y-66874515D01*
X23357271Y-66996264D01*
X23503736Y-67142729D01*
X23625485Y-67310302D01*
X23719521Y-67494858D01*
X23783528Y-67691852D01*
X23815931Y-67896434D01*
X23815931Y-68103566D01*
X23783528Y-68308148D01*
X23719521Y-68505142D01*
X23625485Y-68689698D01*
X23503736Y-68857271D01*
X23357271Y-69003736D01*
X23189698Y-69125485D01*
X23005142Y-69219521D01*
X22808148Y-69283528D01*
X22603566Y-69315931D01*
X22396434Y-69315931D01*
X22191852Y-69283528D01*
X21994858Y-69219521D01*
X21810302Y-69125485D01*
X21642729Y-69003736D01*
X21496264Y-68857271D01*
X21374515Y-68689698D01*
X21280479Y-68505142D01*
X21216472Y-68308148D01*
X21184069Y-68103566D01*
X21184069Y-67896434D01*
X21216472Y-67691852D01*
X21280479Y-67494858D01*
X21374515Y-67310302D01*
X21496264Y-67142729D01*
X21642729Y-66996264D01*
X21810302Y-66874515D01*
X21994858Y-66780479D01*
X22191852Y-66716472D01*
X22396434Y-66684069D01*
X22603566Y-66684069D01*
X22808148Y-66716472D01*
G37*
G36*
X22808148Y-63716472D02*
G01*
X23005142Y-63780479D01*
X23189698Y-63874515D01*
X23357271Y-63996264D01*
X23503736Y-64142729D01*
X23625485Y-64310302D01*
X23719521Y-64494858D01*
X23783528Y-64691852D01*
X23815931Y-64896434D01*
X23815931Y-65103566D01*
X23783528Y-65308148D01*
X23719521Y-65505142D01*
X23625485Y-65689698D01*
X23503736Y-65857271D01*
X23357271Y-66003736D01*
X23189698Y-66125485D01*
X23005142Y-66219521D01*
X22808148Y-66283528D01*
X22603566Y-66315931D01*
X22396434Y-66315931D01*
X22191852Y-66283528D01*
X21994858Y-66219521D01*
X21810302Y-66125485D01*
X21642729Y-66003736D01*
X21496264Y-65857271D01*
X21374515Y-65689698D01*
X21280479Y-65505142D01*
X21216472Y-65308148D01*
X21184069Y-65103566D01*
X21184069Y-64896434D01*
X21216472Y-64691852D01*
X21280479Y-64494858D01*
X21374515Y-64310302D01*
X21496264Y-64142729D01*
X21642729Y-63996264D01*
X21810302Y-63874515D01*
X21994858Y-63780479D01*
X22191852Y-63716472D01*
X22396434Y-63684069D01*
X22603566Y-63684069D01*
X22808148Y-63716472D01*
G37*
G36*
X22808148Y-60716472D02*
G01*
X23005142Y-60780479D01*
X23189698Y-60874515D01*
X23357271Y-60996264D01*
X23503736Y-61142729D01*
X23625485Y-61310302D01*
X23719521Y-61494858D01*
X23783528Y-61691852D01*
X23815931Y-61896434D01*
X23815931Y-62103566D01*
X23783528Y-62308148D01*
X23719521Y-62505142D01*
X23625485Y-62689698D01*
X23503736Y-62857271D01*
X23357271Y-63003736D01*
X23189698Y-63125485D01*
X23005142Y-63219521D01*
X22808148Y-63283528D01*
X22603566Y-63315931D01*
X22396434Y-63315931D01*
X22191852Y-63283528D01*
X21994858Y-63219521D01*
X21810302Y-63125485D01*
X21642729Y-63003736D01*
X21496264Y-62857271D01*
X21374515Y-62689698D01*
X21280479Y-62505142D01*
X21216472Y-62308148D01*
X21184069Y-62103566D01*
X21184069Y-61896434D01*
X21216472Y-61691852D01*
X21280479Y-61494858D01*
X21374515Y-61310302D01*
X21496264Y-61142729D01*
X21642729Y-60996264D01*
X21810302Y-60874515D01*
X21994858Y-60780479D01*
X22191852Y-60716472D01*
X22396434Y-60684069D01*
X22603566Y-60684069D01*
X22808148Y-60716472D01*
G37*
G36*
X22808148Y-57716472D02*
G01*
X23005142Y-57780479D01*
X23189698Y-57874515D01*
X23357271Y-57996264D01*
X23503736Y-58142729D01*
X23625485Y-58310302D01*
X23719521Y-58494858D01*
X23783528Y-58691852D01*
X23815931Y-58896434D01*
X23815931Y-59103566D01*
X23783528Y-59308148D01*
X23719521Y-59505142D01*
X23625485Y-59689698D01*
X23503736Y-59857271D01*
X23357271Y-60003736D01*
X23189698Y-60125485D01*
X23005142Y-60219521D01*
X22808148Y-60283528D01*
X22603566Y-60315931D01*
X22396434Y-60315931D01*
X22191852Y-60283528D01*
X21994858Y-60219521D01*
X21810302Y-60125485D01*
X21642729Y-60003736D01*
X21496264Y-59857271D01*
X21374515Y-59689698D01*
X21280479Y-59505142D01*
X21216472Y-59308148D01*
X21184069Y-59103566D01*
X21184069Y-58896434D01*
X21216472Y-58691852D01*
X21280479Y-58494858D01*
X21374515Y-58310302D01*
X21496264Y-58142729D01*
X21642729Y-57996264D01*
X21810302Y-57874515D01*
X21994858Y-57780479D01*
X22191852Y-57716472D01*
X22396434Y-57684069D01*
X22603566Y-57684069D01*
X22808148Y-57716472D01*
G37*
G36*
X22808148Y-54716472D02*
G01*
X23005142Y-54780479D01*
X23189698Y-54874515D01*
X23357271Y-54996264D01*
X23503736Y-55142729D01*
X23625485Y-55310302D01*
X23719521Y-55494858D01*
X23783528Y-55691852D01*
X23815931Y-55896434D01*
X23815931Y-56103566D01*
X23783528Y-56308148D01*
X23719521Y-56505142D01*
X23625485Y-56689698D01*
X23503736Y-56857271D01*
X23357271Y-57003736D01*
X23189698Y-57125485D01*
X23005142Y-57219521D01*
X22808148Y-57283528D01*
X22603566Y-57315931D01*
X22396434Y-57315931D01*
X22191852Y-57283528D01*
X21994858Y-57219521D01*
X21810302Y-57125485D01*
X21642729Y-57003736D01*
X21496264Y-56857271D01*
X21374515Y-56689698D01*
X21280479Y-56505142D01*
X21216472Y-56308148D01*
X21184069Y-56103566D01*
X21184069Y-55896434D01*
X21216472Y-55691852D01*
X21280479Y-55494858D01*
X21374515Y-55310302D01*
X21496264Y-55142729D01*
X21642729Y-54996264D01*
X21810302Y-54874515D01*
X21994858Y-54780479D01*
X22191852Y-54716472D01*
X22396434Y-54684069D01*
X22603566Y-54684069D01*
X22808148Y-54716472D01*
G37*
G36*
X22808148Y-51716472D02*
G01*
X23005142Y-51780479D01*
X23189698Y-51874515D01*
X23357271Y-51996264D01*
X23503736Y-52142729D01*
X23625485Y-52310302D01*
X23719521Y-52494858D01*
X23783528Y-52691852D01*
X23815931Y-52896434D01*
X23815931Y-53103566D01*
X23783528Y-53308148D01*
X23719521Y-53505142D01*
X23625485Y-53689698D01*
X23503736Y-53857271D01*
X23357271Y-54003736D01*
X23189698Y-54125485D01*
X23005142Y-54219521D01*
X22808148Y-54283528D01*
X22603566Y-54315931D01*
X22396434Y-54315931D01*
X22191852Y-54283528D01*
X21994858Y-54219521D01*
X21810302Y-54125485D01*
X21642729Y-54003736D01*
X21496264Y-53857271D01*
X21374515Y-53689698D01*
X21280479Y-53505142D01*
X21216472Y-53308148D01*
X21184069Y-53103566D01*
X21184069Y-52896434D01*
X21216472Y-52691852D01*
X21280479Y-52494858D01*
X21374515Y-52310302D01*
X21496264Y-52142729D01*
X21642729Y-51996264D01*
X21810302Y-51874515D01*
X21994858Y-51780479D01*
X22191852Y-51716472D01*
X22396434Y-51684069D01*
X22603566Y-51684069D01*
X22808148Y-51716472D01*
G37*
G36*
X22808148Y-48716472D02*
G01*
X23005142Y-48780479D01*
X23189698Y-48874515D01*
X23357271Y-48996264D01*
X23503736Y-49142729D01*
X23625485Y-49310302D01*
X23719521Y-49494858D01*
X23783528Y-49691852D01*
X23815931Y-49896434D01*
X23815931Y-50103566D01*
X23783528Y-50308148D01*
X23719521Y-50505142D01*
X23625485Y-50689698D01*
X23503736Y-50857271D01*
X23357271Y-51003736D01*
X23189698Y-51125485D01*
X23005142Y-51219521D01*
X22808148Y-51283528D01*
X22603566Y-51315931D01*
X22396434Y-51315931D01*
X22191852Y-51283528D01*
X21994858Y-51219521D01*
X21810302Y-51125485D01*
X21642729Y-51003736D01*
X21496264Y-50857271D01*
X21374515Y-50689698D01*
X21280479Y-50505142D01*
X21216472Y-50308148D01*
X21184069Y-50103566D01*
X21184069Y-49896434D01*
X21216472Y-49691852D01*
X21280479Y-49494858D01*
X21374515Y-49310302D01*
X21496264Y-49142729D01*
X21642729Y-48996264D01*
X21810302Y-48874515D01*
X21994858Y-48780479D01*
X22191852Y-48716472D01*
X22396434Y-48684069D01*
X22603566Y-48684069D01*
X22808148Y-48716472D01*
G37*
%LPD*%
M02*
